<svg width="113" height="48" viewBox="0 0 113 48" fill="none" xmlns="http://www.w3.org/2000/svg">
<rect width="113" height="48" fill="white"/>
<mask id="path-1-outside-1_5_14" maskUnits="userSpaceOnUse" x="3" y="4" width="108" height="40" fill="black">
<rect fill="white" x="3" y="4" width="108" height="40"/>
<path d="M5.22 7.72C4.91333 7.72 4.64667 7.61333 4.42 7.4C4.19333 7.17333 4.08 6.90667 4.08 6.6V6.54C4.08 6.23333 4.19333 5.96667 4.42 5.74C4.64667 5.51333 4.91333 5.4 5.22 5.4H13.74C14.0467 5.4 14.3133 5.51333 14.54 5.74C14.7667 5.96667 14.88 6.23333 14.88 6.54V6.6C14.88 6.90667 14.7667 7.17333 14.54 7.4C14.3133 7.61333 14.0467 7.72 13.74 7.72H11.06C10.9533 7.72 10.9 7.78 10.9 7.9V18.86C10.9 19.1667 10.7867 19.4333 10.56 19.66C10.3333 19.8867 10.0667 20 9.76 20H9.2C8.89333 20 8.62667 19.8867 8.4 19.66C8.17333 19.4333 8.06 19.1667 8.06 18.86V7.9C8.06 7.78 8.00667 7.72 7.9 7.72H5.22ZM18.7688 20C18.4621 20 18.1954 19.8867 17.9688 19.66C17.7554 19.4333 17.6488 19.1667 17.6488 18.86V6.54C17.6488 6.23333 17.7554 5.96667 17.9688 5.74C18.1954 5.51333 18.4621 5.4 18.7688 5.4H19.3088C19.6154 5.4 19.8821 5.51333 20.1088 5.74C20.3354 5.96667 20.4488 6.23333 20.4488 6.54V11.08C20.4488 11.1867 20.5021 11.24 20.6088 11.24H25.6088C25.7154 11.24 25.7688 11.1867 25.7688 11.08V6.54C25.7688 6.23333 25.8821 5.96667 26.1088 5.74C26.3354 5.51333 26.6021 5.4 26.9088 5.4H27.4488C27.7554 5.4 28.0154 5.51333 28.2288 5.74C28.4554 5.96667 28.5688 6.23333 28.5688 6.54V18.86C28.5688 19.1667 28.4554 19.4333 28.2288 19.66C28.0154 19.8867 27.7554 20 27.4488 20H26.9088C26.6021 20 26.3354 19.8867 26.1088 19.66C25.8821 19.4333 25.7688 19.1667 25.7688 18.86V13.56C25.7688 13.44 25.7154 13.38 25.6088 13.38H20.6088C20.5021 13.38 20.4488 13.44 20.4488 13.56V18.86C20.4488 19.1667 20.3354 19.4333 20.1088 19.66C19.8821 19.8867 19.6154 20 19.3088 20H18.7688ZM41.3908 12.7C41.3908 9.23333 40.1241 7.5 37.5908 7.5C35.0574 7.5 33.7908 9.23333 33.7908 12.7C33.7908 16.1667 35.0574 17.9 37.5908 17.9C40.1241 17.9 41.3908 16.1667 41.3908 12.7ZM42.4508 18.22C41.2641 19.54 39.6441 20.2 37.5908 20.2C35.5374 20.2 33.9108 19.54 32.7108 18.22C31.5241 16.9 30.9308 15.06 30.9308 12.7C30.9308 10.34 31.5241 8.5 32.7108 7.18C33.9108 5.86 35.5374 5.2 37.5908 5.2C39.6441 5.2 41.2641 5.86 42.4508 7.18C43.6508 8.5 44.2508 10.34 44.2508 12.7C44.2508 15.06 43.6508 16.9 42.4508 18.22ZM57.2183 14.8C57.2183 18.4 55.4183 20.2 51.8183 20.2C48.2183 20.2 46.4183 18.4 46.4183 14.8V6.54C46.4183 6.23333 46.5316 5.96667 46.7583 5.74C46.9849 5.51333 47.2516 5.4 47.5583 5.4H48.1183C48.4249 5.4 48.6916 5.51333 48.9183 5.74C49.1449 5.96667 49.2583 6.23333 49.2583 6.54V14.96C49.2583 16 49.4649 16.7533 49.8783 17.22C50.3049 17.6733 50.9649 17.9 51.8583 17.9C52.7516 17.9 53.4049 17.6733 53.8183 17.22C54.2449 16.7533 54.4583 16 54.4583 14.96V6.54C54.4583 6.23333 54.5716 5.96667 54.7983 5.74C55.0249 5.51333 55.2916 5.4 55.5983 5.4H56.0783C56.3849 5.4 56.6516 5.51333 56.8783 5.74C57.1049 5.96667 57.2183 6.23333 57.2183 6.54V14.8ZM61.393 20C61.0863 20 60.8196 19.8867 60.593 19.66C60.3796 19.4333 60.273 19.1667 60.273 18.86V6.54C60.273 6.23333 60.3796 5.96667 60.593 5.74C60.8196 5.51333 61.0863 5.4 61.393 5.4H67.993C68.2996 5.4 68.5663 5.51333 68.793 5.74C69.0196 5.96667 69.133 6.23333 69.133 6.54C69.133 6.84667 69.0196 7.11333 68.793 7.34C68.5663 7.55333 68.2996 7.66 67.993 7.66H63.233C63.1263 7.66 63.073 7.72 63.073 7.84V11.34C63.073 11.4467 63.1263 11.5 63.233 11.5H67.653C67.9463 11.5 68.1996 11.6067 68.413 11.82C68.6263 12.02 68.733 12.2733 68.733 12.58C68.733 12.8867 68.6263 13.1467 68.413 13.36C68.1996 13.56 67.9463 13.66 67.653 13.66H63.233C63.1263 13.66 63.073 13.7133 63.073 13.82V18.86C63.073 19.1667 62.9596 19.4333 62.733 19.66C62.5063 19.8867 62.2396 20 61.933 20H61.393ZM73.2317 20C72.9251 20 72.6584 19.8867 72.4317 19.66C72.2051 19.4333 72.0917 19.1667 72.0917 18.86V6.54C72.0917 6.23333 72.2051 5.96667 72.4317 5.74C72.6584 5.51333 72.9251 5.4 73.2317 5.4H80.0317C80.3384 5.4 80.6051 5.51333 80.8317 5.74C81.0584 5.96667 81.1717 6.23333 81.1717 6.54C81.1717 6.84667 81.0584 7.11333 80.8317 7.34C80.6051 7.55333 80.3384 7.66 80.0317 7.66H75.0717C74.9517 7.66 74.8917 7.72 74.8917 7.84V11.06C74.8917 11.18 74.9517 11.24 75.0717 11.24H79.6917C79.9984 11.24 80.2517 11.3467 80.4517 11.56C80.6651 11.7733 80.7717 12.0267 80.7717 12.32C80.7717 12.6133 80.6651 12.8667 80.4517 13.08C80.2517 13.28 79.9984 13.38 79.6917 13.38H75.0717C74.9517 13.38 74.8917 13.44 74.8917 13.56V17.56C74.8917 17.68 74.9517 17.74 75.0717 17.74H80.0317C80.3384 17.74 80.6051 17.8533 80.8317 18.08C81.0584 18.2933 81.1717 18.5533 81.1717 18.86C81.1717 19.1667 81.0584 19.4333 80.8317 19.66C80.6051 19.8867 80.3384 20 80.0317 20H73.2317ZM85.363 20C85.0563 20 84.7896 19.8867 84.563 19.66C84.3363 19.4333 84.223 19.1667 84.223 18.86V6.54C84.223 6.23333 84.3363 5.96667 84.563 5.74C84.7896 5.51333 85.0563 5.4 85.363 5.4H92.163C92.4696 5.4 92.7363 5.51333 92.963 5.74C93.1896 5.96667 93.303 6.23333 93.303 6.54C93.303 6.84667 93.1896 7.11333 92.963 7.34C92.7363 7.55333 92.4696 7.66 92.163 7.66H87.203C87.083 7.66 87.023 7.72 87.023 7.84V11.06C87.023 11.18 87.083 11.24 87.203 11.24H91.823C92.1296 11.24 92.383 11.3467 92.583 11.56C92.7963 11.7733 92.903 12.0267 92.903 12.32C92.903 12.6133 92.7963 12.8667 92.583 13.08C92.383 13.28 92.1296 13.38 91.823 13.38H87.203C87.083 13.38 87.023 13.44 87.023 13.56V17.56C87.023 17.68 87.083 17.74 87.203 17.74H92.163C92.4696 17.74 92.7363 17.8533 92.963 18.08C93.1896 18.2933 93.303 18.5533 93.303 18.86C93.303 19.1667 93.1896 19.4333 92.963 19.66C92.7363 19.8867 92.4696 20 92.163 20H85.363ZM101.939 7.5C99.3922 7.5 98.1189 9.23333 98.1189 12.7C98.1189 16.1667 99.3922 17.9 101.939 17.9C104.472 17.9 105.739 16.1667 105.739 12.7C105.739 9.23333 104.472 7.5 101.939 7.5ZM101.939 20.2C99.8856 20.2 98.2589 19.54 97.0589 18.22C95.8589 16.9 95.2589 15.06 95.2589 12.7C95.2589 10.34 95.8589 8.5 97.0589 7.18C98.2589 5.86 99.8856 5.2 101.939 5.2C103.992 5.2 105.612 5.86 106.799 7.18C107.999 8.5 108.599 10.34 108.599 12.7C108.599 15.6067 107.619 17.72 105.659 19.04C105.646 19.04 105.639 19.0467 105.639 19.06C105.639 19.0867 105.646 19.1 105.659 19.1C107.152 19.6867 108.432 20.6667 109.499 22.04C109.646 22.24 109.659 22.4467 109.539 22.66C109.432 22.8867 109.252 23 108.999 23H108.139C107.419 23 106.832 22.68 106.379 22.04C105.846 21.2933 105.279 20.8 104.679 20.56C104.079 20.32 103.166 20.2 101.939 20.2ZM8.425 27.6V33.025C8.425 33.1583 8.5 33.225 8.65 33.225H9.9C12.8667 33.225 14.35 32.1667 14.35 30.05C14.35 28.1667 12.975 27.225 10.225 27.225C9.725 27.225 9.2 27.2667 8.65 27.35C8.5 27.3833 8.425 27.4667 8.425 27.6ZM6.4 43C6.01667 43 5.68333 42.8583 5.4 42.575C5.11667 42.2917 4.975 41.9583 4.975 41.575V26.3C4.975 25.9 5.10833 25.5417 5.375 25.225C5.64167 24.9083 5.975 24.7333 6.375 24.7C7.79167 24.5667 9.15833 24.5 10.475 24.5C12.925 24.5 14.7583 24.9583 15.975 25.875C17.1917 26.775 17.8 28.05 17.8 29.7C17.8 30.8833 17.475 31.925 16.825 32.825C16.1917 33.725 15.3333 34.3583 14.25 34.725C14.2333 34.725 14.225 34.7333 14.225 34.75C14.225 34.7833 14.2333 34.8 14.25 34.8C15.05 35.3 15.7333 36.2833 16.3 37.75L17.8 41.675C17.9167 41.9917 17.875 42.2917 17.675 42.575C17.4917 42.8583 17.2333 43 16.9 43H16.125C15.6917 43 15.3 42.8833 14.95 42.65C14.6 42.4 14.35 42.075 14.2 41.675L12.8 37.825C12.5 37.025 12.1583 36.5 11.775 36.25C11.3917 36 10.7333 35.875 9.8 35.875H8.65C8.5 35.875 8.425 35.95 8.425 36.1V41.575C8.425 41.9583 8.28333 42.2917 8 42.575C7.73333 42.8583 7.40833 43 7.025 43H6.4ZM27.4389 27.85L25.2389 35.7C25.2222 35.75 25.2305 35.8 25.2639 35.85C25.2972 35.9 25.3389 35.925 25.3889 35.925H29.5389C29.5889 35.925 29.6305 35.9 29.6639 35.85C29.6972 35.8 29.7055 35.75 29.6889 35.7L27.4889 27.85C27.4889 27.8333 27.4805 27.825 27.4639 27.825C27.4472 27.825 27.4389 27.8333 27.4389 27.85ZM20.9639 43C20.6139 43 20.3389 42.8583 20.1389 42.575C19.9389 42.2917 19.8972 41.9833 20.0139 41.65L25.1889 26.1C25.3389 25.7 25.5805 25.375 25.9139 25.125C26.2639 24.875 26.6472 24.75 27.0639 24.75H27.9639C28.3972 24.75 28.7805 24.875 29.1139 25.125C29.4639 25.375 29.7055 25.7 29.8389 26.1L35.0139 41.65C35.1305 41.9833 35.0889 42.2917 34.8889 42.575C34.6889 42.8583 34.4139 43 34.0639 43H33.1639C32.7639 43 32.3889 42.875 32.0389 42.625C31.7055 42.3583 31.4805 42.025 31.3639 41.625L30.5639 38.8C30.5472 38.6667 30.4555 38.6 30.2889 38.6H24.6389C24.4889 38.6 24.3972 38.6667 24.3639 38.8L23.5639 41.625C23.4639 42.025 23.2389 42.3583 22.8889 42.625C22.5555 42.875 22.1805 43 21.7639 43H20.9639ZM38.9969 43C38.6135 43 38.2802 42.8583 37.9969 42.575C37.7302 42.2917 37.5969 41.9583 37.5969 41.575V26.175C37.5969 25.7917 37.7302 25.4583 37.9969 25.175C38.2802 24.8917 38.6135 24.75 38.9969 24.75H39.6719C40.0552 24.75 40.3885 24.8917 40.6719 25.175C40.9552 25.4583 41.0969 25.7917 41.0969 26.175V31.85C41.0969 31.9833 41.1635 32.05 41.2969 32.05H47.5469C47.6802 32.05 47.7469 31.9833 47.7469 31.85V26.175C47.7469 25.7917 47.8885 25.4583 48.1719 25.175C48.4552 24.8917 48.7885 24.75 49.1719 24.75H49.8469C50.2302 24.75 50.5552 24.8917 50.8219 25.175C51.1052 25.4583 51.2469 25.7917 51.2469 26.175V41.575C51.2469 41.9583 51.1052 42.2917 50.8219 42.575C50.5552 42.8583 50.2302 43 49.8469 43H49.1719C48.7885 43 48.4552 42.8583 48.1719 42.575C47.8885 42.2917 47.7469 41.9583 47.7469 41.575V34.95C47.7469 34.8 47.6802 34.725 47.5469 34.725H41.2969C41.1635 34.725 41.0969 34.8 41.0969 34.95V41.575C41.0969 41.9583 40.9552 42.2917 40.6719 42.575C40.3885 42.8583 40.0552 43 39.6719 43H38.9969ZM56.7244 43C56.3411 43 56.0077 42.8583 55.7244 42.575C55.4411 42.2917 55.2994 41.9583 55.2994 41.575V26.175C55.2994 25.7917 55.4411 25.4583 55.7244 25.175C56.0077 24.8917 56.3411 24.75 56.7244 24.75H57.3494C57.7827 24.75 58.1827 24.8667 58.5494 25.1C58.9161 25.3333 59.1827 25.6417 59.3494 26.025L63.7244 35.475C63.7244 35.4917 63.7327 35.5 63.7494 35.5C63.7661 35.5 63.7744 35.4917 63.7744 35.475L68.1494 26.025C68.3161 25.6417 68.5827 25.3333 68.9494 25.1C69.3161 24.8667 69.7161 24.75 70.1494 24.75H70.8744C71.2577 24.75 71.5911 24.8917 71.8744 25.175C72.1577 25.4583 72.2994 25.7917 72.2994 26.175V41.575C72.2994 41.9583 72.1577 42.2917 71.8744 42.575C71.5911 42.8583 71.2577 43 70.8744 43H70.3244C69.9411 43 69.6077 42.8583 69.3244 42.575C69.0411 42.2917 68.8994 41.9583 68.8994 41.575V30.7C68.8994 30.6833 68.8911 30.675 68.8744 30.675C68.8577 30.675 68.8494 30.6833 68.8494 30.7L65.8494 37.125C65.6661 37.5083 65.3827 37.825 64.9994 38.075C64.6327 38.3083 64.2411 38.425 63.8244 38.425H63.6744C63.2577 38.425 62.8577 38.3083 62.4744 38.075C62.1077 37.825 61.8327 37.5083 61.6494 37.125L58.6494 30.7C58.6494 30.6833 58.6411 30.675 58.6244 30.675C58.6077 30.675 58.5994 30.6833 58.5994 30.7V41.575C58.5994 41.9583 58.4577 42.2917 58.1744 42.575C57.8911 42.8583 57.5577 43 57.1744 43H56.7244ZM82.6217 27.85L80.4217 35.7C80.405 35.75 80.4133 35.8 80.4467 35.85C80.48 35.9 80.5217 35.925 80.5717 35.925H84.7217C84.7717 35.925 84.8133 35.9 84.8467 35.85C84.88 35.8 84.8883 35.75 84.8717 35.7L82.6717 27.85C82.6717 27.8333 82.6633 27.825 82.6467 27.825C82.63 27.825 82.6217 27.8333 82.6217 27.85ZM76.1467 43C75.7967 43 75.5217 42.8583 75.3217 42.575C75.1217 42.2917 75.08 41.9833 75.1967 41.65L80.3717 26.1C80.5217 25.7 80.7633 25.375 81.0967 25.125C81.4467 24.875 81.83 24.75 82.2467 24.75H83.1467C83.58 24.75 83.9633 24.875 84.2967 25.125C84.6467 25.375 84.8883 25.7 85.0217 26.1L90.1967 41.65C90.3133 41.9833 90.2717 42.2917 90.0717 42.575C89.8717 42.8583 89.5967 43 89.2467 43H88.3467C87.9467 43 87.5717 42.875 87.2217 42.625C86.8883 42.3583 86.6633 42.025 86.5467 41.625L85.7467 38.8C85.73 38.6667 85.6383 38.6 85.4717 38.6H79.8217C79.6717 38.6 79.58 38.6667 79.5467 38.8L78.7467 41.625C78.6467 42.025 78.4217 42.3583 78.0717 42.625C77.7383 42.875 77.3633 43 76.9467 43H76.1467ZM94.1797 43C93.7964 43 93.463 42.8583 93.1797 42.575C92.913 42.2917 92.7797 41.9583 92.7797 41.575V26.175C92.7797 25.7917 92.913 25.4583 93.1797 25.175C93.463 24.8917 93.7964 24.75 94.1797 24.75H94.7297C95.6797 24.75 96.3797 25.1667 96.8297 26L103.005 37.15C103.005 37.1667 103.013 37.175 103.03 37.175C103.046 37.175 103.055 37.1667 103.055 37.15V26.175C103.055 25.7917 103.196 25.4583 103.48 25.175C103.763 24.8917 104.096 24.75 104.48 24.75H105.03C105.413 24.75 105.738 24.8917 106.005 25.175C106.288 25.4583 106.43 25.7917 106.43 26.175V41.575C106.43 41.9583 106.288 42.2917 106.005 42.575C105.738 42.8583 105.413 43 105.03 43H104.48C103.53 43 102.83 42.5833 102.38 41.75L96.2047 30.6C96.2047 30.5833 96.1964 30.575 96.1797 30.575C96.163 30.575 96.1547 30.5833 96.1547 30.6V41.575C96.1547 41.9583 96.013 42.2917 95.7297 42.575C95.4464 42.8583 95.113 43 94.7297 43H94.1797Z"/>
</mask>
<path d="M5.22 7.72C4.91333 7.72 4.64667 7.61333 4.42 7.4C4.19333 7.17333 4.08 6.90667 4.08 6.6V6.54C4.08 6.23333 4.19333 5.96667 4.42 5.74C4.64667 5.51333 4.91333 5.4 5.22 5.4H13.74C14.0467 5.4 14.3133 5.51333 14.54 5.74C14.7667 5.96667 14.88 6.23333 14.88 6.54V6.6C14.88 6.90667 14.7667 7.17333 14.54 7.4C14.3133 7.61333 14.0467 7.72 13.74 7.72H11.06C10.9533 7.72 10.9 7.78 10.9 7.9V18.86C10.9 19.1667 10.7867 19.4333 10.56 19.66C10.3333 19.8867 10.0667 20 9.76 20H9.2C8.89333 20 8.62667 19.8867 8.4 19.66C8.17333 19.4333 8.06 19.1667 8.06 18.86V7.9C8.06 7.78 8.00667 7.72 7.9 7.72H5.22ZM18.7688 20C18.4621 20 18.1954 19.8867 17.9688 19.66C17.7554 19.4333 17.6488 19.1667 17.6488 18.86V6.54C17.6488 6.23333 17.7554 5.96667 17.9688 5.74C18.1954 5.51333 18.4621 5.4 18.7688 5.4H19.3088C19.6154 5.4 19.8821 5.51333 20.1088 5.74C20.3354 5.96667 20.4488 6.23333 20.4488 6.54V11.08C20.4488 11.1867 20.5021 11.24 20.6088 11.24H25.6088C25.7154 11.24 25.7688 11.1867 25.7688 11.08V6.54C25.7688 6.23333 25.8821 5.96667 26.1088 5.74C26.3354 5.51333 26.6021 5.4 26.9088 5.4H27.4488C27.7554 5.4 28.0154 5.51333 28.2288 5.74C28.4554 5.96667 28.5688 6.23333 28.5688 6.54V18.86C28.5688 19.1667 28.4554 19.4333 28.2288 19.66C28.0154 19.8867 27.7554 20 27.4488 20H26.9088C26.6021 20 26.3354 19.8867 26.1088 19.66C25.8821 19.4333 25.7688 19.1667 25.7688 18.86V13.56C25.7688 13.44 25.7154 13.38 25.6088 13.38H20.6088C20.5021 13.38 20.4488 13.44 20.4488 13.56V18.86C20.4488 19.1667 20.3354 19.4333 20.1088 19.66C19.8821 19.8867 19.6154 20 19.3088 20H18.7688ZM41.3908 12.7C41.3908 9.23333 40.1241 7.5 37.5908 7.5C35.0574 7.5 33.7908 9.23333 33.7908 12.7C33.7908 16.1667 35.0574 17.9 37.5908 17.9C40.1241 17.9 41.3908 16.1667 41.3908 12.7ZM42.4508 18.22C41.2641 19.54 39.6441 20.2 37.5908 20.2C35.5374 20.2 33.9108 19.54 32.7108 18.22C31.5241 16.9 30.9308 15.06 30.9308 12.7C30.9308 10.34 31.5241 8.5 32.7108 7.18C33.9108 5.86 35.5374 5.2 37.5908 5.2C39.6441 5.2 41.2641 5.86 42.4508 7.18C43.6508 8.5 44.2508 10.34 44.2508 12.7C44.2508 15.06 43.6508 16.9 42.4508 18.22ZM57.2183 14.8C57.2183 18.4 55.4183 20.2 51.8183 20.2C48.2183 20.2 46.4183 18.4 46.4183 14.8V6.54C46.4183 6.23333 46.5316 5.96667 46.7583 5.74C46.9849 5.51333 47.2516 5.4 47.5583 5.4H48.1183C48.4249 5.4 48.6916 5.51333 48.9183 5.74C49.1449 5.96667 49.2583 6.23333 49.2583 6.54V14.96C49.2583 16 49.4649 16.7533 49.8783 17.22C50.3049 17.6733 50.9649 17.9 51.8583 17.9C52.7516 17.9 53.4049 17.6733 53.8183 17.22C54.2449 16.7533 54.4583 16 54.4583 14.96V6.54C54.4583 6.23333 54.5716 5.96667 54.7983 5.74C55.0249 5.51333 55.2916 5.4 55.5983 5.4H56.0783C56.3849 5.4 56.6516 5.51333 56.8783 5.74C57.1049 5.96667 57.2183 6.23333 57.2183 6.54V14.8ZM61.393 20C61.0863 20 60.8196 19.8867 60.593 19.66C60.3796 19.4333 60.273 19.1667 60.273 18.86V6.54C60.273 6.23333 60.3796 5.96667 60.593 5.74C60.8196 5.51333 61.0863 5.4 61.393 5.4H67.993C68.2996 5.4 68.5663 5.51333 68.793 5.74C69.0196 5.96667 69.133 6.23333 69.133 6.54C69.133 6.84667 69.0196 7.11333 68.793 7.34C68.5663 7.55333 68.2996 7.66 67.993 7.66H63.233C63.1263 7.66 63.073 7.72 63.073 7.84V11.34C63.073 11.4467 63.1263 11.5 63.233 11.5H67.653C67.9463 11.5 68.1996 11.6067 68.413 11.82C68.6263 12.02 68.733 12.2733 68.733 12.58C68.733 12.8867 68.6263 13.1467 68.413 13.36C68.1996 13.56 67.9463 13.66 67.653 13.66H63.233C63.1263 13.66 63.073 13.7133 63.073 13.82V18.86C63.073 19.1667 62.9596 19.4333 62.733 19.66C62.5063 19.8867 62.2396 20 61.933 20H61.393ZM73.2317 20C72.9251 20 72.6584 19.8867 72.4317 19.66C72.2051 19.4333 72.0917 19.1667 72.0917 18.86V6.54C72.0917 6.23333 72.2051 5.96667 72.4317 5.74C72.6584 5.51333 72.9251 5.4 73.2317 5.4H80.0317C80.3384 5.4 80.6051 5.51333 80.8317 5.74C81.0584 5.96667 81.1717 6.23333 81.1717 6.54C81.1717 6.84667 81.0584 7.11333 80.8317 7.34C80.6051 7.55333 80.3384 7.66 80.0317 7.66H75.0717C74.9517 7.66 74.8917 7.72 74.8917 7.84V11.06C74.8917 11.18 74.9517 11.24 75.0717 11.24H79.6917C79.9984 11.24 80.2517 11.3467 80.4517 11.56C80.6651 11.7733 80.7717 12.0267 80.7717 12.32C80.7717 12.6133 80.6651 12.8667 80.4517 13.08C80.2517 13.28 79.9984 13.38 79.6917 13.38H75.0717C74.9517 13.38 74.8917 13.44 74.8917 13.56V17.56C74.8917 17.68 74.9517 17.74 75.0717 17.74H80.0317C80.3384 17.74 80.6051 17.8533 80.8317 18.08C81.0584 18.2933 81.1717 18.5533 81.1717 18.86C81.1717 19.1667 81.0584 19.4333 80.8317 19.66C80.6051 19.8867 80.3384 20 80.0317 20H73.2317ZM85.363 20C85.0563 20 84.7896 19.8867 84.563 19.66C84.3363 19.4333 84.223 19.1667 84.223 18.86V6.54C84.223 6.23333 84.3363 5.96667 84.563 5.74C84.7896 5.51333 85.0563 5.4 85.363 5.4H92.163C92.4696 5.4 92.7363 5.51333 92.963 5.74C93.1896 5.96667 93.303 6.23333 93.303 6.54C93.303 6.84667 93.1896 7.11333 92.963 7.34C92.7363 7.55333 92.4696 7.66 92.163 7.66H87.203C87.083 7.66 87.023 7.72 87.023 7.84V11.06C87.023 11.18 87.083 11.24 87.203 11.24H91.823C92.1296 11.24 92.383 11.3467 92.583 11.56C92.7963 11.7733 92.903 12.0267 92.903 12.32C92.903 12.6133 92.7963 12.8667 92.583 13.08C92.383 13.28 92.1296 13.38 91.823 13.38H87.203C87.083 13.38 87.023 13.44 87.023 13.56V17.56C87.023 17.68 87.083 17.74 87.203 17.74H92.163C92.4696 17.74 92.7363 17.8533 92.963 18.08C93.1896 18.2933 93.303 18.5533 93.303 18.86C93.303 19.1667 93.1896 19.4333 92.963 19.66C92.7363 19.8867 92.4696 20 92.163 20H85.363ZM101.939 7.5C99.3922 7.5 98.1189 9.23333 98.1189 12.7C98.1189 16.1667 99.3922 17.9 101.939 17.9C104.472 17.9 105.739 16.1667 105.739 12.7C105.739 9.23333 104.472 7.5 101.939 7.5ZM101.939 20.2C99.8856 20.2 98.2589 19.54 97.0589 18.22C95.8589 16.9 95.2589 15.06 95.2589 12.7C95.2589 10.34 95.8589 8.5 97.0589 7.18C98.2589 5.86 99.8856 5.2 101.939 5.2C103.992 5.2 105.612 5.86 106.799 7.18C107.999 8.5 108.599 10.34 108.599 12.7C108.599 15.6067 107.619 17.72 105.659 19.04C105.646 19.04 105.639 19.0467 105.639 19.06C105.639 19.0867 105.646 19.1 105.659 19.1C107.152 19.6867 108.432 20.6667 109.499 22.04C109.646 22.24 109.659 22.4467 109.539 22.66C109.432 22.8867 109.252 23 108.999 23H108.139C107.419 23 106.832 22.68 106.379 22.04C105.846 21.2933 105.279 20.8 104.679 20.56C104.079 20.32 103.166 20.2 101.939 20.2ZM8.425 27.6V33.025C8.425 33.1583 8.5 33.225 8.65 33.225H9.9C12.8667 33.225 14.35 32.1667 14.35 30.05C14.35 28.1667 12.975 27.225 10.225 27.225C9.725 27.225 9.2 27.2667 8.65 27.35C8.5 27.3833 8.425 27.4667 8.425 27.6ZM6.4 43C6.01667 43 5.68333 42.8583 5.4 42.575C5.11667 42.2917 4.975 41.9583 4.975 41.575V26.3C4.975 25.9 5.10833 25.5417 5.375 25.225C5.64167 24.9083 5.975 24.7333 6.375 24.7C7.79167 24.5667 9.15833 24.5 10.475 24.5C12.925 24.5 14.7583 24.9583 15.975 25.875C17.1917 26.775 17.8 28.05 17.8 29.7C17.8 30.8833 17.475 31.925 16.825 32.825C16.1917 33.725 15.3333 34.3583 14.25 34.725C14.2333 34.725 14.225 34.7333 14.225 34.75C14.225 34.7833 14.2333 34.8 14.25 34.8C15.05 35.3 15.7333 36.2833 16.3 37.75L17.8 41.675C17.9167 41.9917 17.875 42.2917 17.675 42.575C17.4917 42.8583 17.2333 43 16.9 43H16.125C15.6917 43 15.3 42.8833 14.95 42.65C14.6 42.4 14.35 42.075 14.2 41.675L12.8 37.825C12.5 37.025 12.1583 36.5 11.775 36.25C11.3917 36 10.7333 35.875 9.8 35.875H8.65C8.5 35.875 8.425 35.95 8.425 36.1V41.575C8.425 41.9583 8.28333 42.2917 8 42.575C7.73333 42.8583 7.40833 43 7.025 43H6.4ZM27.4389 27.85L25.2389 35.7C25.2222 35.75 25.2305 35.8 25.2639 35.85C25.2972 35.9 25.3389 35.925 25.3889 35.925H29.5389C29.5889 35.925 29.6305 35.9 29.6639 35.85C29.6972 35.8 29.7055 35.75 29.6889 35.7L27.4889 27.85C27.4889 27.8333 27.4805 27.825 27.4639 27.825C27.4472 27.825 27.4389 27.8333 27.4389 27.85ZM20.9639 43C20.6139 43 20.3389 42.8583 20.1389 42.575C19.9389 42.2917 19.8972 41.9833 20.0139 41.65L25.1889 26.1C25.3389 25.7 25.5805 25.375 25.9139 25.125C26.2639 24.875 26.6472 24.75 27.0639 24.75H27.9639C28.3972 24.75 28.7805 24.875 29.1139 25.125C29.4639 25.375 29.7055 25.7 29.8389 26.1L35.0139 41.65C35.1305 41.9833 35.0889 42.2917 34.8889 42.575C34.6889 42.8583 34.4139 43 34.0639 43H33.1639C32.7639 43 32.3889 42.875 32.0389 42.625C31.7055 42.3583 31.4805 42.025 31.3639 41.625L30.5639 38.8C30.5472 38.6667 30.4555 38.6 30.2889 38.6H24.6389C24.4889 38.6 24.3972 38.6667 24.3639 38.8L23.5639 41.625C23.4639 42.025 23.2389 42.3583 22.8889 42.625C22.5555 42.875 22.1805 43 21.7639 43H20.9639ZM38.9969 43C38.6135 43 38.2802 42.8583 37.9969 42.575C37.7302 42.2917 37.5969 41.9583 37.5969 41.575V26.175C37.5969 25.7917 37.7302 25.4583 37.9969 25.175C38.2802 24.8917 38.6135 24.75 38.9969 24.75H39.6719C40.0552 24.75 40.3885 24.8917 40.6719 25.175C40.9552 25.4583 41.0969 25.7917 41.0969 26.175V31.85C41.0969 31.9833 41.1635 32.05 41.2969 32.05H47.5469C47.6802 32.05 47.7469 31.9833 47.7469 31.85V26.175C47.7469 25.7917 47.8885 25.4583 48.1719 25.175C48.4552 24.8917 48.7885 24.75 49.1719 24.75H49.8469C50.2302 24.75 50.5552 24.8917 50.8219 25.175C51.1052 25.4583 51.2469 25.7917 51.2469 26.175V41.575C51.2469 41.9583 51.1052 42.2917 50.8219 42.575C50.5552 42.8583 50.2302 43 49.8469 43H49.1719C48.7885 43 48.4552 42.8583 48.1719 42.575C47.8885 42.2917 47.7469 41.9583 47.7469 41.575V34.95C47.7469 34.8 47.6802 34.725 47.5469 34.725H41.2969C41.1635 34.725 41.0969 34.8 41.0969 34.95V41.575C41.0969 41.9583 40.9552 42.2917 40.6719 42.575C40.3885 42.8583 40.0552 43 39.6719 43H38.9969ZM56.7244 43C56.3411 43 56.0077 42.8583 55.7244 42.575C55.4411 42.2917 55.2994 41.9583 55.2994 41.575V26.175C55.2994 25.7917 55.4411 25.4583 55.7244 25.175C56.0077 24.8917 56.3411 24.75 56.7244 24.75H57.3494C57.7827 24.75 58.1827 24.8667 58.5494 25.1C58.9161 25.3333 59.1827 25.6417 59.3494 26.025L63.7244 35.475C63.7244 35.4917 63.7327 35.5 63.7494 35.5C63.7661 35.5 63.7744 35.4917 63.7744 35.475L68.1494 26.025C68.3161 25.6417 68.5827 25.3333 68.9494 25.1C69.3161 24.8667 69.7161 24.75 70.1494 24.75H70.8744C71.2577 24.75 71.5911 24.8917 71.8744 25.175C72.1577 25.4583 72.2994 25.7917 72.2994 26.175V41.575C72.2994 41.9583 72.1577 42.2917 71.8744 42.575C71.5911 42.8583 71.2577 43 70.8744 43H70.3244C69.9411 43 69.6077 42.8583 69.3244 42.575C69.0411 42.2917 68.8994 41.9583 68.8994 41.575V30.7C68.8994 30.6833 68.8911 30.675 68.8744 30.675C68.8577 30.675 68.8494 30.6833 68.8494 30.7L65.8494 37.125C65.6661 37.5083 65.3827 37.825 64.9994 38.075C64.6327 38.3083 64.2411 38.425 63.8244 38.425H63.6744C63.2577 38.425 62.8577 38.3083 62.4744 38.075C62.1077 37.825 61.8327 37.5083 61.6494 37.125L58.6494 30.7C58.6494 30.6833 58.6411 30.675 58.6244 30.675C58.6077 30.675 58.5994 30.6833 58.5994 30.7V41.575C58.5994 41.9583 58.4577 42.2917 58.1744 42.575C57.8911 42.8583 57.5577 43 57.1744 43H56.7244ZM82.6217 27.85L80.4217 35.7C80.405 35.75 80.4133 35.8 80.4467 35.85C80.48 35.9 80.5217 35.925 80.5717 35.925H84.7217C84.7717 35.925 84.8133 35.9 84.8467 35.85C84.88 35.8 84.8883 35.75 84.8717 35.7L82.6717 27.85C82.6717 27.8333 82.6633 27.825 82.6467 27.825C82.63 27.825 82.6217 27.8333 82.6217 27.85ZM76.1467 43C75.7967 43 75.5217 42.8583 75.3217 42.575C75.1217 42.2917 75.08 41.9833 75.1967 41.65L80.3717 26.1C80.5217 25.7 80.7633 25.375 81.0967 25.125C81.4467 24.875 81.83 24.75 82.2467 24.75H83.1467C83.58 24.75 83.9633 24.875 84.2967 25.125C84.6467 25.375 84.8883 25.7 85.0217 26.1L90.1967 41.65C90.3133 41.9833 90.2717 42.2917 90.0717 42.575C89.8717 42.8583 89.5967 43 89.2467 43H88.3467C87.9467 43 87.5717 42.875 87.2217 42.625C86.8883 42.3583 86.6633 42.025 86.5467 41.625L85.7467 38.8C85.73 38.6667 85.6383 38.6 85.4717 38.6H79.8217C79.6717 38.6 79.58 38.6667 79.5467 38.8L78.7467 41.625C78.6467 42.025 78.4217 42.3583 78.0717 42.625C77.7383 42.875 77.3633 43 76.9467 43H76.1467ZM94.1797 43C93.7964 43 93.463 42.8583 93.1797 42.575C92.913 42.2917 92.7797 41.9583 92.7797 41.575V26.175C92.7797 25.7917 92.913 25.4583 93.1797 25.175C93.463 24.8917 93.7964 24.75 94.1797 24.75H94.7297C95.6797 24.75 96.3797 25.1667 96.8297 26L103.005 37.15C103.005 37.1667 103.013 37.175 103.03 37.175C103.046 37.175 103.055 37.1667 103.055 37.15V26.175C103.055 25.7917 103.196 25.4583 103.48 25.175C103.763 24.8917 104.096 24.75 104.48 24.75H105.03C105.413 24.75 105.738 24.8917 106.005 25.175C106.288 25.4583 106.43 25.7917 106.43 26.175V41.575C106.43 41.9583 106.288 42.2917 106.005 42.575C105.738 42.8583 105.413 43 105.03 43H104.48C103.53 43 102.83 42.5833 102.38 41.75L96.2047 30.6C96.2047 30.5833 96.1964 30.575 96.1797 30.575C96.163 30.575 96.1547 30.5833 96.1547 30.6V41.575C96.1547 41.9583 96.013 42.2917 95.7297 42.575C95.4464 42.8583 95.113 43 94.7297 43H94.1797Z" fill="black"/>
<path d="M4.42 7.4L3.71289 8.10711L3.7236 8.11782L3.73463 8.1282L4.42 7.4ZM4.42 5.74L3.71289 5.03289L3.71289 5.03289L4.42 5.74ZM14.54 5.74L15.2471 5.03289L15.2471 5.03289L14.54 5.74ZM14.54 7.4L15.2254 8.1282L15.2364 8.11782L15.2471 8.10711L14.54 7.4ZM5.22 6.72C5.17229 6.72 5.14963 6.71346 5.10537 6.6718L3.73463 8.1282C4.1437 8.5132 4.65438 8.72 5.22 8.72V6.72ZM5.12711 6.69289C5.0948 6.66059 5.08676 6.64223 5.08533 6.63886C5.08427 6.63636 5.08 6.6269 5.08 6.6H3.08C3.08 7.18497 3.30815 7.70237 3.71289 8.10711L5.12711 6.69289ZM5.08 6.6V6.54H3.08V6.6H5.08ZM5.08 6.54C5.08 6.5131 5.08427 6.50364 5.08533 6.50114C5.08677 6.49777 5.0948 6.47941 5.12711 6.44711L3.71289 5.03289C3.30815 5.43763 3.08 5.95503 3.08 6.54H5.08ZM5.12711 6.44711C5.15941 6.4148 5.17777 6.40676 5.18114 6.40533C5.18364 6.40427 5.1931 6.4 5.22 6.4V4.4C4.63503 4.4 4.11763 4.62815 3.71289 5.03289L5.12711 6.44711ZM5.22 6.4H13.74V4.4H5.22V6.4ZM13.74 6.4C13.7669 6.4 13.7764 6.40427 13.7789 6.40533C13.7822 6.40676 13.8006 6.4148 13.8329 6.44711L15.2471 5.03289C14.8424 4.62815 14.325 4.4 13.74 4.4V6.4ZM13.8329 6.44711C13.8652 6.47941 13.8732 6.49777 13.8747 6.50114C13.8757 6.50364 13.88 6.5131 13.88 6.54H15.88C15.88 5.95503 15.6518 5.43763 15.2471 5.03289L13.8329 6.44711ZM13.88 6.54V6.6H15.88V6.54H13.88ZM13.88 6.6C13.88 6.6269 13.8757 6.63636 13.8747 6.63886C13.8732 6.64223 13.8652 6.66059 13.8329 6.69289L15.2471 8.10711C15.6518 7.70237 15.88 7.18497 15.88 6.6H13.88ZM13.8546 6.6718C13.8104 6.71346 13.7877 6.72 13.74 6.72V8.72C14.3056 8.72 14.8163 8.5132 15.2254 8.1282L13.8546 6.6718ZM13.74 6.72H11.06V8.72H13.74V6.72ZM11.06 6.72C10.82 6.72 10.4661 6.79291 10.1926 7.10064C9.93901 7.38592 9.9 7.71297 9.9 7.9H11.9C11.9 7.96703 11.8877 8.20408 11.6874 8.42936C11.4672 8.67709 11.1933 8.72 11.06 8.72V6.72ZM9.9 7.9V18.86H11.9V7.9H9.9ZM9.9 18.86C9.9 18.8869 9.89573 18.8964 9.89467 18.8989C9.89324 18.9022 9.8852 18.9206 9.85289 18.9529L11.2671 20.3671C11.6718 19.9624 11.9 19.445 11.9 18.86H9.9ZM9.85289 18.9529C9.82059 18.9852 9.80223 18.9932 9.79886 18.9947C9.79636 18.9957 9.7869 19 9.76 19V21C10.345 21 10.8624 20.7718 11.2671 20.3671L9.85289 18.9529ZM9.76 19H9.2V21H9.76V19ZM9.2 19C9.1731 19 9.16364 18.9957 9.16114 18.9947C9.15777 18.9932 9.13941 18.9852 9.10711 18.9529L7.69289 20.3671C8.09763 20.7718 8.61503 21 9.2 21V19ZM9.10711 18.9529C9.0748 18.9206 9.06677 18.9022 9.06533 18.8989C9.06427 18.8964 9.06 18.8869 9.06 18.86H7.06C7.06 19.445 7.28815 19.9624 7.69289 20.3671L9.10711 18.9529ZM9.06 18.86V7.9H7.06V18.86H9.06ZM9.06 7.9C9.06 7.71297 9.02099 7.38592 8.76741 7.10064C8.49387 6.79291 8.13998 6.72 7.9 6.72V8.72C7.76668 8.72 7.49279 8.67709 7.27259 8.42936C7.07234 8.20408 7.06 7.96703 7.06 7.9H9.06ZM7.9 6.72H5.22V8.72H7.9V6.72ZM17.9688 19.66L17.2406 20.3454L17.2509 20.3564L17.2616 20.3671L17.9688 19.66ZM17.9688 5.74L17.2616 5.03289L17.2509 5.0436L17.2406 5.05463L17.9688 5.74ZM20.1088 5.74L20.8159 5.03289V5.03289L20.1088 5.74ZM26.1088 5.74L25.4016 5.03289L25.4016 5.03289L26.1088 5.74ZM28.2288 5.74L27.5006 6.42536L27.5109 6.43639L27.5216 6.4471L28.2288 5.74ZM28.2288 19.66L27.5216 18.9529L27.5109 18.9636L27.5006 18.9746L28.2288 19.66ZM18.7688 19C18.7419 19 18.7324 18.9957 18.7299 18.9947C18.7265 18.9932 18.7082 18.9852 18.6759 18.9529L17.2616 20.3671C17.6664 20.7718 18.1838 21 18.7688 21V19ZM18.697 18.9746C18.6553 18.9304 18.6488 18.9077 18.6488 18.86H16.6488C16.6488 19.4256 16.8555 19.9363 17.2406 20.3454L18.697 18.9746ZM18.6488 18.86V6.54H16.6488V18.86H18.6488ZM18.6488 6.54C18.6488 6.49229 18.6553 6.46963 18.697 6.42536L17.2406 5.05463C16.8555 5.4637 16.6488 5.97438 16.6488 6.54H18.6488ZM18.6759 6.44711C18.7082 6.4148 18.7265 6.40676 18.7299 6.40533C18.7324 6.40427 18.7419 6.4 18.7688 6.4V4.4C18.1838 4.4 17.6664 4.62815 17.2616 5.03289L18.6759 6.44711ZM18.7688 6.4H19.3088V4.4H18.7688V6.4ZM19.3088 6.4C19.3356 6.4 19.3451 6.40427 19.3476 6.40533C19.351 6.40676 19.3693 6.4148 19.4016 6.44711L20.8159 5.03289C20.4111 4.62815 19.8937 4.4 19.3088 4.4V6.4ZM19.4016 6.44711C19.4339 6.47941 19.442 6.49777 19.4434 6.50114C19.4445 6.50364 19.4488 6.5131 19.4488 6.54H21.4488C21.4488 5.95503 21.2206 5.43763 20.8159 5.03289L19.4016 6.44711ZM19.4488 6.54V11.08H21.4488V6.54H19.4488ZM19.4488 11.08C19.4488 11.2875 19.5013 11.6268 19.7816 11.9071C20.062 12.1875 20.4013 12.24 20.6088 12.24V10.24C20.7096 10.24 20.9688 10.2659 21.1959 10.4929C21.4229 10.7199 21.4488 10.9792 21.4488 11.08H19.4488ZM20.6088 12.24H25.6088V10.24H20.6088V12.24ZM25.6088 12.24C25.8162 12.24 26.1555 12.1875 26.4359 11.9071C26.7162 11.6268 26.7688 11.2875 26.7688 11.08H24.7688C24.7688 10.9792 24.7946 10.7199 25.0216 10.4929C25.2487 10.2659 25.5079 10.24 25.6088 10.24V12.24ZM26.7688 11.08V6.54H24.7688V11.08H26.7688ZM26.7688 6.54C26.7688 6.5131 26.773 6.50364 26.7741 6.50114C26.7755 6.49777 26.7836 6.47941 26.8159 6.44711L25.4016 5.03289C24.9969 5.43763 24.7688 5.95503 24.7688 6.54H26.7688ZM26.8159 6.44711C26.8482 6.4148 26.8665 6.40676 26.8699 6.40533C26.8724 6.40427 26.8819 6.4 26.9088 6.4V4.4C26.3238 4.4 25.8064 4.62815 25.4016 5.03289L26.8159 6.44711ZM26.9088 6.4H27.4487V4.4H26.9088V6.4ZM27.4487 6.4C27.4636 6.4 27.4714 6.40134 27.4739 6.40183C27.4761 6.40228 27.4757 6.40238 27.4742 6.4017C27.4726 6.40102 27.4733 6.40104 27.4766 6.40343C27.4801 6.40597 27.4883 6.41237 27.5006 6.42536L28.9569 5.05463C28.5579 4.6306 28.0358 4.4 27.4487 4.4V6.4ZM27.5216 6.4471C27.5539 6.47941 27.562 6.49776 27.5634 6.50114C27.5645 6.50364 27.5688 6.5131 27.5688 6.54H29.5688C29.5688 5.95503 29.3406 5.43763 28.9359 5.03289L27.5216 6.4471ZM27.5688 6.54V18.86H29.5688V6.54H27.5688ZM27.5688 18.86C27.5688 18.8869 27.5645 18.8964 27.5634 18.8989C27.562 18.9022 27.5539 18.9206 27.5216 18.9529L28.9359 20.3671C29.3406 19.9624 29.5688 19.445 29.5688 18.86H27.5688ZM27.5006 18.9746C27.4883 18.9876 27.4801 18.994 27.4766 18.9966C27.4733 18.999 27.4726 18.999 27.4742 18.9983C27.4757 18.9976 27.4761 18.9977 27.4739 18.9982C27.4714 18.9987 27.4636 19 27.4487 19V21C28.0358 21 28.5579 20.7694 28.957 20.3454L27.5006 18.9746ZM27.4487 19H26.9088V21H27.4487V19ZM26.9088 19C26.8819 19 26.8724 18.9957 26.8699 18.9947C26.8665 18.9932 26.8482 18.9852 26.8159 18.9529L25.4016 20.3671C25.8064 20.7718 26.3238 21 26.9088 21V19ZM26.8159 18.9529C26.7836 18.9206 26.7755 18.9022 26.7741 18.8989C26.773 18.8964 26.7688 18.8869 26.7688 18.86H24.7688C24.7688 19.445 24.9969 19.9624 25.4016 20.3671L26.8159 18.9529ZM26.7688 18.86V13.56H24.7688V18.86H26.7688ZM26.7688 13.56C26.7688 13.373 26.7297 13.0459 26.4762 12.7606C26.2026 12.4529 25.8487 12.38 25.6088 12.38V14.38C25.4754 14.38 25.2015 14.3371 24.9813 14.0894C24.7811 13.8641 24.7688 13.627 24.7688 13.56H26.7688ZM25.6088 12.38H20.6088V14.38H25.6088V12.38ZM20.6088 12.38C20.3688 12.38 20.0149 12.4529 19.7413 12.7606C19.4878 13.0459 19.4488 13.373 19.4488 13.56H21.4488C21.4488 13.627 21.4364 13.8641 21.2362 14.0894C21.016 14.3371 20.7421 14.38 20.6088 14.38V12.38ZM19.4488 13.56V18.86H21.4488V13.56H19.4488ZM19.4488 18.86C19.4488 18.8869 19.4445 18.8964 19.4434 18.8989C19.442 18.9022 19.4339 18.9206 19.4016 18.9529L20.8159 20.3671C21.2206 19.9624 21.4488 19.445 21.4488 18.86H19.4488ZM19.4016 18.9529C19.3693 18.9852 19.351 18.9932 19.3476 18.9947C19.3451 18.9957 19.3356 19 19.3088 19V21C19.8937 21 20.4111 20.7718 20.8159 20.3671L19.4016 18.9529ZM19.3088 19H18.7688V21H19.3088V19ZM42.4508 18.22L41.7108 17.5473L41.7071 17.5515L42.4508 18.22ZM32.7108 18.22L31.9671 18.8886L31.9708 18.8927L32.7108 18.22ZM32.7108 7.18L31.9708 6.50732L31.9671 6.51145L32.7108 7.18ZM42.4508 7.18L41.7071 7.84856L41.7108 7.85267L42.4508 7.18ZM42.3908 12.7C42.3908 10.8745 42.0626 9.32441 41.2482 8.20998C40.3911 7.03715 39.1113 6.5 37.5908 6.5V8.5C38.6036 8.5 39.2238 8.82951 39.6334 9.39002C40.0857 10.0089 40.3908 11.0589 40.3908 12.7H42.3908ZM37.5908 6.5C36.0702 6.5 34.7905 7.03715 33.9334 8.20998C33.119 9.32441 32.7908 10.8745 32.7908 12.7H34.7908C34.7908 11.0589 35.0959 10.0089 35.5482 9.39002C35.9578 8.82951 36.578 8.5 37.5908 8.5V6.5ZM32.7908 12.7C32.7908 14.5255 33.119 16.0756 33.9334 17.19C34.7905 18.3628 36.0702 18.9 37.5908 18.9V16.9C36.578 16.9 35.9578 16.5705 35.5482 16.01C35.0959 15.3911 34.7908 14.3411 34.7908 12.7H32.7908ZM37.5908 18.9C39.1113 18.9 40.3911 18.3628 41.2482 17.19C42.0626 16.0756 42.3908 14.5255 42.3908 12.7H40.3908C40.3908 14.3411 40.0857 15.3911 39.6334 16.01C39.2238 16.5705 38.6036 16.9 37.5908 16.9V18.9ZM41.7071 17.5515C40.7406 18.6266 39.4094 19.2 37.5908 19.2V21.2C39.8788 21.2 41.7877 20.4534 43.1945 18.8885L41.7071 17.5515ZM37.5908 19.2C35.7723 19.2 34.4318 18.6265 33.4507 17.5473L31.9708 18.8927C33.3897 20.4535 35.3026 21.2 37.5908 21.2V19.2ZM33.4544 17.5515C32.4809 16.4685 31.9308 14.896 31.9308 12.7H29.9308C29.9308 15.224 30.5674 17.3315 31.9671 18.8885L33.4544 17.5515ZM31.9308 12.7C31.9308 10.504 32.4809 8.93152 33.4544 7.84855L31.9671 6.51145C30.5674 8.06848 29.9308 10.176 29.9308 12.7H31.9308ZM33.4507 7.85267C34.4318 6.77346 35.7723 6.2 37.5908 6.2V4.2C35.3026 4.2 33.3897 4.94654 31.9708 6.50733L33.4507 7.85267ZM37.5908 6.2C39.4094 6.2 40.7406 6.7734 41.7071 7.84855L43.1945 6.51145C41.7877 4.9466 39.8788 4.2 37.5908 4.2V6.2ZM41.7108 7.85267C42.6955 8.93578 43.2508 10.5067 43.2508 12.7H45.2508C45.2508 10.1733 44.6061 8.06422 43.1907 6.50733L41.7108 7.85267ZM43.2508 12.7C43.2508 14.8933 42.6955 16.4642 41.7108 17.5473L43.1907 18.8927C44.6061 17.3358 45.2508 15.2267 45.2508 12.7H43.2508ZM46.7583 5.74L46.0512 5.03289V5.03289L46.7583 5.74ZM48.9183 5.74L49.6254 5.03289L49.6254 5.03289L48.9183 5.74ZM49.8783 17.22L49.1297 17.883L49.1397 17.8944L49.1501 17.9054L49.8783 17.22ZM53.8183 17.22L53.0802 16.5452L53.0793 16.5462L53.8183 17.22ZM54.7983 5.74L55.5054 6.44711L54.7983 5.74ZM56.2183 14.8C56.2183 16.4459 55.8075 17.4966 55.1612 18.1429C54.5149 18.7892 53.4641 19.2 51.8183 19.2V21.2C53.7724 21.2 55.4217 20.7108 56.5754 19.5571C57.7291 18.4034 58.2183 16.7541 58.2183 14.8H56.2183ZM51.8183 19.2C50.1724 19.2 49.1217 18.7892 48.4754 18.1429C47.8291 17.4966 47.4183 16.4459 47.4183 14.8H45.4183C45.4183 16.7541 45.9075 18.4034 47.0612 19.5571C48.2149 20.7108 49.8641 21.2 51.8183 21.2V19.2ZM47.4183 14.8V6.54H45.4183V14.8H47.4183ZM47.4183 6.54C47.4183 6.5131 47.4226 6.50364 47.4236 6.50114C47.425 6.49777 47.4331 6.47941 47.4654 6.4471L46.0512 5.03289C45.6464 5.43763 45.4183 5.95503 45.4183 6.54H47.4183ZM47.4654 6.44711C47.4977 6.4148 47.516 6.40676 47.5194 6.40533C47.5219 6.40427 47.5314 6.4 47.5583 6.4V4.4C46.9733 4.4 46.4559 4.62815 46.0512 5.03289L47.4654 6.44711ZM47.5583 6.4H48.1183V4.4H47.5583V6.4ZM48.1183 6.4C48.1452 6.4 48.1546 6.40427 48.1571 6.40533C48.1605 6.40676 48.1789 6.4148 48.2112 6.44711L49.6254 5.03289C49.2206 4.62815 48.7033 4.4 48.1183 4.4V6.4ZM48.2112 6.44711C48.2435 6.47941 48.2515 6.49777 48.2529 6.50114C48.254 6.50364 48.2583 6.5131 48.2583 6.54H50.2583C50.2583 5.95503 50.0301 5.43763 49.6254 5.03289L48.2112 6.44711ZM48.2583 6.54V14.96H50.2583V6.54H48.2583ZM48.2583 14.96C48.2583 16.0926 48.4762 17.1452 49.1297 17.883L50.6269 16.557C50.4537 16.3615 50.2583 15.9074 50.2583 14.96H48.2583ZM49.1501 17.9054C49.8355 18.6336 50.811 18.9 51.8583 18.9V16.9C51.1189 16.9 50.7744 16.713 50.6065 16.5346L49.1501 17.9054ZM51.8583 18.9C52.9027 18.9 53.8816 18.6348 54.5572 17.8938L53.0793 16.5462C52.9283 16.7119 52.6005 16.9 51.8583 16.9V18.9ZM54.5563 17.8948C55.2314 17.1564 55.4583 16.0986 55.4583 14.96H53.4583C53.4583 15.9014 53.2585 16.3503 53.0803 16.5452L54.5563 17.8948ZM55.4583 14.96V6.54H53.4583V14.96H55.4583ZM55.4583 6.54C55.4583 6.5131 55.4625 6.50364 55.4636 6.50114C55.465 6.49777 55.4731 6.47941 55.5054 6.44711L54.0912 5.03289C53.6864 5.43763 53.4583 5.95503 53.4583 6.54H55.4583ZM55.5054 6.44711C55.5377 6.4148 55.556 6.40676 55.5594 6.40533C55.5619 6.40427 55.5714 6.4 55.5983 6.4V4.4C55.0133 4.4 54.4959 4.62815 54.0912 5.03289L55.5054 6.44711ZM55.5983 6.4H56.0783V4.4H55.5983V6.4ZM56.0783 6.4C56.1052 6.4 56.1146 6.40427 56.1171 6.40533C56.1205 6.40676 56.1389 6.4148 56.1712 6.44711L57.5854 5.03289C57.1806 4.62815 56.6633 4.4 56.0783 4.4V6.4ZM56.1712 6.44711C56.2035 6.47941 56.2115 6.49777 56.213 6.50114C56.214 6.50364 56.2183 6.5131 56.2183 6.54H58.2183C58.2183 5.95503 57.9901 5.43763 57.5854 5.03289L56.1712 6.44711ZM56.2183 6.54V14.8H58.2183V6.54H56.2183ZM60.593 19.66L59.8648 20.3454L59.8752 20.3564L59.8859 20.3671L60.593 19.66ZM60.593 5.74L59.8859 5.03289L59.8752 5.0436L59.8648 5.05463L60.593 5.74ZM68.793 5.74L68.0859 6.44711L68.793 5.74ZM68.793 7.34L69.4783 8.0682L69.4894 8.05782L69.5001 8.04711L68.793 7.34ZM68.413 11.82L67.7059 12.5271L67.7173 12.5385L67.729 12.5495L68.413 11.82ZM68.413 13.36L69.0969 14.0895L69.1087 14.0785L69.1201 14.0671L68.413 13.36ZM61.393 19C61.3661 19 61.3566 18.9957 61.3541 18.9947C61.3507 18.9932 61.3324 18.9852 61.3001 18.9529L59.8859 20.3671C60.2906 20.7718 60.808 21 61.393 21V19ZM61.3212 18.9746C61.2795 18.9304 61.273 18.9077 61.273 18.86H59.273C59.273 19.4256 59.4798 19.9363 59.8648 20.3454L61.3212 18.9746ZM61.273 18.86V6.54H59.273V18.86H61.273ZM61.273 6.54C61.273 6.49229 61.2795 6.46963 61.3212 6.42536L59.8648 5.05463C59.4798 5.4637 59.273 5.97438 59.273 6.54H61.273ZM61.3001 6.44711C61.3324 6.4148 61.3507 6.40676 61.3541 6.40533C61.3566 6.40427 61.3661 6.4 61.393 6.4V4.4C60.808 4.4 60.2906 4.62815 59.8859 5.03289L61.3001 6.44711ZM61.393 6.4H67.993V4.4H61.393V6.4ZM67.993 6.4C68.0199 6.4 68.0293 6.40427 68.0318 6.40533C68.0352 6.40676 68.0536 6.4148 68.0859 6.44711L69.5001 5.03289C69.0953 4.62815 68.5779 4.4 67.993 4.4V6.4ZM68.0859 6.44711C68.1182 6.47941 68.1262 6.49777 68.1276 6.50114C68.1287 6.50364 68.133 6.5131 68.133 6.54H70.133C70.133 5.95503 69.9048 5.43763 69.5001 5.03289L68.0859 6.44711ZM68.133 6.54C68.133 6.5669 68.1287 6.57636 68.1276 6.57886C68.1262 6.58223 68.1182 6.60059 68.0859 6.63289L69.5001 8.04711C69.9048 7.64237 70.133 7.12497 70.133 6.54H68.133ZM68.1076 6.6118C68.0633 6.65346 68.0407 6.66 67.993 6.66V8.66C68.5586 8.66 69.0693 8.4532 69.4783 8.0682L68.1076 6.6118ZM67.993 6.66H63.233V8.66H67.993V6.66ZM63.233 6.66C62.993 6.66 62.6391 6.73291 62.3656 7.04064C62.112 7.32592 62.073 7.65297 62.073 7.84H64.073C64.073 7.90703 64.0606 8.14408 63.8604 8.36936C63.6402 8.61709 63.3663 8.66 63.233 8.66V6.66ZM62.073 7.84V11.34H64.073V7.84H62.073ZM62.073 11.34C62.073 11.5475 62.1255 11.8868 62.4059 12.1671C62.6862 12.4475 63.0255 12.5 63.233 12.5V10.5C63.3338 10.5 63.5931 10.5259 63.8201 10.7529C64.0471 10.9799 64.073 11.2392 64.073 11.34H62.073ZM63.233 12.5H67.653V10.5H63.233V12.5ZM67.653 12.5C67.6654 12.5 67.672 12.5011 67.674 12.5015C67.6758 12.5018 67.6757 12.502 67.6749 12.5016C67.6742 12.5013 67.6757 12.5018 67.6799 12.5047C67.6843 12.5077 67.6932 12.5144 67.7059 12.5271L69.1201 11.1129C68.7252 10.718 68.2199 10.5 67.653 10.5V12.5ZM67.729 12.5495C67.7356 12.5557 67.7371 12.5582 67.736 12.5567C67.7348 12.555 67.7329 12.5518 67.7313 12.5481C67.7298 12.5444 67.7299 12.5435 67.7306 12.5471C67.7314 12.551 67.733 12.5614 67.733 12.58H69.733C69.733 12.0121 69.5227 11.4896 69.0969 11.0905L67.729 12.5495ZM67.733 12.58C67.733 12.5985 67.7314 12.6102 67.7302 12.6163C67.7291 12.6222 67.7281 12.6248 67.7278 12.6254C67.7275 12.6261 67.7268 12.6278 67.7245 12.6312C67.7221 12.6347 67.7167 12.6421 67.7059 12.6529L69.1201 14.0671C69.5244 13.6628 69.733 13.147 69.733 12.58H67.733ZM67.729 12.6305C67.7075 12.6506 67.6968 12.6545 67.6958 12.6548C67.6948 12.6552 67.6837 12.66 67.653 12.66V14.66C68.1995 14.66 68.6976 14.4639 69.0969 14.0895L67.729 12.6305ZM67.653 12.66H63.233V14.66H67.653V12.66ZM63.233 12.66C63.0255 12.66 62.6862 12.7125 62.4059 12.9929C62.1255 13.2732 62.073 13.6125 62.073 13.82H64.073C64.073 13.9208 64.0471 14.1801 63.8201 14.4071C63.5931 14.6341 63.3338 14.66 63.233 14.66V12.66ZM62.073 13.82V18.86H64.073V13.82H62.073ZM62.073 18.86C62.073 18.8869 62.0687 18.8964 62.0676 18.8989C62.0662 18.9022 62.0582 18.9206 62.0259 18.9529L63.4401 20.3671C63.8448 19.9624 64.073 19.445 64.073 18.86H62.073ZM62.0259 18.9529C61.9936 18.9852 61.9752 18.9932 61.9718 18.9947C61.9693 18.9957 61.9599 19 61.933 19V21C62.5179 21 63.0353 20.7718 63.4401 20.3671L62.0259 18.9529ZM61.933 19H61.393V21H61.933V19ZM72.4317 19.66L71.7246 20.3671L72.4317 19.66ZM72.4317 5.74L71.7246 5.03289V5.03289L72.4317 5.74ZM80.8317 5.74L81.5388 5.03289V5.03289L80.8317 5.74ZM80.8317 7.34L81.5171 8.0682L81.5281 8.05782L81.5388 8.04711L80.8317 7.34ZM80.4517 11.56L79.7222 12.2439L79.7332 12.2557L79.7446 12.2671L80.4517 11.56ZM80.8317 18.08L80.1246 18.7871L80.1353 18.7978L80.1464 18.8082L80.8317 18.08ZM73.2317 19C73.2048 19 73.1954 18.9957 73.1929 18.9947C73.1895 18.9932 73.1711 18.9852 73.1388 18.9529L71.7246 20.3671C72.1293 20.7718 72.6467 21 73.2317 21V19ZM73.1388 18.9529C73.1065 18.9206 73.0985 18.9022 73.0971 18.8989C73.096 18.8964 73.0917 18.8869 73.0917 18.86H71.0917C71.0917 19.445 71.3199 19.9624 71.7246 20.3671L73.1388 18.9529ZM73.0917 18.86V6.54H71.0917V18.86H73.0917ZM73.0917 6.54C73.0917 6.5131 73.096 6.50364 73.0971 6.50114C73.0985 6.49777 73.1065 6.47941 73.1388 6.4471L71.7246 5.03289C71.3199 5.43763 71.0917 5.95503 71.0917 6.54H73.0917ZM73.1388 6.44711C73.1711 6.4148 73.1895 6.40676 73.1929 6.40533C73.1954 6.40427 73.2048 6.4 73.2317 6.4V4.4C72.6467 4.4 72.1294 4.62815 71.7246 5.03289L73.1388 6.44711ZM73.2317 6.4H80.0317V4.4H73.2317V6.4ZM80.0317 6.4C80.0586 6.4 80.0681 6.40427 80.0706 6.40533C80.074 6.40676 80.0923 6.4148 80.1246 6.44711L81.5388 5.03289C81.1341 4.62815 80.6167 4.4 80.0317 4.4V6.4ZM80.1246 6.44711C80.1569 6.47941 80.165 6.49777 80.1664 6.50114C80.1674 6.50364 80.1717 6.5131 80.1717 6.54H82.1717C82.1717 5.95503 81.9436 5.43763 81.5388 5.03289L80.1246 6.44711ZM80.1717 6.54C80.1717 6.5669 80.1674 6.57636 80.1664 6.57886C80.165 6.58223 80.1569 6.60059 80.1246 6.63289L81.5388 8.04711C81.9436 7.64237 82.1717 7.12497 82.1717 6.54H80.1717ZM80.1464 6.6118C80.1021 6.65346 80.0794 6.66 80.0317 6.66V8.66C80.5973 8.66 81.108 8.4532 81.5171 8.0682L80.1464 6.6118ZM80.0317 6.66H75.0717V8.66H80.0317V6.66ZM75.0717 6.66C74.8576 6.66 74.5133 6.71421 74.2296 6.99789C73.9459 7.28157 73.8917 7.62585 73.8917 7.84H75.8917C75.8917 7.93414 75.8675 8.18843 75.6438 8.41211C75.4201 8.63579 75.1659 8.66 75.0717 8.66V6.66ZM73.8917 7.84V11.06H75.8917V7.84H73.8917ZM73.8917 11.06C73.8917 11.2741 73.9459 11.6184 74.2296 11.9021C74.5133 12.1858 74.8576 12.24 75.0717 12.24V10.24C75.1659 10.24 75.4201 10.2642 75.6438 10.4879C75.8675 10.7116 75.8917 10.9659 75.8917 11.06H73.8917ZM75.0717 12.24H79.6917V10.24H75.0717V12.24ZM79.6917 12.24C79.7103 12.24 79.7207 12.2416 79.7246 12.2423C79.7282 12.243 79.7273 12.2432 79.7237 12.2416C79.7199 12.2401 79.7167 12.2382 79.715 12.237C79.7135 12.2359 79.716 12.2374 79.7222 12.2439L81.1813 10.8761C80.7821 10.4503 80.2597 10.24 79.6917 10.24V12.24ZM79.7446 12.2671C79.7573 12.2798 79.764 12.2886 79.767 12.293C79.7699 12.2973 79.7704 12.2988 79.7701 12.2981C79.7698 12.2973 79.7699 12.2972 79.7702 12.299C79.7706 12.301 79.7717 12.3075 79.7717 12.32H81.7717C81.7717 11.7531 81.5537 11.2478 81.1588 10.8529L79.7446 12.2671ZM79.7717 12.32C79.7717 12.3325 79.7706 12.339 79.7702 12.341C79.7699 12.3428 79.7698 12.3427 79.7701 12.3419C79.7704 12.3412 79.7699 12.3427 79.767 12.347C79.764 12.3514 79.7573 12.3602 79.7446 12.3729L81.1588 13.7871C81.5537 13.3922 81.7717 12.8869 81.7717 12.32H79.7717ZM79.7446 12.3729C79.7401 12.3774 79.7384 12.3783 79.7399 12.3773C79.7414 12.3763 79.7433 12.3753 79.7446 12.3748C79.7486 12.3732 79.7351 12.38 79.6917 12.38V14.38C80.239 14.38 80.7546 14.1914 81.1588 13.7871L79.7446 12.3729ZM79.6917 12.38H75.0717V14.38H79.6917V12.38ZM75.0717 12.38C74.8576 12.38 74.5133 12.4342 74.2296 12.7179C73.9459 13.0016 73.8917 13.3459 73.8917 13.56H75.8917C75.8917 13.6541 75.8675 13.9084 75.6438 14.1321C75.4201 14.3558 75.1659 14.38 75.0717 14.38V12.38ZM73.8917 13.56V17.56H75.8917V13.56H73.8917ZM73.8917 17.56C73.8917 17.7741 73.9459 18.1184 74.2296 18.4021C74.5133 18.6858 74.8576 18.74 75.0717 18.74V16.74C75.1659 16.74 75.4201 16.7642 75.6438 16.9879C75.8675 17.2116 75.8917 17.4659 75.8917 17.56H73.8917ZM75.0717 18.74H80.0317V16.74H75.0717V18.74ZM80.0317 18.74C80.0586 18.74 80.0681 18.7443 80.0706 18.7453C80.074 18.7468 80.0923 18.7548 80.1246 18.7871L81.5388 17.3729C81.1341 16.9682 80.6167 16.74 80.0317 16.74V18.74ZM80.1464 18.8082C80.1594 18.8204 80.1658 18.8286 80.1683 18.8322C80.1707 18.8355 80.1707 18.8361 80.17 18.8346C80.1693 18.833 80.1694 18.8326 80.1699 18.8349C80.1704 18.8373 80.1717 18.8452 80.1717 18.86H82.1717C82.1717 18.2729 81.9411 17.7509 81.5171 17.3518L80.1464 18.8082ZM80.1717 18.86C80.1717 18.8869 80.1674 18.8964 80.1664 18.8989C80.165 18.9022 80.1569 18.9206 80.1246 18.9529L81.5388 20.3671C81.9436 19.9624 82.1717 19.445 82.1717 18.86H80.1717ZM80.1246 18.9529C80.0923 18.9852 80.074 18.9932 80.0706 18.9947C80.0681 18.9957 80.0586 19 80.0317 19V21C80.6167 21 81.1341 20.7718 81.5388 20.3671L80.1246 18.9529ZM80.0317 19H73.2317V21H80.0317V19ZM84.563 19.66L83.8559 20.3671L84.563 19.66ZM84.563 5.74L83.8559 5.03289V5.03289L84.563 5.74ZM92.963 5.74L93.6701 5.03289V5.03289L92.963 5.74ZM92.963 7.34L93.6483 8.0682L93.6594 8.05782L93.6701 8.04711L92.963 7.34ZM92.583 11.56L91.8534 12.2439L91.8645 12.2557L91.8759 12.2671L92.583 11.56ZM92.963 18.08L92.2559 18.7871L92.2666 18.7978L92.2776 18.8082L92.963 18.08ZM85.363 19C85.3361 19 85.3266 18.9957 85.3241 18.9947C85.3207 18.9932 85.3024 18.9852 85.2701 18.9529L83.8559 20.3671C84.2606 20.7718 84.778 21 85.363 21V19ZM85.2701 18.9529C85.2378 18.9206 85.2297 18.9022 85.2283 18.8989C85.2272 18.8964 85.223 18.8869 85.223 18.86H83.223C83.223 19.445 83.4511 19.9624 83.8559 20.3671L85.2701 18.9529ZM85.223 18.86V6.54H83.223V18.86H85.223ZM85.223 6.54C85.223 6.5131 85.2272 6.50364 85.2283 6.50114C85.2297 6.49777 85.2378 6.47941 85.2701 6.4471L83.8559 5.03289C83.4511 5.43763 83.223 5.95503 83.223 6.54H85.223ZM85.2701 6.44711C85.3024 6.4148 85.3207 6.40676 85.3241 6.40533C85.3266 6.40427 85.3361 6.4 85.363 6.4V4.4C84.778 4.4 84.2606 4.62815 83.8559 5.03289L85.2701 6.44711ZM85.363 6.4H92.163V4.4H85.363V6.4ZM92.163 6.4C92.1899 6.4 92.1993 6.40427 92.2018 6.40533C92.2052 6.40676 92.2236 6.4148 92.2559 6.44711L93.6701 5.03289C93.2653 4.62815 92.7479 4.4 92.163 4.4V6.4ZM92.2559 6.44711C92.2882 6.47941 92.2962 6.49777 92.2976 6.50114C92.2987 6.50364 92.303 6.5131 92.303 6.54H94.303C94.303 5.95503 94.0748 5.43763 93.6701 5.03289L92.2559 6.44711ZM92.303 6.54C92.303 6.5669 92.2987 6.57636 92.2976 6.57886C92.2962 6.58223 92.2882 6.60059 92.2559 6.63289L93.6701 8.04711C94.0748 7.64237 94.303 7.12497 94.303 6.54H92.303ZM92.2776 6.6118C92.2333 6.65346 92.2107 6.66 92.163 6.66V8.66C92.7286 8.66 93.2393 8.4532 93.6483 8.0682L92.2776 6.6118ZM92.163 6.66H87.203V8.66H92.163V6.66ZM87.203 6.66C86.9888 6.66 86.6445 6.71421 86.3609 6.99789C86.0772 7.28157 86.023 7.62585 86.023 7.84H88.023C88.023 7.93414 87.9988 8.18843 87.7751 8.41211C87.5514 8.63579 87.2971 8.66 87.203 8.66V6.66ZM86.023 7.84V11.06H88.023V7.84H86.023ZM86.023 11.06C86.023 11.2741 86.0772 11.6184 86.3609 11.9021C86.6445 12.1858 86.9888 12.24 87.203 12.24V10.24C87.2971 10.24 87.5514 10.2642 87.7751 10.4879C87.9988 10.7116 88.023 10.9659 88.023 11.06H86.023ZM87.203 12.24H91.823V10.24H87.203V12.24ZM91.823 12.24C91.8416 12.24 91.852 12.2416 91.8559 12.2423C91.8595 12.243 91.8586 12.2432 91.8549 12.2416C91.8512 12.2401 91.848 12.2382 91.8463 12.237C91.8447 12.2359 91.8473 12.2374 91.8534 12.2439L93.3125 10.8761C92.9133 10.4503 92.3909 10.24 91.823 10.24V12.24ZM91.8759 12.2671C91.8886 12.2798 91.8952 12.2886 91.8982 12.293C91.9011 12.2973 91.9016 12.2988 91.9013 12.2981C91.901 12.2973 91.9011 12.2972 91.9015 12.299C91.9019 12.301 91.903 12.3075 91.903 12.32H93.903C93.903 11.7531 93.685 11.2478 93.2901 10.8529L91.8759 12.2671ZM91.903 12.32C91.903 12.3325 91.9019 12.339 91.9015 12.341C91.9011 12.3428 91.901 12.3427 91.9013 12.3419C91.9016 12.3412 91.9011 12.3427 91.8982 12.347C91.8952 12.3514 91.8886 12.3602 91.8759 12.3729L93.2901 13.7871C93.685 13.3922 93.903 12.8869 93.903 12.32H91.903ZM91.8759 12.3729C91.8713 12.3774 91.8697 12.3783 91.8711 12.3773C91.8726 12.3763 91.8745 12.3753 91.8758 12.3748C91.8799 12.3732 91.8664 12.38 91.823 12.38V14.38C92.3702 14.38 92.8858 14.1914 93.2901 13.7871L91.8759 12.3729ZM91.823 12.38H87.203V14.38H91.823V12.38ZM87.203 12.38C86.9888 12.38 86.6445 12.4342 86.3609 12.7179C86.0772 13.0016 86.023 13.3459 86.023 13.56H88.023C88.023 13.6541 87.9988 13.9084 87.7751 14.1321C87.5514 14.3558 87.2971 14.38 87.203 14.38V12.38ZM86.023 13.56V17.56H88.023V13.56H86.023ZM86.023 17.56C86.023 17.7741 86.0772 18.1184 86.3609 18.4021C86.6445 18.6858 86.9888 18.74 87.203 18.74V16.74C87.2971 16.74 87.5514 16.7642 87.7751 16.9879C87.9988 17.2116 88.023 17.4659 88.023 17.56H86.023ZM87.203 18.74H92.163V16.74H87.203V18.74ZM92.163 18.74C92.1899 18.74 92.1993 18.7443 92.2018 18.7453C92.2052 18.7468 92.2236 18.7548 92.2559 18.7871L93.6701 17.3729C93.2653 16.9682 92.7479 16.74 92.163 16.74V18.74ZM92.2776 18.8082C92.2906 18.8204 92.297 18.8286 92.2995 18.8322C92.3019 18.8355 92.3019 18.8361 92.3013 18.8346C92.3006 18.833 92.3007 18.8326 92.3011 18.8349C92.3016 18.8373 92.303 18.8452 92.303 18.86H94.303C94.303 18.2729 94.0724 17.7509 93.6483 17.3518L92.2776 18.8082ZM92.303 18.86C92.303 18.8869 92.2987 18.8964 92.2976 18.8989C92.2962 18.9022 92.2882 18.9206 92.2559 18.9529L93.6701 20.3671C94.0748 19.9624 94.303 19.445 94.303 18.86H92.303ZM92.2559 18.9529C92.2236 18.9852 92.2052 18.9932 92.2018 18.9947C92.1993 18.9957 92.1899 19 92.163 19V21C92.7479 21 93.2653 20.7718 93.6701 20.3671L92.2559 18.9529ZM92.163 19H85.363V21H92.163V19ZM97.0589 18.22L96.319 18.8927L97.0589 18.22ZM97.0589 7.18L96.319 6.50733L97.0589 7.18ZM106.799 7.18L106.055 7.84856L106.059 7.85267L106.799 7.18ZM105.659 19.04V20.04H105.964L106.218 19.8694L105.659 19.04ZM105.659 19.1L106.025 18.1692L105.848 18.1H105.659V19.1ZM109.499 22.04L110.305 21.4486L110.297 21.4375L110.289 21.4266L109.499 22.04ZM109.539 22.66L108.667 22.1697L108.65 22.2014L108.634 22.2342L109.539 22.66ZM106.379 22.04L107.195 21.462L107.193 21.4588L106.379 22.04ZM104.679 20.56L104.308 21.4885L104.679 20.56ZM101.939 6.5C100.414 6.5 99.1292 7.03564 98.268 8.20796C97.4491 9.32273 97.1189 10.8737 97.1189 12.7H99.1189C99.1189 11.0596 99.4254 10.0106 99.8798 9.39204C100.292 8.83102 100.917 8.5 101.939 8.5V6.5ZM97.1189 12.7C97.1189 14.5263 97.4491 16.0773 98.268 17.192C99.1292 18.3644 100.414 18.9 101.939 18.9V16.9C100.917 16.9 100.292 16.569 99.8798 16.008C99.4254 15.3894 99.1189 14.3404 99.1189 12.7H97.1189ZM101.939 18.9C103.459 18.9 104.739 18.3628 105.596 17.19C106.411 16.0756 106.739 14.5255 106.739 12.7H104.739C104.739 14.3411 104.434 15.3911 103.982 16.01C103.572 16.5705 102.952 16.9 101.939 16.9V18.9ZM106.739 12.7C106.739 10.8745 106.411 9.32441 105.596 8.20998C104.739 7.03715 103.459 6.5 101.939 6.5V8.5C102.952 8.5 103.572 8.82951 103.982 9.39002C104.434 10.0089 104.739 11.0589 104.739 12.7H106.739ZM101.939 19.2C100.12 19.2 98.7799 18.6265 97.7988 17.5473L96.319 18.8927C97.7379 20.4535 99.6507 21.2 101.939 21.2V19.2ZM97.7988 17.5473C96.8142 16.4642 96.2589 14.8933 96.2589 12.7H94.2589C94.2589 15.2267 94.9036 17.3358 96.319 18.8927L97.7988 17.5473ZM96.2589 12.7C96.2589 10.5067 96.8142 8.93578 97.7988 7.85267L96.319 6.50733C94.9036 8.06422 94.2589 10.1733 94.2589 12.7H96.2589ZM97.7988 7.85267C98.7799 6.77346 100.12 6.2 101.939 6.2V4.2C99.6507 4.2 97.7379 4.94654 96.319 6.50733L97.7988 7.85267ZM101.939 6.2C103.758 6.2 105.089 6.7734 106.055 7.84855L107.543 6.51145C106.136 4.9466 104.227 4.2 101.939 4.2V6.2ZM106.059 7.85267C107.044 8.93578 107.599 10.5067 107.599 12.7H109.599C109.599 10.1733 108.954 8.06422 107.539 6.50733L106.059 7.85267ZM107.599 12.7C107.599 15.361 106.719 17.1203 105.1 18.2106L106.218 19.8694C108.519 18.3197 109.599 15.8523 109.599 12.7H107.599ZM105.659 18.04C105.498 18.04 105.194 18.0809 104.937 18.3379C104.68 18.5949 104.639 18.8992 104.639 19.06H106.639C106.639 19.2075 106.601 19.5018 106.351 19.7521C106.101 20.0025 105.806 20.04 105.659 20.04V18.04ZM104.639 19.06C104.639 19.1244 104.642 19.3216 104.749 19.5372C104.81 19.6592 104.917 19.8107 105.095 19.9295C105.28 20.0525 105.481 20.1 105.659 20.1V18.1C105.831 18.1 106.025 18.1458 106.205 18.2655C106.378 18.3809 106.481 18.5275 106.538 18.6428C106.639 18.8451 106.639 19.0223 106.639 19.06H104.639ZM105.293 20.0308C106.605 20.5462 107.743 21.4097 108.709 22.6534L110.289 21.4266C109.121 19.9236 107.699 18.8271 106.025 18.1692L105.293 20.0308ZM108.692 22.6314C108.676 22.6083 108.629 22.5311 108.621 22.4094C108.613 22.2866 108.65 22.2006 108.667 22.1697L110.41 23.1503C110.548 22.9061 110.638 22.6101 110.617 22.2806C110.596 21.9522 110.469 21.6717 110.305 21.4486L108.692 22.6314ZM108.634 22.2342C108.647 22.206 108.693 22.1308 108.791 22.0688C108.889 22.0072 108.973 22 108.999 22V24C109.278 24 109.579 23.9361 109.857 23.7612C110.135 23.5859 110.324 23.3407 110.444 23.0858L108.634 22.2342ZM108.999 22H108.139V24H108.999V22ZM108.139 22C107.776 22 107.48 21.865 107.195 21.462L105.563 22.618C106.184 23.495 107.062 24 108.139 24V22ZM107.193 21.4588C106.593 20.6188 105.888 19.9665 105.05 19.6315L104.308 21.4885C104.67 21.6335 105.098 21.9679 105.565 22.6212L107.193 21.4588ZM105.05 19.6315C104.269 19.3189 103.199 19.2 101.939 19.2V21.2C103.132 21.2 103.889 21.3211 104.308 21.4885L105.05 19.6315ZM8.65 27.35L8.5002 26.3613L8.46642 26.3664L8.43307 26.3738L8.65 27.35ZM5.4 42.575L4.69289 43.2821H4.69289L5.4 42.575ZM6.375 24.7L6.45805 25.6966L6.4687 25.6956L6.375 24.7ZM15.975 25.875L15.3732 26.6737L15.3803 26.6789L15.975 25.875ZM16.825 32.825L16.0143 32.2395L16.0072 32.2495L16.825 32.825ZM14.25 34.725V35.725H14.4146L14.5706 35.6722L14.25 34.725ZM14.25 34.8L14.78 33.952L14.5368 33.8H14.25V34.8ZM16.3 37.75L17.2341 37.393L17.2328 37.3896L16.3 37.75ZM17.8 41.675L18.7384 41.3293L18.7341 41.318L17.8 41.675ZM17.675 42.575L16.858 41.9983L16.8464 42.0148L16.8354 42.0317L17.675 42.575ZM14.95 42.65L14.3688 43.4637L14.3819 43.4731L14.3953 43.4821L14.95 42.65ZM14.2 41.675L13.2602 42.0168L13.2637 42.0261L14.2 41.675ZM12.8 37.825L13.7398 37.4832L13.7363 37.4739L12.8 37.825ZM11.775 36.25L11.2287 37.0876L11.2287 37.0876L11.775 36.25ZM8 42.575L7.29289 41.8679L7.28218 41.8786L7.2718 41.8896L8 42.575ZM7.425 27.6V33.025H9.425V27.6H7.425ZM7.425 33.025C7.425 33.2783 7.50166 33.6422 7.81689 33.9224C8.10967 34.1827 8.44797 34.225 8.65 34.225V32.225C8.70203 32.225 8.92783 32.234 9.14561 32.4276C9.38584 32.6411 9.425 32.905 9.425 33.025H7.425ZM8.65 34.225H9.9V32.225H8.65V34.225ZM9.9 34.225C11.472 34.225 12.8305 33.95 13.8183 33.2453C14.8682 32.4962 15.35 31.3716 15.35 30.05H13.35C13.35 30.845 13.0901 31.308 12.6567 31.6172C12.1611 31.9708 11.2947 32.225 9.9 32.225V34.225ZM15.35 30.05C15.35 28.8284 14.8823 27.79 13.8838 27.1062C12.9534 26.469 11.683 26.225 10.225 26.225V28.225C11.517 28.225 12.3091 28.4518 12.7537 28.7563C13.1302 29.0141 13.35 29.3883 13.35 30.05H15.35ZM10.225 26.225C9.66963 26.225 9.09433 26.2713 8.5002 26.3613L8.79981 28.3387C9.30567 28.2621 9.78037 28.225 10.225 28.225V26.225ZM8.43307 26.3738C8.22852 26.4193 7.95779 26.5243 7.73796 26.7685C7.50489 27.0275 7.425 27.3357 7.425 27.6H9.425C9.425 27.731 9.38261 27.9308 9.22454 28.1065C9.07971 28.2674 8.92148 28.3141 8.86693 28.3262L8.43307 26.3738ZM6.4 42C6.29497 42 6.21237 41.9732 6.10711 41.8679L4.69289 43.2821C5.1543 43.7435 5.73836 44 6.4 44V42ZM6.10711 41.8679C6.00185 41.7626 5.975 41.68 5.975 41.575H3.975C3.975 42.2366 4.23149 42.8207 4.69289 43.2821L6.10711 41.8679ZM5.975 41.575V26.3H3.975V41.575H5.975ZM5.975 26.3C5.975 26.1445 6.01929 26.0124 6.13991 25.8691L4.61009 24.5809C4.19738 25.071 3.975 25.6555 3.975 26.3H5.975ZM6.13991 25.8691C6.24124 25.7488 6.33234 25.707 6.45805 25.6965L6.29195 23.7035C5.61766 23.7596 5.0421 24.0679 4.61009 24.5809L6.13991 25.8691ZM6.4687 25.6956C7.85669 25.565 9.192 25.5 10.475 25.5V23.5C9.12466 23.5 7.72664 23.5684 6.2813 23.7044L6.4687 25.6956ZM10.475 25.5C12.83 25.5 14.4072 25.9458 15.3733 26.6737L16.5767 25.0763C15.1095 23.9708 13.02 23.5 10.475 23.5V25.5ZM15.3803 26.6789C16.3165 27.3715 16.8 28.3339 16.8 29.7H18.8C18.8 27.7661 18.0669 26.1785 16.5697 25.0711L15.3803 26.6789ZM16.8 29.7C16.8 30.6878 16.5329 31.5215 16.0143 32.2395L17.6357 33.4105C18.4171 32.3285 18.8 31.0789 18.8 29.7H16.8ZM16.0072 32.2495C15.501 32.9688 14.8202 33.4763 13.9294 33.7778L14.5706 35.6722C15.8465 35.2404 16.8823 34.4812 17.6428 33.4005L16.0072 32.2495ZM14.25 33.725C14.0875 33.725 13.782 33.7663 13.5241 34.0242C13.2663 34.282 13.225 34.5875 13.225 34.75H15.225C15.225 34.8958 15.1879 35.1888 14.9384 35.4383C14.6889 35.6879 14.3958 35.725 14.25 35.725V33.725ZM13.225 34.75C13.225 34.8177 13.2282 35.0174 13.3368 35.2347C13.3982 35.3575 13.5055 35.5097 13.6844 35.6289C13.8695 35.7523 14.0708 35.8 14.25 35.8V33.8C14.4208 33.8 14.6149 33.8456 14.7938 33.9648C14.9664 34.0799 15.0684 34.2258 15.1257 34.3403C15.226 34.5409 15.225 34.7156 15.225 34.75H13.225ZM13.72 35.648C14.2499 35.9792 14.8312 36.7231 15.3672 38.1104L17.2328 37.3896C16.6355 35.8436 15.8501 34.6208 14.78 33.952L13.72 35.648ZM15.3659 38.107L16.8659 42.032L18.7341 41.318L17.2341 37.393L15.3659 38.107ZM16.8617 42.0207C16.8664 42.0334 16.8659 42.0362 16.8651 42.0301C16.8648 42.0272 16.8644 42.0229 16.8645 42.0174C16.8645 42.0118 16.8649 42.0059 16.8658 41.9999C16.8666 41.9939 16.8677 41.9887 16.8689 41.9844C16.8701 41.9801 16.8711 41.9775 16.8715 41.9766C16.8722 41.9748 16.8695 41.9821 16.858 41.9983L18.492 43.1517C18.8754 42.6085 18.9725 41.9647 18.7383 41.3293L16.8617 42.0207ZM16.8354 42.0317C16.8272 42.0445 16.8246 42.0456 16.8301 42.0404C16.8359 42.0347 16.847 42.0257 16.8629 42.0169C16.8789 42.0082 16.8933 42.0033 16.9031 42.0009C16.9123 41.9987 16.9123 42 16.9 42V44C17.5776 44 18.1497 43.6821 18.5146 43.1183L16.8354 42.0317ZM16.9 42H16.125V44H16.9V42ZM16.125 42C15.8828 42 15.6853 41.9383 15.5047 41.818L14.3953 43.4821C14.9147 43.8283 15.5006 44 16.125 44V42ZM15.5312 41.8363C15.3418 41.7009 15.2161 41.5365 15.1363 41.3239L13.2637 42.0261C13.4839 42.6135 13.8582 43.0991 14.3688 43.4637L15.5312 41.8363ZM15.1398 41.3333L13.7398 37.4833L11.8602 38.1667L13.2602 42.0167L15.1398 41.3333ZM13.7363 37.4739C13.4175 36.6236 12.9817 35.8431 12.3213 35.4124L11.2287 37.0876C11.335 37.1569 11.5825 37.4264 11.8637 38.1761L13.7363 37.4739ZM12.3213 35.4124C11.6777 34.9927 10.7626 34.875 9.8 34.875V36.875C10.704 36.875 11.1056 37.0073 11.2287 37.0876L12.3213 35.4124ZM9.8 34.875H8.65V36.875H9.8V34.875ZM8.65 34.875C8.42086 34.875 8.06532 34.933 7.77414 35.2241C7.48296 35.5153 7.425 35.8709 7.425 36.1H9.425C9.425 36.1791 9.40454 36.4222 9.18836 36.6384C8.97218 36.8545 8.72915 36.875 8.65 36.875V34.875ZM7.425 36.1V41.575H9.425V36.1H7.425ZM7.425 41.575C7.425 41.68 7.39815 41.7626 7.29289 41.8679L8.70711 43.2821C9.16851 42.8207 9.425 42.2366 9.425 41.575H7.425ZM7.2718 41.8896C7.19089 41.9756 7.12795 42 7.025 42V44C7.68872 44 8.27577 43.7411 8.7282 43.2604L7.2718 41.8896ZM7.025 42H6.4V44H7.025V42ZM27.4389 27.85L28.4018 28.1199L28.4389 27.9875V27.85H27.4389ZM25.2389 35.7L26.1876 36.0162L26.1952 35.9932L26.2018 35.9699L25.2389 35.7ZM25.2639 35.85L26.0959 35.2953L26.0959 35.2953L25.2639 35.85ZM29.6889 35.7L28.726 35.9699L28.7325 35.9932L28.7402 36.0162L29.6889 35.7ZM27.4889 27.85H26.4889V27.9875L26.526 28.1199L27.4889 27.85ZM20.1389 42.575L20.9558 41.9983L20.1389 42.575ZM20.0139 41.65L20.9577 41.9804L20.9603 41.9731L20.9627 41.9658L20.0139 41.65ZM25.1889 26.1L24.2525 25.7489L24.246 25.7664L24.24 25.7842L25.1889 26.1ZM25.9139 25.125L25.3326 24.3113L25.3232 24.318L25.3139 24.325L25.9139 25.125ZM29.1139 25.125L28.5139 25.925L28.5232 25.932L28.5326 25.9387L29.1139 25.125ZM29.8389 26.1L30.7877 25.7842L30.7876 25.7838L29.8389 26.1ZM35.0139 41.65L34.065 41.9658L34.0675 41.9731L34.07 41.9804L35.0139 41.65ZM34.8889 42.575L34.0719 41.9983H34.0719L34.8889 42.575ZM32.0389 42.625L31.4142 43.4059L31.4355 43.4229L31.4576 43.4387L32.0389 42.625ZM31.3639 41.625L30.4017 41.8975L30.4039 41.905L31.3639 41.625ZM30.5639 38.8L29.5716 38.924L29.581 38.9994L29.6017 39.0725L30.5639 38.8ZM24.3639 38.8L25.326 39.0725L25.3303 39.0576L25.334 39.0425L24.3639 38.8ZM23.5639 41.625L22.6017 41.3525L22.5975 41.3674L22.5937 41.3825L23.5639 41.625ZM22.8889 42.625L23.4889 43.425L23.4949 43.4204L22.8889 42.625ZM26.476 27.5801L24.276 35.4301L26.2018 35.9699L28.4018 28.1199L26.476 27.5801ZM24.2902 35.3838C24.1614 35.7701 24.2545 36.1388 24.4318 36.4047L26.0959 35.2953C26.1434 35.3665 26.196 35.4726 26.219 35.6106C26.2427 35.753 26.2287 35.8929 26.1876 36.0162L24.2902 35.3838ZM24.4318 36.4047C24.6076 36.6684 24.9338 36.925 25.3889 36.925V34.925C25.5396 34.925 25.6954 34.9652 25.8346 35.0488C25.9671 35.1283 26.0494 35.2256 26.0959 35.2953L24.4318 36.4047ZM25.3889 36.925H29.5389V34.925H25.3889V36.925ZM29.5389 36.925C29.9939 36.925 30.3201 36.6684 30.4959 36.4047L28.8318 35.2953C28.8783 35.2256 28.9606 35.1283 29.0931 35.0488C29.2324 34.9652 29.3881 34.925 29.5389 34.925V36.925ZM30.4959 36.4047C30.6732 36.1388 30.7663 35.7701 30.6376 35.3838L28.7402 36.0162C28.6991 35.8929 28.685 35.753 28.7087 35.6106C28.7317 35.4726 28.7844 35.3665 28.8318 35.2953L30.4959 36.4047ZM30.6518 35.4301L28.4518 27.5801L26.526 28.1199L28.726 35.9699L30.6518 35.4301ZM28.4889 27.85C28.4889 27.6875 28.4476 27.382 28.1897 27.1242C27.9319 26.8663 27.6264 26.825 27.4639 26.825V28.825C27.318 28.825 27.025 28.7879 26.7755 28.5383C26.526 28.2888 26.4889 27.9958 26.4889 27.85H28.4889ZM27.4639 26.825C27.3014 26.825 26.9958 26.8663 26.738 27.1242C26.4802 27.382 26.4389 27.6875 26.4389 27.85H28.4389C28.4389 27.9958 28.4017 28.2888 28.1522 28.5383C27.9027 28.7879 27.6097 28.825 27.4639 28.825V26.825ZM20.9639 42C20.944 42 20.9358 41.998 20.9365 41.9982C20.9368 41.9982 20.9387 41.9987 20.9419 41.9999C20.9451 42.001 20.9489 42.0026 20.9531 42.0048C20.9572 42.0069 20.9609 42.0092 20.964 42.0113C20.9671 42.0135 20.969 42.0151 20.9697 42.0157C20.9713 42.0171 20.9661 42.0128 20.9558 41.9983L19.3219 43.1517C19.7113 43.7034 20.2925 44 20.9639 44V42ZM20.9558 41.9983C20.9458 41.9841 20.9436 41.9779 20.9443 41.9797C20.9446 41.9805 20.9454 41.9826 20.9463 41.986C20.9473 41.9893 20.9481 41.9932 20.9486 41.9973C20.9492 42.0015 20.9494 42.005 20.9494 42.0078C20.9494 42.0106 20.9492 42.0119 20.9493 42.0114C20.9494 42.0106 20.9506 42.0007 20.9577 41.9804L19.07 41.3196C18.8489 41.9514 18.9315 42.5986 19.3219 43.1517L20.9558 41.9983ZM20.9627 41.9658L26.1377 26.4158L24.24 25.7842L19.065 41.3342L20.9627 41.9658ZM26.1252 26.4511C26.21 26.225 26.3372 26.0575 26.5139 25.925L25.3139 24.325C24.8239 24.6925 24.4677 25.175 24.2525 25.7489L26.1252 26.4511ZM26.4951 25.9387C26.6814 25.8057 26.8627 25.75 27.0639 25.75V23.75C26.4317 23.75 25.8464 23.9443 25.3326 24.3113L26.4951 25.9387ZM27.0639 25.75H27.9639V23.75H27.0639V25.75ZM27.9639 25.75C28.1901 25.75 28.3609 25.8103 28.5139 25.925L29.7139 24.325C29.2002 23.9397 28.6043 23.75 27.9639 23.75V25.75ZM28.5326 25.9387C28.7144 26.0685 28.8251 26.221 28.8902 26.4162L30.7876 25.7838C30.586 25.179 30.2134 24.6815 29.6951 24.3113L28.5326 25.9387ZM28.89 26.4158L34.065 41.9658L35.9627 41.3342L30.7877 25.7842L28.89 26.4158ZM34.07 41.9804C34.0771 42.0007 34.0784 42.0106 34.0784 42.0114C34.0785 42.0119 34.0783 42.0106 34.0783 42.0078C34.0784 42.005 34.0786 42.0015 34.0791 41.9973C34.0797 41.9932 34.0805 41.9893 34.0814 41.986C34.0823 41.9826 34.0831 41.9805 34.0834 41.9797C34.0842 41.9779 34.0819 41.9841 34.0719 41.9983L35.7058 43.1517C36.0963 42.5986 36.1788 41.9514 35.9577 41.3196L34.07 41.9804ZM34.0719 41.9983C34.0616 42.0129 34.0564 42.0171 34.058 42.0157C34.0587 42.0151 34.0606 42.0135 34.0637 42.0113C34.0668 42.0092 34.0705 42.0069 34.0747 42.0048C34.0788 42.0026 34.0826 42.001 34.0858 41.9999C34.089 41.9987 34.091 41.9982 34.0912 41.9982C34.092 41.998 34.0838 42 34.0639 42V44C34.7352 44 35.3164 43.7034 35.7058 43.1517L34.0719 41.9983ZM34.0639 42H33.1639V44H34.0639V42ZM33.1639 42C32.9883 42 32.814 41.9498 32.6201 41.8113L31.4576 43.4387C31.9637 43.8002 32.5395 44 33.1639 44V42ZM32.6636 41.8441C32.4867 41.7026 32.3815 41.5424 32.3239 41.345L30.4039 41.905C30.5796 42.5076 30.9244 43.0141 31.4142 43.4059L32.6636 41.8441ZM32.326 41.3525L31.526 38.5275L29.6017 39.0725L30.4017 41.8975L32.326 41.3525ZM31.5561 38.676C31.5204 38.3903 31.3815 38.0672 31.0708 37.8413C30.7906 37.6375 30.4886 37.6 30.2889 37.6V39.6C30.2558 39.6 30.0829 39.5958 29.8944 39.4587C29.6754 39.2994 29.5906 39.0764 29.5716 38.924L31.5561 38.676ZM30.2889 37.6H24.6389V39.6H30.2889V37.6ZM24.6389 37.6C24.4203 37.6 24.1339 37.6489 23.8694 37.8413C23.5957 38.0404 23.4547 38.3134 23.3937 38.5575L25.334 39.0425C25.3063 39.1533 25.2279 39.3263 25.0458 39.4587C24.873 39.5844 24.7074 39.6 24.6389 39.6V37.6ZM23.4017 38.5275L22.6017 41.3525L24.526 41.8975L25.326 39.0725L23.4017 38.5275ZM22.5937 41.3825C22.5526 41.5468 22.4652 41.6906 22.2828 41.8296L23.4949 43.4204C24.0125 43.0261 24.3751 42.5032 24.534 41.8675L22.5937 41.3825ZM22.2889 41.825C22.1286 41.9452 21.9642 42 21.7639 42V44C22.3969 44 22.9824 43.8048 23.4889 43.425L22.2889 41.825ZM21.7639 42H20.9639V44H21.7639V42ZM37.9969 42.575L37.2687 43.2604L37.2791 43.2714L37.2898 43.2821L37.9969 42.575ZM37.9969 25.175L37.2898 24.4679L37.2791 24.4786L37.2687 24.4896L37.9969 25.175ZM40.6719 25.175L41.379 24.4679L40.6719 25.175ZM48.1719 25.175L47.4648 24.4679V24.4679L48.1719 25.175ZM50.8219 25.175L50.0937 25.8604L50.1041 25.8714L50.1148 25.8821L50.8219 25.175ZM50.8219 42.575L50.1148 41.8679L50.1041 41.8786L50.0937 41.8896L50.8219 42.575ZM48.1719 42.575L47.4648 43.2821L48.1719 42.575ZM38.9969 42C38.8918 42 38.8092 41.9732 38.704 41.8679L37.2898 43.2821C37.7512 43.7435 38.3352 44 38.9969 44V42ZM38.7251 41.8896C38.6301 41.7887 38.5969 41.6994 38.5969 41.575H36.5969C36.5969 42.2173 36.8303 42.7946 37.2687 43.2604L38.7251 41.8896ZM38.5969 41.575V26.175H36.5969V41.575H38.5969ZM38.5969 26.175C38.5969 26.0506 38.6301 25.9613 38.7251 25.8604L37.2687 24.4896C36.8303 24.9554 36.5969 25.5327 36.5969 26.175H38.5969ZM38.704 25.8821C38.8092 25.7768 38.8918 25.75 38.9969 25.75V23.75C38.3352 23.75 37.7512 24.0065 37.2898 24.4679L38.704 25.8821ZM38.9969 25.75H39.6719V23.75H38.9969V25.75ZM39.6719 25.75C39.7769 25.75 39.8595 25.7768 39.9648 25.8821L41.379 24.4679C40.9176 24.0065 40.3335 23.75 39.6719 23.75V25.75ZM39.9648 25.8821C40.07 25.9874 40.0969 26.07 40.0969 26.175H42.0969C42.0969 25.5134 41.8404 24.9293 41.379 24.4679L39.9648 25.8821ZM40.0969 26.175V31.85H42.0969V26.175H40.0969ZM40.0969 31.85C40.0969 32.0708 40.1528 32.4201 40.4398 32.7071C40.7268 32.9941 41.0761 33.05 41.2969 33.05V31.05C41.3844 31.05 41.6336 31.0725 41.854 31.2929C42.0743 31.5132 42.0969 31.7625 42.0969 31.85H40.0969ZM41.2969 33.05H47.5469V31.05H41.2969V33.05ZM47.5469 33.05C47.7677 33.05 48.117 32.9941 48.404 32.7071C48.691 32.4201 48.7469 32.0708 48.7469 31.85H46.7469C46.7469 31.7625 46.7694 31.5132 46.9898 31.2929C47.2101 31.0725 47.4594 31.05 47.5469 31.05V33.05ZM48.7469 31.85V26.175H46.7469V31.85H48.7469ZM48.7469 26.175C48.7469 26.07 48.7737 25.9874 48.879 25.8821L47.4648 24.4679C47.0034 24.9293 46.7469 25.5134 46.7469 26.175H48.7469ZM48.879 25.8821C48.9842 25.7768 49.0668 25.75 49.1719 25.75V23.75C48.5102 23.75 47.9262 24.0065 47.4648 24.4679L48.879 25.8821ZM49.1719 25.75H49.8469V23.75H49.1719V25.75ZM49.8469 25.75C49.9498 25.75 50.0128 25.7744 50.0937 25.8604L51.5501 24.4896C51.0976 24.0089 50.5106 23.75 49.8469 23.75V25.75ZM50.1148 25.8821C50.22 25.9874 50.2469 26.07 50.2469 26.175H52.2469C52.2469 25.5134 51.9904 24.9293 51.529 24.4679L50.1148 25.8821ZM50.2469 26.175V41.575H52.2469V26.175H50.2469ZM50.2469 41.575C50.2469 41.68 50.22 41.7626 50.1148 41.8679L51.529 43.2821C51.9904 42.8207 52.2469 42.2366 52.2469 41.575H50.2469ZM50.0937 41.8896C50.0128 41.9756 49.9498 42 49.8469 42V44C50.5106 44 51.0976 43.7411 51.5501 43.2604L50.0937 41.8896ZM49.8469 42H49.1719V44H49.8469V42ZM49.1719 42C49.0668 42 48.9842 41.9732 48.879 41.8679L47.4648 43.2821C47.9262 43.7435 48.5102 44 49.1719 44V42ZM48.879 41.8679C48.7737 41.7626 48.7469 41.68 48.7469 41.575H46.7469C46.7469 42.2366 47.0034 42.8207 47.4648 43.2821L48.879 41.8679ZM48.7469 41.575V34.95H46.7469V41.575H48.7469ZM48.7469 34.95C48.7469 34.748 48.7045 34.4097 48.4443 34.1169C48.1641 33.8017 47.8002 33.725 47.5469 33.725V35.725C47.4269 35.725 47.163 35.6858 46.9495 35.4456C46.7559 35.2278 46.7469 35.002 46.7469 34.95H48.7469ZM47.5469 33.725H41.2969V35.725H47.5469V33.725ZM41.2969 33.725C41.0436 33.725 40.6797 33.8017 40.3995 34.1169C40.1392 34.4097 40.0969 34.748 40.0969 34.95H42.0969C42.0969 35.002 42.0879 35.2278 41.8943 35.4456C41.6808 35.6858 41.4169 35.725 41.2969 35.725V33.725ZM40.0969 34.95V41.575H42.0969V34.95H40.0969ZM40.0969 41.575C40.0969 41.68 40.07 41.7626 39.9648 41.8679L41.379 43.2821C41.8404 42.8207 42.0969 42.2366 42.0969 41.575H40.0969ZM39.9648 41.8679C39.8595 41.9732 39.7769 42 39.6719 42V44C40.3335 44 40.9176 43.7435 41.379 43.2821L39.9648 41.8679ZM39.6719 42H38.9969V44H39.6719V42ZM55.7244 42.575L55.0173 43.2821L55.7244 42.575ZM55.7244 25.175L55.0173 24.4679L55.7244 25.175ZM59.3494 26.025L58.4323 26.4237L58.437 26.4345L58.4419 26.4451L59.3494 26.025ZM63.7244 35.475H64.7244V35.2547L64.6319 35.0549L63.7244 35.475ZM63.7744 35.475L62.8669 35.0549L62.7744 35.2547V35.475H63.7744ZM68.1494 26.025L69.0569 26.4451L69.0618 26.4345L69.0665 26.4237L68.1494 26.025ZM68.9494 25.1L68.4125 24.2563L68.9494 25.1ZM71.8744 25.175L72.5815 24.4679V24.4679L71.8744 25.175ZM69.3244 42.575L70.0315 41.8679H70.0315L69.3244 42.575ZM68.8494 30.7L69.7555 31.1231L69.8494 30.922V30.7H68.8494ZM65.8494 37.125L66.7516 37.5565L66.7555 37.5481L65.8494 37.125ZM64.9994 38.075L65.5363 38.9187L65.5457 38.9126L64.9994 38.075ZM62.4744 38.075L61.9111 38.9012L61.9324 38.9158L61.9545 38.9292L62.4744 38.075ZM61.6494 37.125L60.7433 37.5481L60.7473 37.5565L61.6494 37.125ZM58.6494 30.7H57.6494V30.922L57.7433 31.1231L58.6494 30.7ZM56.7244 42C56.6194 42 56.5368 41.9732 56.4315 41.8679L55.0173 43.2821C55.4787 43.7435 56.0628 44 56.7244 44V42ZM56.4315 41.8679C56.3263 41.7626 56.2994 41.68 56.2994 41.575H54.2994C54.2994 42.2366 54.5559 42.8207 55.0173 43.2821L56.4315 41.8679ZM56.2994 41.575V26.175H54.2994V41.575H56.2994ZM56.2994 26.175C56.2994 26.07 56.3263 25.9874 56.4315 25.8821L55.0173 24.4679C54.5559 24.9293 54.2994 25.5134 54.2994 26.175H56.2994ZM56.4315 25.8821C56.5368 25.7768 56.6194 25.75 56.7244 25.75V23.75C56.0628 23.75 55.4787 24.0065 55.0173 24.4679L56.4315 25.8821ZM56.7244 25.75H57.3494V23.75H56.7244V25.75ZM57.3494 25.75C57.592 25.75 57.8058 25.8121 58.0125 25.9437L59.0863 24.2563C58.5597 23.9212 57.9735 23.75 57.3494 23.75V25.75ZM58.0125 25.9437C58.218 26.0744 58.3485 26.2309 58.4323 26.4237L60.2665 25.6263C60.017 25.0525 59.6141 24.5922 59.0863 24.2563L58.0125 25.9437ZM58.4419 26.4451L62.8169 35.8951L64.6319 35.0549L60.2569 25.6049L58.4419 26.4451ZM62.7244 35.475C62.7244 35.6375 62.7657 35.943 63.0236 36.2009C63.2814 36.4587 63.5869 36.5 63.7494 36.5V34.5C63.8952 34.5 64.1883 34.5371 64.4378 34.7866C64.6873 35.0362 64.7244 35.3292 64.7244 35.475H62.7244ZM63.7494 36.5C63.9119 36.5 64.2174 36.4587 64.4753 36.2008C64.7331 35.943 64.7744 35.6375 64.7744 35.475H62.7744C62.7744 35.3292 62.8115 35.0362 63.061 34.7867C63.3106 34.5371 63.6036 34.5 63.7494 34.5V36.5ZM64.6819 35.8951L69.0569 26.4451L67.242 25.6049L62.8669 35.0549L64.6819 35.8951ZM69.0665 26.4237C69.1503 26.2309 69.2808 26.0744 69.4863 25.9437L68.4125 24.2563C67.8847 24.5922 67.4818 25.0525 67.2323 25.6263L69.0665 26.4237ZM69.4863 25.9437C69.693 25.8121 69.9069 25.75 70.1494 25.75V23.75C69.5253 23.75 68.9392 23.9212 68.4125 24.2563L69.4863 25.9437ZM70.1494 25.75H70.8744V23.75H70.1494V25.75ZM70.8744 25.75C70.9794 25.75 71.062 25.7768 71.1673 25.8821L72.5815 24.4679C72.1201 24.0065 71.536 23.75 70.8744 23.75V25.75ZM71.1673 25.8821C71.2726 25.9874 71.2994 26.07 71.2994 26.175H73.2994C73.2994 25.5134 73.0429 24.9293 72.5815 24.4679L71.1673 25.8821ZM71.2994 26.175V41.575H73.2994V26.175H71.2994ZM71.2994 41.575C71.2994 41.68 71.2726 41.7626 71.1673 41.8679L72.5815 43.2821C73.0429 42.8207 73.2994 42.2366 73.2994 41.575H71.2994ZM71.1673 41.8679C71.062 41.9732 70.9794 42 70.8744 42V44C71.5361 44 72.1201 43.7435 72.5815 43.2821L71.1673 41.8679ZM70.8744 42H70.3244V44H70.8744V42ZM70.3244 42C70.2194 42 70.1368 41.9732 70.0315 41.8679L68.6173 43.2821C69.0787 43.7435 69.6628 44 70.3244 44V42ZM70.0315 41.8679C69.9263 41.7626 69.8994 41.68 69.8994 41.575H67.8994C67.8994 42.2366 68.1559 42.8207 68.6173 43.2821L70.0315 41.8679ZM69.8994 41.575V30.7H67.8994V41.575H69.8994ZM69.8994 30.7C69.8994 30.5375 69.8581 30.232 69.6003 29.9742C69.3424 29.7163 69.0369 29.675 68.8744 29.675V31.675C68.7286 31.675 68.4356 31.6379 68.1861 31.3883C67.9365 31.1388 67.8994 30.8458 67.8994 30.7H69.8994ZM68.8744 29.675C68.7119 29.675 68.4064 29.7163 68.1485 29.9742C67.8907 30.232 67.8494 30.5375 67.8494 30.7H69.8494C69.8494 30.8458 69.8123 31.1388 69.5628 31.3883C69.3133 31.6379 69.0202 31.675 68.8744 31.675V29.675ZM67.9433 30.2769L64.9433 36.7019L66.7555 37.5481L69.7555 31.1231L67.9433 30.2769ZM64.9473 36.6935C64.8492 36.8987 64.6951 37.0796 64.4531 37.2374L65.5457 38.9126C66.0704 38.5704 66.483 38.118 66.7515 37.5565L64.9473 36.6935ZM64.4625 37.2313C64.2491 37.3672 64.0425 37.425 63.8244 37.425V39.425C64.4397 39.425 65.0164 39.2495 65.5363 38.9187L64.4625 37.2313ZM63.8244 37.425H63.6744V39.425H63.8244V37.425ZM63.6744 37.425C63.4553 37.425 63.2336 37.3664 62.9944 37.2208L61.9545 38.9292C62.4819 39.2503 63.0602 39.425 63.6744 39.425V37.425ZM63.0378 37.2488C62.8101 37.0936 62.6553 36.9105 62.5515 36.6935L60.7473 37.5565C61.0102 38.1062 61.4054 38.5564 61.9111 38.9012L63.0378 37.2488ZM62.5555 36.7019L59.5555 30.2769L57.7433 31.1231L60.7433 37.5481L62.5555 36.7019ZM59.6494 30.7C59.6494 30.5375 59.6081 30.232 59.3503 29.9741C59.0924 29.7163 58.7869 29.675 58.6244 29.675V31.675C58.4786 31.675 58.1856 31.6379 57.9361 31.3884C57.6865 31.1388 57.6494 30.8458 57.6494 30.7H59.6494ZM58.6244 29.675C58.4619 29.675 58.1564 29.7163 57.8986 29.9741C57.6407 30.232 57.5994 30.5375 57.5994 30.7H59.5994C59.5994 30.8458 59.5623 31.1388 59.3128 31.3884C59.0633 31.6379 58.7702 31.675 58.6244 31.675V29.675ZM57.5994 30.7V41.575H59.5994V30.7H57.5994ZM57.5994 41.575C57.5994 41.68 57.5726 41.7626 57.4673 41.8679L58.8815 43.2821C59.3429 42.8207 59.5994 42.2366 59.5994 41.575H57.5994ZM57.4673 41.8679C57.362 41.9732 57.2794 42 57.1744 42V44C57.8361 44 58.4201 43.7435 58.8815 43.2821L57.4673 41.8679ZM57.1744 42H56.7244V44H57.1744V42ZM82.6217 27.85L83.5846 28.1199L83.6217 27.9875V27.85H82.6217ZM80.4217 35.7L81.3704 36.0162L81.378 35.9932L81.3846 35.9699L80.4217 35.7ZM80.4467 35.85L81.2787 35.2953V35.2953L80.4467 35.85ZM84.8717 35.7L83.9088 35.9699L83.9153 35.9932L83.923 36.0162L84.8717 35.7ZM82.6717 27.85H81.6717V27.9875L81.7088 28.1199L82.6717 27.85ZM75.3217 42.575L76.1386 41.9983L75.3217 42.575ZM75.1967 41.65L76.1405 41.9804L76.1431 41.9731L76.1455 41.9658L75.1967 41.65ZM80.3717 26.1L79.4354 25.7489L79.4288 25.7664L79.4228 25.7842L80.3717 26.1ZM81.0967 25.125L80.5154 24.3113L80.506 24.318L80.4967 24.325L81.0967 25.125ZM84.2967 25.125L83.6967 25.925L83.706 25.932L83.7154 25.9387L84.2967 25.125ZM85.0217 26.1L85.9705 25.7842L85.9704 25.7838L85.0217 26.1ZM90.1967 41.65L89.2478 41.9658L89.2503 41.9731L89.2528 41.9804L90.1967 41.65ZM90.0717 42.575L89.2547 41.9983L90.0717 42.575ZM87.2217 42.625L86.597 43.4059L86.6183 43.4229L86.6404 43.4387L87.2217 42.625ZM86.5467 41.625L85.5845 41.8975L85.5867 41.905L86.5467 41.625ZM85.7467 38.8L84.7544 38.924L84.7638 38.9994L84.7845 39.0725L85.7467 38.8ZM79.5467 38.8L80.5088 39.0725L80.5131 39.0576L80.5168 39.0425L79.5467 38.8ZM78.7467 41.625L77.7845 41.3525L77.7803 41.3674L77.7765 41.3825L78.7467 41.625ZM78.0717 42.625L78.6717 43.425L78.6777 43.4204L78.0717 42.625ZM81.6588 27.5801L79.4588 35.4301L81.3846 35.9699L83.5846 28.1199L81.6588 27.5801ZM79.473 35.3838C79.3442 35.7701 79.4373 36.1388 79.6146 36.4047L81.2787 35.2953C81.3262 35.3665 81.3788 35.4726 81.4018 35.6106C81.4256 35.753 81.4115 35.8929 81.3704 36.0162L79.473 35.3838ZM79.6146 36.4047C79.7904 36.6684 80.1166 36.925 80.5717 36.925V34.925C80.7224 34.925 80.8782 34.9652 81.0174 35.0488C81.15 35.1283 81.2323 35.2256 81.2787 35.2953L79.6146 36.4047ZM80.5717 36.925H84.7217V34.925H80.5717V36.925ZM84.7217 36.925C85.1767 36.925 85.5029 36.6684 85.6787 36.4047L84.0146 35.2953C84.0611 35.2256 84.1434 35.1283 84.2759 35.0488C84.4152 34.9652 84.571 34.925 84.7217 34.925V36.925ZM85.6787 36.4047C85.856 36.1388 85.9492 35.7701 85.8204 35.3838L83.923 36.0162C83.8819 35.8929 83.8678 35.753 83.8915 35.6106C83.9145 35.4726 83.9672 35.3665 84.0146 35.2953L85.6787 36.4047ZM85.8346 35.4301L83.6346 27.5801L81.7088 28.1199L83.9088 35.9699L85.8346 35.4301ZM83.6717 27.85C83.6717 27.6875 83.6304 27.382 83.3726 27.1242C83.1147 26.8663 82.8092 26.825 82.6467 26.825V28.825C82.5009 28.825 82.2078 28.7879 81.9583 28.5383C81.7088 28.2888 81.6717 27.9958 81.6717 27.85H83.6717ZM82.6467 26.825C82.4842 26.825 82.1787 26.8663 81.9208 27.1242C81.663 27.382 81.6217 27.6875 81.6217 27.85H83.6217C83.6217 27.9958 83.5846 28.2888 83.3351 28.5383C83.0855 28.7879 82.7925 28.825 82.6467 28.825V26.825ZM76.1467 42C76.1268 42 76.1186 41.998 76.1193 41.9982C76.1196 41.9982 76.1215 41.9987 76.1247 41.9999C76.1279 42.001 76.1318 42.0026 76.1359 42.0048C76.14 42.0069 76.1437 42.0092 76.1468 42.0113C76.1499 42.0135 76.1518 42.0151 76.1525 42.0157C76.1541 42.0171 76.1489 42.0128 76.1386 41.9983L74.5047 43.1517C74.8941 43.7034 75.4753 44 76.1467 44V42ZM76.1386 41.9983C76.1286 41.9841 76.1264 41.9779 76.1271 41.9797C76.1274 41.9805 76.1283 41.9826 76.1292 41.986C76.1301 41.9893 76.1309 41.9932 76.1314 41.9973C76.132 42.0015 76.1322 42.005 76.1322 42.0078C76.1322 42.0106 76.132 42.0119 76.1321 42.0114C76.1322 42.0106 76.1334 42.0007 76.1405 41.9804L74.2528 41.3196C74.0317 41.9514 74.1143 42.5986 74.5047 43.1517L76.1386 41.9983ZM76.1455 41.9658L81.3205 26.4158L79.4228 25.7842L74.2478 41.3342L76.1455 41.9658ZM81.308 26.4511C81.3928 26.225 81.52 26.0575 81.6967 25.925L80.4967 24.325C80.0067 24.6925 79.6506 25.175 79.4354 25.7489L81.308 26.4511ZM81.6779 25.9387C81.8642 25.8057 82.0455 25.75 82.2467 25.75V23.75C81.6145 23.75 81.0292 23.9443 80.5154 24.3113L81.6779 25.9387ZM82.2467 25.75H83.1467V23.75H82.2467V25.75ZM83.1467 25.75C83.3729 25.75 83.5437 25.8103 83.6967 25.925L84.8967 24.325C84.383 23.9397 83.7871 23.75 83.1467 23.75V25.75ZM83.7154 25.9387C83.8972 26.0685 84.0079 26.221 84.073 26.4162L85.9704 25.7838C85.7688 25.179 85.3962 24.6815 84.8779 24.3113L83.7154 25.9387ZM84.0728 26.4158L89.2478 41.9658L91.1455 41.3342L85.9705 25.7842L84.0728 26.4158ZM89.2528 41.9804C89.2599 42.0007 89.2612 42.0106 89.2613 42.0114C89.2613 42.0119 89.2611 42.0106 89.2612 42.0078C89.2612 42.005 89.2614 42.0015 89.2619 41.9973C89.2625 41.9932 89.2633 41.9893 89.2642 41.986C89.2651 41.9826 89.2659 41.9805 89.2662 41.9797C89.267 41.9779 89.2647 41.9841 89.2547 41.9983L90.8886 43.1517C91.2791 42.5986 91.3617 41.9514 91.1405 41.3196L89.2528 41.9804ZM89.2547 41.9983C89.2445 42.0129 89.2392 42.0171 89.2408 42.0157C89.2415 42.0151 89.2434 42.0135 89.2465 42.0113C89.2496 42.0092 89.2533 42.0069 89.2575 42.0048C89.2616 42.0026 89.2654 42.001 89.2687 41.9999C89.2719 41.9987 89.2738 41.9982 89.2741 41.9982C89.2748 41.998 89.2666 42 89.2467 42V44C89.918 44 90.4992 43.7034 90.8886 43.1517L89.2547 41.9983ZM89.2467 42H88.3467V44H89.2467V42ZM88.3467 42C88.1711 42 87.9968 41.9498 87.8029 41.8113L86.6404 43.4387C87.1466 43.8002 87.7223 44 88.3467 44V42ZM87.8464 41.8441C87.6695 41.7026 87.5643 41.5424 87.5067 41.345L85.5867 41.905C85.7624 42.5076 86.1072 43.0141 86.597 43.4059L87.8464 41.8441ZM87.5088 41.3525L86.7088 38.5275L84.7845 39.0725L85.5845 41.8975L87.5088 41.3525ZM86.739 38.676C86.7032 38.3903 86.5643 38.0672 86.2536 37.8413C85.9734 37.6375 85.6715 37.6 85.4717 37.6V39.6C85.4386 39.6 85.2658 39.5958 85.0773 39.4587C84.8582 39.2994 84.7735 39.0764 84.7544 38.924L86.739 38.676ZM85.4717 37.6H79.8217V39.6H85.4717V37.6ZM79.8217 37.6C79.6031 37.6 79.3167 37.6489 79.0523 37.8413C78.7785 38.0404 78.6376 38.3134 78.5765 38.5575L80.5168 39.0425C80.4891 39.1533 80.4107 39.3263 80.2286 39.4587C80.0558 39.5844 79.8902 39.6 79.8217 39.6V37.6ZM78.5845 38.5275L77.7845 41.3525L79.7088 41.8975L80.5088 39.0725L78.5845 38.5275ZM77.7765 41.3825C77.7355 41.5468 77.648 41.6906 77.4656 41.8296L78.6777 43.4204C79.1953 43.0261 79.5579 42.5032 79.7168 41.8675L77.7765 41.3825ZM77.4717 41.825C77.3114 41.9452 77.147 42 76.9467 42V44C77.5797 44 78.1653 43.8048 78.6717 43.425L77.4717 41.825ZM76.9467 42H76.1467V44H76.9467V42ZM93.1797 42.575L92.4515 43.2604L92.4619 43.2714L92.4726 43.2821L93.1797 42.575ZM93.1797 25.175L92.4726 24.4679L92.4619 24.4786L92.4515 24.4896L93.1797 25.175ZM96.8297 26L95.9497 26.4752L95.9549 26.4845L96.8297 26ZM103.005 37.15H104.005V36.8916L103.879 36.6655L103.005 37.15ZM103.48 25.175L102.773 24.4679V24.4679L103.48 25.175ZM106.005 25.175L105.276 25.8604L105.287 25.8714L105.298 25.8821L106.005 25.175ZM106.005 42.575L105.298 41.8679L105.287 41.8786L105.276 41.8896L106.005 42.575ZM102.38 41.75L103.26 41.2748L103.254 41.2655L102.38 41.75ZM96.2047 30.6H95.2047V30.8584L95.3299 31.0845L96.2047 30.6ZM94.1797 42C94.0747 42 93.9921 41.9732 93.8868 41.8679L92.4726 43.2821C92.934 43.7435 93.5181 44 94.1797 44V42ZM93.9079 41.8896C93.8129 41.7887 93.7797 41.6994 93.7797 41.575H91.7797C91.7797 42.2173 92.0132 42.7946 92.4515 43.2604L93.9079 41.8896ZM93.7797 41.575V26.175H91.7797V41.575H93.7797ZM93.7797 26.175C93.7797 26.0506 93.8129 25.9613 93.9079 25.8604L92.4515 24.4896C92.0132 24.9554 91.7797 25.5327 91.7797 26.175H93.7797ZM93.8868 25.8821C93.9921 25.7768 94.0747 25.75 94.1797 25.75V23.75C93.5181 23.75 92.934 24.0065 92.4726 24.4679L93.8868 25.8821ZM94.1797 25.75H94.7297V23.75H94.1797V25.75ZM94.7297 25.75C95.0549 25.75 95.2845 25.8199 95.4557 25.9218C95.6267 26.0236 95.7965 26.1913 95.9498 26.4751L97.7096 25.5249C97.4129 24.9754 97.0077 24.5181 96.4787 24.2032C95.9498 23.8884 95.3544 23.75 94.7297 23.75V25.75ZM95.9549 26.4845L102.13 37.6345L103.879 36.6655L97.7045 25.5155L95.9549 26.4845ZM102.005 37.15C102.005 37.3125 102.046 37.618 102.304 37.8759C102.562 38.1337 102.867 38.175 103.03 38.175V36.175C103.176 36.175 103.469 36.2121 103.718 36.4616C103.968 36.7112 104.005 37.0042 104.005 37.15H102.005ZM103.03 38.175C103.192 38.175 103.498 38.1337 103.756 37.8759C104.013 37.618 104.055 37.3125 104.055 37.15H102.055C102.055 37.0042 102.092 36.7112 102.341 36.4616C102.591 36.2121 102.884 36.175 103.03 36.175V38.175ZM104.055 37.15V26.175H102.055V37.15H104.055ZM104.055 26.175C104.055 26.07 104.082 25.9874 104.187 25.8821L102.773 24.4679C102.311 24.9293 102.055 25.5134 102.055 26.175H104.055ZM104.187 25.8821C104.292 25.7768 104.375 25.75 104.48 25.75V23.75C103.818 23.75 103.234 24.0065 102.773 24.4679L104.187 25.8821ZM104.48 25.75H105.03V23.75H104.48V25.75ZM105.03 25.75C105.133 25.75 105.196 25.7744 105.276 25.8604L106.733 24.4896C106.28 24.0089 105.693 23.75 105.03 23.75V25.75ZM105.298 25.8821C105.403 25.9874 105.43 26.07 105.43 26.175H107.43C107.43 25.5134 107.173 24.9293 106.712 24.4679L105.298 25.8821ZM105.43 26.175V41.575H107.43V26.175H105.43ZM105.43 41.575C105.43 41.68 105.403 41.7626 105.298 41.8679L106.712 43.2821C107.173 42.8207 107.43 42.2366 107.43 41.575H105.43ZM105.276 41.8896C105.196 41.9756 105.133 42 105.03 42V44C105.693 44 106.28 43.7411 106.733 43.2604L105.276 41.8896ZM105.03 42H104.48V44H105.03V42ZM104.48 42C104.154 42 103.925 41.9301 103.754 41.8282C103.583 41.7264 103.413 41.5587 103.26 41.2749L101.5 42.2251C101.796 42.7746 102.202 43.2319 102.731 43.5468C103.26 43.8616 103.855 44 104.48 44V42ZM103.254 41.2655L97.0795 30.1155L95.3299 31.0845L101.505 42.2345L103.254 41.2655ZM97.2047 30.6C97.2047 30.4375 97.1634 30.132 96.9055 29.8741C96.6477 29.6163 96.3422 29.575 96.1797 29.575V31.575C96.0339 31.575 95.7409 31.5379 95.4913 31.2884C95.2418 31.0388 95.2047 30.7458 95.2047 30.6H97.2047ZM96.1797 29.575C96.0172 29.575 95.7117 29.6163 95.4538 29.8741C95.196 30.132 95.1547 30.4375 95.1547 30.6H97.1547C97.1547 30.7458 97.1176 31.0388 96.868 31.2884C96.6185 31.5379 96.3255 31.575 96.1797 31.575V29.575ZM95.1547 30.6V41.575H97.1547V30.6H95.1547ZM95.1547 41.575C95.1547 41.68 95.1278 41.7626 95.0226 41.8679L96.4368 43.2821C96.8982 42.8207 97.1547 42.2366 97.1547 41.575H95.1547ZM95.0226 41.8679C94.9173 41.9732 94.8347 42 94.7297 42V44C95.3913 44 95.9754 43.7435 96.4368 43.2821L95.0226 41.8679ZM94.7297 42H94.1797V44H94.7297V42Z" fill="black" mask="url(#path-1-outside-1_5_14)"/>
</svg>
