<svg width="108" height="40" viewBox="0 0 108 40" fill="none" xmlns="http://www.w3.org/2000/svg">
<mask id="path-1-outside-1_5_16" maskUnits="userSpaceOnUse" x="0" y="0" width="108" height="40" fill="black">
<rect fill="white" width="108" height="40"/>
<path d="M2.22 3.72C1.91333 3.72 1.64667 3.61333 1.42 3.4C1.19333 3.17333 1.08 2.90667 1.08 2.6V2.54C1.08 2.23333 1.19333 1.96667 1.42 1.74C1.64667 1.51333 1.91333 1.4 2.22 1.4H10.74C11.0467 1.4 11.3133 1.51333 11.54 1.74C11.7667 1.96667 11.88 2.23333 11.88 2.54V2.6C11.88 2.90667 11.7667 3.17333 11.54 3.4C11.3133 3.61333 11.0467 3.72 10.74 3.72H8.06C7.95333 3.72 7.9 3.78 7.9 3.9V14.86C7.9 15.1667 7.78667 15.4333 7.56 15.66C7.33333 15.8867 7.06667 16 6.76 16H6.2C5.89333 16 5.62667 15.8867 5.4 15.66C5.17333 15.4333 5.06 15.1667 5.06 14.86V3.9C5.06 3.78 5.00667 3.72 4.9 3.72H2.22ZM15.7688 16C15.4621 16 15.1954 15.8867 14.9688 15.66C14.7554 15.4333 14.6488 15.1667 14.6488 14.86V2.54C14.6488 2.23333 14.7554 1.96667 14.9688 1.74C15.1954 1.51333 15.4621 1.4 15.7688 1.4H16.3088C16.6154 1.4 16.8821 1.51333 17.1088 1.74C17.3354 1.96667 17.4488 2.23333 17.4488 2.54V7.08C17.4488 7.18667 17.5021 7.24 17.6088 7.24H22.6088C22.7154 7.24 22.7688 7.18667 22.7688 7.08V2.54C22.7688 2.23333 22.8821 1.96667 23.1088 1.74C23.3354 1.51333 23.6021 1.4 23.9088 1.4H24.4488C24.7554 1.4 25.0154 1.51333 25.2288 1.74C25.4554 1.96667 25.5688 2.23333 25.5688 2.54V14.86C25.5688 15.1667 25.4554 15.4333 25.2288 15.66C25.0154 15.8867 24.7554 16 24.4488 16H23.9088C23.6021 16 23.3354 15.8867 23.1088 15.66C22.8821 15.4333 22.7688 15.1667 22.7688 14.86V9.56C22.7688 9.44 22.7154 9.38 22.6088 9.38H17.6088C17.5021 9.38 17.4488 9.44 17.4488 9.56V14.86C17.4488 15.1667 17.3354 15.4333 17.1088 15.66C16.8821 15.8867 16.6154 16 16.3088 16H15.7688ZM38.3908 8.7C38.3908 5.23333 37.1241 3.5 34.5908 3.5C32.0574 3.5 30.7908 5.23333 30.7908 8.7C30.7908 12.1667 32.0574 13.9 34.5908 13.9C37.1241 13.9 38.3908 12.1667 38.3908 8.7ZM39.4508 14.22C38.2641 15.54 36.6441 16.2 34.5908 16.2C32.5374 16.2 30.9108 15.54 29.7108 14.22C28.5241 12.9 27.9308 11.06 27.9308 8.7C27.9308 6.34 28.5241 4.5 29.7108 3.18C30.9108 1.86 32.5374 1.2 34.5908 1.2C36.6441 1.2 38.2641 1.86 39.4508 3.18C40.6508 4.5 41.2508 6.34 41.2508 8.7C41.2508 11.06 40.6508 12.9 39.4508 14.22ZM54.2183 10.8C54.2183 14.4 52.4183 16.2 48.8183 16.2C45.2183 16.2 43.4183 14.4 43.4183 10.8V2.54C43.4183 2.23333 43.5316 1.96667 43.7583 1.74C43.9849 1.51333 44.2516 1.4 44.5583 1.4H45.1183C45.4249 1.4 45.6916 1.51333 45.9183 1.74C46.1449 1.96667 46.2583 2.23333 46.2583 2.54V10.96C46.2583 12 46.4649 12.7533 46.8783 13.22C47.3049 13.6733 47.9649 13.9 48.8583 13.9C49.7516 13.9 50.4049 13.6733 50.8183 13.22C51.2449 12.7533 51.4583 12 51.4583 10.96V2.54C51.4583 2.23333 51.5716 1.96667 51.7983 1.74C52.0249 1.51333 52.2916 1.4 52.5983 1.4H53.0783C53.3849 1.4 53.6516 1.51333 53.8783 1.74C54.1049 1.96667 54.2183 2.23333 54.2183 2.54V10.8ZM58.393 16C58.0863 16 57.8196 15.8867 57.593 15.66C57.3796 15.4333 57.273 15.1667 57.273 14.86V2.54C57.273 2.23333 57.3796 1.96667 57.593 1.74C57.8196 1.51333 58.0863 1.4 58.393 1.4H64.993C65.2996 1.4 65.5663 1.51333 65.793 1.74C66.0196 1.96667 66.133 2.23333 66.133 2.54C66.133 2.84667 66.0196 3.11333 65.793 3.34C65.5663 3.55333 65.2996 3.66 64.993 3.66H60.233C60.1263 3.66 60.073 3.72 60.073 3.84V7.34C60.073 7.44667 60.1263 7.5 60.233 7.5H64.653C64.9463 7.5 65.1996 7.60667 65.413 7.82C65.6263 8.02 65.733 8.27333 65.733 8.58C65.733 8.88667 65.6263 9.14667 65.413 9.36C65.1996 9.56 64.9463 9.66 64.653 9.66H60.233C60.1263 9.66 60.073 9.71333 60.073 9.82V14.86C60.073 15.1667 59.9596 15.4333 59.733 15.66C59.5063 15.8867 59.2396 16 58.933 16H58.393ZM70.2317 16C69.9251 16 69.6584 15.8867 69.4317 15.66C69.2051 15.4333 69.0917 15.1667 69.0917 14.86V2.54C69.0917 2.23333 69.2051 1.96667 69.4317 1.74C69.6584 1.51333 69.9251 1.4 70.2317 1.4H77.0317C77.3384 1.4 77.6051 1.51333 77.8317 1.74C78.0584 1.96667 78.1717 2.23333 78.1717 2.54C78.1717 2.84667 78.0584 3.11333 77.8317 3.34C77.6051 3.55333 77.3384 3.66 77.0317 3.66H72.0717C71.9517 3.66 71.8917 3.72 71.8917 3.84V7.06C71.8917 7.18 71.9517 7.24 72.0717 7.24H76.6917C76.9984 7.24 77.2517 7.34667 77.4517 7.56C77.6651 7.77333 77.7717 8.02667 77.7717 8.32C77.7717 8.61333 77.6651 8.86667 77.4517 9.08C77.2517 9.28 76.9984 9.38 76.6917 9.38H72.0717C71.9517 9.38 71.8917 9.44 71.8917 9.56V13.56C71.8917 13.68 71.9517 13.74 72.0717 13.74H77.0317C77.3384 13.74 77.6051 13.8533 77.8317 14.08C78.0584 14.2933 78.1717 14.5533 78.1717 14.86C78.1717 15.1667 78.0584 15.4333 77.8317 15.66C77.6051 15.8867 77.3384 16 77.0317 16H70.2317ZM82.363 16C82.0563 16 81.7896 15.8867 81.563 15.66C81.3363 15.4333 81.223 15.1667 81.223 14.86V2.54C81.223 2.23333 81.3363 1.96667 81.563 1.74C81.7896 1.51333 82.0563 1.4 82.363 1.4H89.163C89.4696 1.4 89.7363 1.51333 89.963 1.74C90.1896 1.96667 90.303 2.23333 90.303 2.54C90.303 2.84667 90.1896 3.11333 89.963 3.34C89.7363 3.55333 89.4696 3.66 89.163 3.66H84.203C84.083 3.66 84.023 3.72 84.023 3.84V7.06C84.023 7.18 84.083 7.24 84.203 7.24H88.823C89.1296 7.24 89.383 7.34667 89.583 7.56C89.7963 7.77333 89.903 8.02667 89.903 8.32C89.903 8.61333 89.7963 8.86667 89.583 9.08C89.383 9.28 89.1296 9.38 88.823 9.38H84.203C84.083 9.38 84.023 9.44 84.023 9.56V13.56C84.023 13.68 84.083 13.74 84.203 13.74H89.163C89.4696 13.74 89.7363 13.8533 89.963 14.08C90.1896 14.2933 90.303 14.5533 90.303 14.86C90.303 15.1667 90.1896 15.4333 89.963 15.66C89.7363 15.8867 89.4696 16 89.163 16H82.363ZM98.9389 3.5C96.3922 3.5 95.1189 5.23333 95.1189 8.7C95.1189 12.1667 96.3922 13.9 98.9389 13.9C101.472 13.9 102.739 12.1667 102.739 8.7C102.739 5.23333 101.472 3.5 98.9389 3.5ZM98.9389 16.2C96.8856 16.2 95.2589 15.54 94.0589 14.22C92.8589 12.9 92.2589 11.06 92.2589 8.7C92.2589 6.34 92.8589 4.5 94.0589 3.18C95.2589 1.86 96.8856 1.2 98.9389 1.2C100.992 1.2 102.612 1.86 103.799 3.18C104.999 4.5 105.599 6.34 105.599 8.7C105.599 11.6067 104.619 13.72 102.659 15.04C102.646 15.04 102.639 15.0467 102.639 15.06C102.639 15.0867 102.646 15.1 102.659 15.1C104.152 15.6867 105.432 16.6667 106.499 18.04C106.646 18.24 106.659 18.4467 106.539 18.66C106.432 18.8867 106.252 19 105.999 19H105.139C104.419 19 103.832 18.68 103.379 18.04C102.846 17.2933 102.279 16.8 101.679 16.56C101.079 16.32 100.166 16.2 98.9389 16.2ZM5.425 23.6V29.025C5.425 29.1583 5.5 29.225 5.65 29.225H6.9C9.86667 29.225 11.35 28.1667 11.35 26.05C11.35 24.1667 9.975 23.225 7.225 23.225C6.725 23.225 6.2 23.2667 5.65 23.35C5.5 23.3833 5.425 23.4667 5.425 23.6ZM3.4 39C3.01667 39 2.68333 38.8583 2.4 38.575C2.11667 38.2917 1.975 37.9583 1.975 37.575V22.3C1.975 21.9 2.10833 21.5417 2.375 21.225C2.64167 20.9083 2.975 20.7333 3.375 20.7C4.79167 20.5667 6.15833 20.5 7.475 20.5C9.925 20.5 11.7583 20.9583 12.975 21.875C14.1917 22.775 14.8 24.05 14.8 25.7C14.8 26.8833 14.475 27.925 13.825 28.825C13.1917 29.725 12.3333 30.3583 11.25 30.725C11.2333 30.725 11.225 30.7333 11.225 30.75C11.225 30.7833 11.2333 30.8 11.25 30.8C12.05 31.3 12.7333 32.2833 13.3 33.75L14.8 37.675C14.9167 37.9917 14.875 38.2917 14.675 38.575C14.4917 38.8583 14.2333 39 13.9 39H13.125C12.6917 39 12.3 38.8833 11.95 38.65C11.6 38.4 11.35 38.075 11.2 37.675L9.8 33.825C9.5 33.025 9.15833 32.5 8.775 32.25C8.39167 32 7.73333 31.875 6.8 31.875H5.65C5.5 31.875 5.425 31.95 5.425 32.1V37.575C5.425 37.9583 5.28333 38.2917 5 38.575C4.73333 38.8583 4.40833 39 4.025 39H3.4ZM24.4389 23.85L22.2389 31.7C22.2222 31.75 22.2305 31.8 22.2639 31.85C22.2972 31.9 22.3389 31.925 22.3889 31.925H26.5389C26.5889 31.925 26.6305 31.9 26.6639 31.85C26.6972 31.8 26.7055 31.75 26.6889 31.7L24.4889 23.85C24.4889 23.8333 24.4805 23.825 24.4639 23.825C24.4472 23.825 24.4389 23.8333 24.4389 23.85ZM17.9639 39C17.6139 39 17.3389 38.8583 17.1389 38.575C16.9389 38.2917 16.8972 37.9833 17.0139 37.65L22.1889 22.1C22.3389 21.7 22.5805 21.375 22.9139 21.125C23.2639 20.875 23.6472 20.75 24.0639 20.75H24.9639C25.3972 20.75 25.7805 20.875 26.1139 21.125C26.4639 21.375 26.7055 21.7 26.8389 22.1L32.0139 37.65C32.1305 37.9833 32.0889 38.2917 31.8889 38.575C31.6889 38.8583 31.4139 39 31.0639 39H30.1639C29.7639 39 29.3889 38.875 29.0389 38.625C28.7055 38.3583 28.4805 38.025 28.3639 37.625L27.5639 34.8C27.5472 34.6667 27.4555 34.6 27.2889 34.6H21.6389C21.4889 34.6 21.3972 34.6667 21.3639 34.8L20.5639 37.625C20.4639 38.025 20.2389 38.3583 19.8889 38.625C19.5555 38.875 19.1805 39 18.7639 39H17.9639ZM35.9969 39C35.6135 39 35.2802 38.8583 34.9969 38.575C34.7302 38.2917 34.5969 37.9583 34.5969 37.575V22.175C34.5969 21.7917 34.7302 21.4583 34.9969 21.175C35.2802 20.8917 35.6135 20.75 35.9969 20.75H36.6719C37.0552 20.75 37.3885 20.8917 37.6719 21.175C37.9552 21.4583 38.0969 21.7917 38.0969 22.175V27.85C38.0969 27.9833 38.1635 28.05 38.2969 28.05H44.5469C44.6802 28.05 44.7469 27.9833 44.7469 27.85V22.175C44.7469 21.7917 44.8885 21.4583 45.1719 21.175C45.4552 20.8917 45.7885 20.75 46.1719 20.75H46.8469C47.2302 20.75 47.5552 20.8917 47.8219 21.175C48.1052 21.4583 48.2469 21.7917 48.2469 22.175V37.575C48.2469 37.9583 48.1052 38.2917 47.8219 38.575C47.5552 38.8583 47.2302 39 46.8469 39H46.1719C45.7885 39 45.4552 38.8583 45.1719 38.575C44.8885 38.2917 44.7469 37.9583 44.7469 37.575V30.95C44.7469 30.8 44.6802 30.725 44.5469 30.725H38.2969C38.1635 30.725 38.0969 30.8 38.0969 30.95V37.575C38.0969 37.9583 37.9552 38.2917 37.6719 38.575C37.3885 38.8583 37.0552 39 36.6719 39H35.9969ZM53.7244 39C53.3411 39 53.0077 38.8583 52.7244 38.575C52.4411 38.2917 52.2994 37.9583 52.2994 37.575V22.175C52.2994 21.7917 52.4411 21.4583 52.7244 21.175C53.0077 20.8917 53.3411 20.75 53.7244 20.75H54.3494C54.7827 20.75 55.1827 20.8667 55.5494 21.1C55.9161 21.3333 56.1827 21.6417 56.3494 22.025L60.7244 31.475C60.7244 31.4917 60.7327 31.5 60.7494 31.5C60.7661 31.5 60.7744 31.4917 60.7744 31.475L65.1494 22.025C65.3161 21.6417 65.5827 21.3333 65.9494 21.1C66.3161 20.8667 66.7161 20.75 67.1494 20.75H67.8744C68.2577 20.75 68.5911 20.8917 68.8744 21.175C69.1577 21.4583 69.2994 21.7917 69.2994 22.175V37.575C69.2994 37.9583 69.1577 38.2917 68.8744 38.575C68.5911 38.8583 68.2577 39 67.8744 39H67.3244C66.9411 39 66.6077 38.8583 66.3244 38.575C66.0411 38.2917 65.8994 37.9583 65.8994 37.575V26.7C65.8994 26.6833 65.8911 26.675 65.8744 26.675C65.8577 26.675 65.8494 26.6833 65.8494 26.7L62.8494 33.125C62.6661 33.5083 62.3827 33.825 61.9994 34.075C61.6327 34.3083 61.2411 34.425 60.8244 34.425H60.6744C60.2577 34.425 59.8577 34.3083 59.4744 34.075C59.1077 33.825 58.8327 33.5083 58.6494 33.125L55.6494 26.7C55.6494 26.6833 55.6411 26.675 55.6244 26.675C55.6077 26.675 55.5994 26.6833 55.5994 26.7V37.575C55.5994 37.9583 55.4577 38.2917 55.1744 38.575C54.8911 38.8583 54.5577 39 54.1744 39H53.7244ZM79.6217 23.85L77.4217 31.7C77.405 31.75 77.4133 31.8 77.4467 31.85C77.48 31.9 77.5217 31.925 77.5717 31.925H81.7217C81.7717 31.925 81.8133 31.9 81.8467 31.85C81.88 31.8 81.8883 31.75 81.8717 31.7L79.6717 23.85C79.6717 23.8333 79.6633 23.825 79.6467 23.825C79.63 23.825 79.6217 23.8333 79.6217 23.85ZM73.1467 39C72.7967 39 72.5217 38.8583 72.3217 38.575C72.1217 38.2917 72.08 37.9833 72.1967 37.65L77.3717 22.1C77.5217 21.7 77.7633 21.375 78.0967 21.125C78.4467 20.875 78.83 20.75 79.2467 20.75H80.1467C80.58 20.75 80.9633 20.875 81.2967 21.125C81.6467 21.375 81.8883 21.7 82.0217 22.1L87.1967 37.65C87.3133 37.9833 87.2717 38.2917 87.0717 38.575C86.8717 38.8583 86.5967 39 86.2467 39H85.3467C84.9467 39 84.5717 38.875 84.2217 38.625C83.8883 38.3583 83.6633 38.025 83.5467 37.625L82.7467 34.8C82.73 34.6667 82.6383 34.6 82.4717 34.6H76.8217C76.6717 34.6 76.58 34.6667 76.5467 34.8L75.7467 37.625C75.6467 38.025 75.4217 38.3583 75.0717 38.625C74.7383 38.875 74.3633 39 73.9467 39H73.1467ZM91.1797 39C90.7964 39 90.463 38.8583 90.1797 38.575C89.913 38.2917 89.7797 37.9583 89.7797 37.575V22.175C89.7797 21.7917 89.913 21.4583 90.1797 21.175C90.463 20.8917 90.7964 20.75 91.1797 20.75H91.7297C92.6797 20.75 93.3797 21.1667 93.8297 22L100.005 33.15C100.005 33.1667 100.013 33.175 100.03 33.175C100.046 33.175 100.055 33.1667 100.055 33.15V22.175C100.055 21.7917 100.196 21.4583 100.48 21.175C100.763 20.8917 101.096 20.75 101.48 20.75H102.03C102.413 20.75 102.738 20.8917 103.005 21.175C103.288 21.4583 103.43 21.7917 103.43 22.175V37.575C103.43 37.9583 103.288 38.2917 103.005 38.575C102.738 38.8583 102.413 39 102.03 39H101.48C100.53 39 99.8297 38.5833 99.3797 37.75L93.2047 26.6C93.2047 26.5833 93.1964 26.575 93.1797 26.575C93.163 26.575 93.1547 26.5833 93.1547 26.6V37.575C93.1547 37.9583 93.013 38.2917 92.7297 38.575C92.4464 38.8583 92.113 39 91.7297 39H91.1797Z"/>
</mask>
<path d="M2.22 3.72C1.91333 3.72 1.64667 3.61333 1.42 3.4C1.19333 3.17333 1.08 2.90667 1.08 2.6V2.54C1.08 2.23333 1.19333 1.96667 1.42 1.74C1.64667 1.51333 1.91333 1.4 2.22 1.4H10.74C11.0467 1.4 11.3133 1.51333 11.54 1.74C11.7667 1.96667 11.88 2.23333 11.88 2.54V2.6C11.88 2.90667 11.7667 3.17333 11.54 3.4C11.3133 3.61333 11.0467 3.72 10.74 3.72H8.06C7.95333 3.72 7.9 3.78 7.9 3.9V14.86C7.9 15.1667 7.78667 15.4333 7.56 15.66C7.33333 15.8867 7.06667 16 6.76 16H6.2C5.89333 16 5.62667 15.8867 5.4 15.66C5.17333 15.4333 5.06 15.1667 5.06 14.86V3.9C5.06 3.78 5.00667 3.72 4.9 3.72H2.22ZM15.7688 16C15.4621 16 15.1954 15.8867 14.9688 15.66C14.7554 15.4333 14.6488 15.1667 14.6488 14.86V2.54C14.6488 2.23333 14.7554 1.96667 14.9688 1.74C15.1954 1.51333 15.4621 1.4 15.7688 1.4H16.3088C16.6154 1.4 16.8821 1.51333 17.1088 1.74C17.3354 1.96667 17.4488 2.23333 17.4488 2.54V7.08C17.4488 7.18667 17.5021 7.24 17.6088 7.24H22.6088C22.7154 7.24 22.7688 7.18667 22.7688 7.08V2.54C22.7688 2.23333 22.8821 1.96667 23.1088 1.74C23.3354 1.51333 23.6021 1.4 23.9088 1.4H24.4488C24.7554 1.4 25.0154 1.51333 25.2288 1.74C25.4554 1.96667 25.5688 2.23333 25.5688 2.54V14.86C25.5688 15.1667 25.4554 15.4333 25.2288 15.66C25.0154 15.8867 24.7554 16 24.4488 16H23.9088C23.6021 16 23.3354 15.8867 23.1088 15.66C22.8821 15.4333 22.7688 15.1667 22.7688 14.86V9.56C22.7688 9.44 22.7154 9.38 22.6088 9.38H17.6088C17.5021 9.38 17.4488 9.44 17.4488 9.56V14.86C17.4488 15.1667 17.3354 15.4333 17.1088 15.66C16.8821 15.8867 16.6154 16 16.3088 16H15.7688ZM38.3908 8.7C38.3908 5.23333 37.1241 3.5 34.5908 3.5C32.0574 3.5 30.7908 5.23333 30.7908 8.7C30.7908 12.1667 32.0574 13.9 34.5908 13.9C37.1241 13.9 38.3908 12.1667 38.3908 8.7ZM39.4508 14.22C38.2641 15.54 36.6441 16.2 34.5908 16.2C32.5374 16.2 30.9108 15.54 29.7108 14.22C28.5241 12.9 27.9308 11.06 27.9308 8.7C27.9308 6.34 28.5241 4.5 29.7108 3.18C30.9108 1.86 32.5374 1.2 34.5908 1.2C36.6441 1.2 38.2641 1.86 39.4508 3.18C40.6508 4.5 41.2508 6.34 41.2508 8.7C41.2508 11.06 40.6508 12.9 39.4508 14.22ZM54.2183 10.8C54.2183 14.4 52.4183 16.2 48.8183 16.2C45.2183 16.2 43.4183 14.4 43.4183 10.8V2.54C43.4183 2.23333 43.5316 1.96667 43.7583 1.74C43.9849 1.51333 44.2516 1.4 44.5583 1.4H45.1183C45.4249 1.4 45.6916 1.51333 45.9183 1.74C46.1449 1.96667 46.2583 2.23333 46.2583 2.54V10.96C46.2583 12 46.4649 12.7533 46.8783 13.22C47.3049 13.6733 47.9649 13.9 48.8583 13.9C49.7516 13.9 50.4049 13.6733 50.8183 13.22C51.2449 12.7533 51.4583 12 51.4583 10.96V2.54C51.4583 2.23333 51.5716 1.96667 51.7983 1.74C52.0249 1.51333 52.2916 1.4 52.5983 1.4H53.0783C53.3849 1.4 53.6516 1.51333 53.8783 1.74C54.1049 1.96667 54.2183 2.23333 54.2183 2.54V10.8ZM58.393 16C58.0863 16 57.8196 15.8867 57.593 15.66C57.3796 15.4333 57.273 15.1667 57.273 14.86V2.54C57.273 2.23333 57.3796 1.96667 57.593 1.74C57.8196 1.51333 58.0863 1.4 58.393 1.4H64.993C65.2996 1.4 65.5663 1.51333 65.793 1.74C66.0196 1.96667 66.133 2.23333 66.133 2.54C66.133 2.84667 66.0196 3.11333 65.793 3.34C65.5663 3.55333 65.2996 3.66 64.993 3.66H60.233C60.1263 3.66 60.073 3.72 60.073 3.84V7.34C60.073 7.44667 60.1263 7.5 60.233 7.5H64.653C64.9463 7.5 65.1996 7.60667 65.413 7.82C65.6263 8.02 65.733 8.27333 65.733 8.58C65.733 8.88667 65.6263 9.14667 65.413 9.36C65.1996 9.56 64.9463 9.66 64.653 9.66H60.233C60.1263 9.66 60.073 9.71333 60.073 9.82V14.86C60.073 15.1667 59.9596 15.4333 59.733 15.66C59.5063 15.8867 59.2396 16 58.933 16H58.393ZM70.2317 16C69.9251 16 69.6584 15.8867 69.4317 15.66C69.2051 15.4333 69.0917 15.1667 69.0917 14.86V2.54C69.0917 2.23333 69.2051 1.96667 69.4317 1.74C69.6584 1.51333 69.9251 1.4 70.2317 1.4H77.0317C77.3384 1.4 77.6051 1.51333 77.8317 1.74C78.0584 1.96667 78.1717 2.23333 78.1717 2.54C78.1717 2.84667 78.0584 3.11333 77.8317 3.34C77.6051 3.55333 77.3384 3.66 77.0317 3.66H72.0717C71.9517 3.66 71.8917 3.72 71.8917 3.84V7.06C71.8917 7.18 71.9517 7.24 72.0717 7.24H76.6917C76.9984 7.24 77.2517 7.34667 77.4517 7.56C77.6651 7.77333 77.7717 8.02667 77.7717 8.32C77.7717 8.61333 77.6651 8.86667 77.4517 9.08C77.2517 9.28 76.9984 9.38 76.6917 9.38H72.0717C71.9517 9.38 71.8917 9.44 71.8917 9.56V13.56C71.8917 13.68 71.9517 13.74 72.0717 13.74H77.0317C77.3384 13.74 77.6051 13.8533 77.8317 14.08C78.0584 14.2933 78.1717 14.5533 78.1717 14.86C78.1717 15.1667 78.0584 15.4333 77.8317 15.66C77.6051 15.8867 77.3384 16 77.0317 16H70.2317ZM82.363 16C82.0563 16 81.7896 15.8867 81.563 15.66C81.3363 15.4333 81.223 15.1667 81.223 14.86V2.54C81.223 2.23333 81.3363 1.96667 81.563 1.74C81.7896 1.51333 82.0563 1.4 82.363 1.4H89.163C89.4696 1.4 89.7363 1.51333 89.963 1.74C90.1896 1.96667 90.303 2.23333 90.303 2.54C90.303 2.84667 90.1896 3.11333 89.963 3.34C89.7363 3.55333 89.4696 3.66 89.163 3.66H84.203C84.083 3.66 84.023 3.72 84.023 3.84V7.06C84.023 7.18 84.083 7.24 84.203 7.24H88.823C89.1296 7.24 89.383 7.34667 89.583 7.56C89.7963 7.77333 89.903 8.02667 89.903 8.32C89.903 8.61333 89.7963 8.86667 89.583 9.08C89.383 9.28 89.1296 9.38 88.823 9.38H84.203C84.083 9.38 84.023 9.44 84.023 9.56V13.56C84.023 13.68 84.083 13.74 84.203 13.74H89.163C89.4696 13.74 89.7363 13.8533 89.963 14.08C90.1896 14.2933 90.303 14.5533 90.303 14.86C90.303 15.1667 90.1896 15.4333 89.963 15.66C89.7363 15.8867 89.4696 16 89.163 16H82.363ZM98.9389 3.5C96.3922 3.5 95.1189 5.23333 95.1189 8.7C95.1189 12.1667 96.3922 13.9 98.9389 13.9C101.472 13.9 102.739 12.1667 102.739 8.7C102.739 5.23333 101.472 3.5 98.9389 3.5ZM98.9389 16.2C96.8856 16.2 95.2589 15.54 94.0589 14.22C92.8589 12.9 92.2589 11.06 92.2589 8.7C92.2589 6.34 92.8589 4.5 94.0589 3.18C95.2589 1.86 96.8856 1.2 98.9389 1.2C100.992 1.2 102.612 1.86 103.799 3.18C104.999 4.5 105.599 6.34 105.599 8.7C105.599 11.6067 104.619 13.72 102.659 15.04C102.646 15.04 102.639 15.0467 102.639 15.06C102.639 15.0867 102.646 15.1 102.659 15.1C104.152 15.6867 105.432 16.6667 106.499 18.04C106.646 18.24 106.659 18.4467 106.539 18.66C106.432 18.8867 106.252 19 105.999 19H105.139C104.419 19 103.832 18.68 103.379 18.04C102.846 17.2933 102.279 16.8 101.679 16.56C101.079 16.32 100.166 16.2 98.9389 16.2ZM5.425 23.6V29.025C5.425 29.1583 5.5 29.225 5.65 29.225H6.9C9.86667 29.225 11.35 28.1667 11.35 26.05C11.35 24.1667 9.975 23.225 7.225 23.225C6.725 23.225 6.2 23.2667 5.65 23.35C5.5 23.3833 5.425 23.4667 5.425 23.6ZM3.4 39C3.01667 39 2.68333 38.8583 2.4 38.575C2.11667 38.2917 1.975 37.9583 1.975 37.575V22.3C1.975 21.9 2.10833 21.5417 2.375 21.225C2.64167 20.9083 2.975 20.7333 3.375 20.7C4.79167 20.5667 6.15833 20.5 7.475 20.5C9.925 20.5 11.7583 20.9583 12.975 21.875C14.1917 22.775 14.8 24.05 14.8 25.7C14.8 26.8833 14.475 27.925 13.825 28.825C13.1917 29.725 12.3333 30.3583 11.25 30.725C11.2333 30.725 11.225 30.7333 11.225 30.75C11.225 30.7833 11.2333 30.8 11.25 30.8C12.05 31.3 12.7333 32.2833 13.3 33.75L14.8 37.675C14.9167 37.9917 14.875 38.2917 14.675 38.575C14.4917 38.8583 14.2333 39 13.9 39H13.125C12.6917 39 12.3 38.8833 11.95 38.65C11.6 38.4 11.35 38.075 11.2 37.675L9.8 33.825C9.5 33.025 9.15833 32.5 8.775 32.25C8.39167 32 7.73333 31.875 6.8 31.875H5.65C5.5 31.875 5.425 31.95 5.425 32.1V37.575C5.425 37.9583 5.28333 38.2917 5 38.575C4.73333 38.8583 4.40833 39 4.025 39H3.4ZM24.4389 23.85L22.2389 31.7C22.2222 31.75 22.2305 31.8 22.2639 31.85C22.2972 31.9 22.3389 31.925 22.3889 31.925H26.5389C26.5889 31.925 26.6305 31.9 26.6639 31.85C26.6972 31.8 26.7055 31.75 26.6889 31.7L24.4889 23.85C24.4889 23.8333 24.4805 23.825 24.4639 23.825C24.4472 23.825 24.4389 23.8333 24.4389 23.85ZM17.9639 39C17.6139 39 17.3389 38.8583 17.1389 38.575C16.9389 38.2917 16.8972 37.9833 17.0139 37.65L22.1889 22.1C22.3389 21.7 22.5805 21.375 22.9139 21.125C23.2639 20.875 23.6472 20.75 24.0639 20.75H24.9639C25.3972 20.75 25.7805 20.875 26.1139 21.125C26.4639 21.375 26.7055 21.7 26.8389 22.1L32.0139 37.65C32.1305 37.9833 32.0889 38.2917 31.8889 38.575C31.6889 38.8583 31.4139 39 31.0639 39H30.1639C29.7639 39 29.3889 38.875 29.0389 38.625C28.7055 38.3583 28.4805 38.025 28.3639 37.625L27.5639 34.8C27.5472 34.6667 27.4555 34.6 27.2889 34.6H21.6389C21.4889 34.6 21.3972 34.6667 21.3639 34.8L20.5639 37.625C20.4639 38.025 20.2389 38.3583 19.8889 38.625C19.5555 38.875 19.1805 39 18.7639 39H17.9639ZM35.9969 39C35.6135 39 35.2802 38.8583 34.9969 38.575C34.7302 38.2917 34.5969 37.9583 34.5969 37.575V22.175C34.5969 21.7917 34.7302 21.4583 34.9969 21.175C35.2802 20.8917 35.6135 20.75 35.9969 20.75H36.6719C37.0552 20.75 37.3885 20.8917 37.6719 21.175C37.9552 21.4583 38.0969 21.7917 38.0969 22.175V27.85C38.0969 27.9833 38.1635 28.05 38.2969 28.05H44.5469C44.6802 28.05 44.7469 27.9833 44.7469 27.85V22.175C44.7469 21.7917 44.8885 21.4583 45.1719 21.175C45.4552 20.8917 45.7885 20.75 46.1719 20.75H46.8469C47.2302 20.75 47.5552 20.8917 47.8219 21.175C48.1052 21.4583 48.2469 21.7917 48.2469 22.175V37.575C48.2469 37.9583 48.1052 38.2917 47.8219 38.575C47.5552 38.8583 47.2302 39 46.8469 39H46.1719C45.7885 39 45.4552 38.8583 45.1719 38.575C44.8885 38.2917 44.7469 37.9583 44.7469 37.575V30.95C44.7469 30.8 44.6802 30.725 44.5469 30.725H38.2969C38.1635 30.725 38.0969 30.8 38.0969 30.95V37.575C38.0969 37.9583 37.9552 38.2917 37.6719 38.575C37.3885 38.8583 37.0552 39 36.6719 39H35.9969ZM53.7244 39C53.3411 39 53.0077 38.8583 52.7244 38.575C52.4411 38.2917 52.2994 37.9583 52.2994 37.575V22.175C52.2994 21.7917 52.4411 21.4583 52.7244 21.175C53.0077 20.8917 53.3411 20.75 53.7244 20.75H54.3494C54.7827 20.75 55.1827 20.8667 55.5494 21.1C55.9161 21.3333 56.1827 21.6417 56.3494 22.025L60.7244 31.475C60.7244 31.4917 60.7327 31.5 60.7494 31.5C60.7661 31.5 60.7744 31.4917 60.7744 31.475L65.1494 22.025C65.3161 21.6417 65.5827 21.3333 65.9494 21.1C66.3161 20.8667 66.7161 20.75 67.1494 20.75H67.8744C68.2577 20.75 68.5911 20.8917 68.8744 21.175C69.1577 21.4583 69.2994 21.7917 69.2994 22.175V37.575C69.2994 37.9583 69.1577 38.2917 68.8744 38.575C68.5911 38.8583 68.2577 39 67.8744 39H67.3244C66.9411 39 66.6077 38.8583 66.3244 38.575C66.0411 38.2917 65.8994 37.9583 65.8994 37.575V26.7C65.8994 26.6833 65.8911 26.675 65.8744 26.675C65.8577 26.675 65.8494 26.6833 65.8494 26.7L62.8494 33.125C62.6661 33.5083 62.3827 33.825 61.9994 34.075C61.6327 34.3083 61.2411 34.425 60.8244 34.425H60.6744C60.2577 34.425 59.8577 34.3083 59.4744 34.075C59.1077 33.825 58.8327 33.5083 58.6494 33.125L55.6494 26.7C55.6494 26.6833 55.6411 26.675 55.6244 26.675C55.6077 26.675 55.5994 26.6833 55.5994 26.7V37.575C55.5994 37.9583 55.4577 38.2917 55.1744 38.575C54.8911 38.8583 54.5577 39 54.1744 39H53.7244ZM79.6217 23.85L77.4217 31.7C77.405 31.75 77.4133 31.8 77.4467 31.85C77.48 31.9 77.5217 31.925 77.5717 31.925H81.7217C81.7717 31.925 81.8133 31.9 81.8467 31.85C81.88 31.8 81.8883 31.75 81.8717 31.7L79.6717 23.85C79.6717 23.8333 79.6633 23.825 79.6467 23.825C79.63 23.825 79.6217 23.8333 79.6217 23.85ZM73.1467 39C72.7967 39 72.5217 38.8583 72.3217 38.575C72.1217 38.2917 72.08 37.9833 72.1967 37.65L77.3717 22.1C77.5217 21.7 77.7633 21.375 78.0967 21.125C78.4467 20.875 78.83 20.75 79.2467 20.75H80.1467C80.58 20.75 80.9633 20.875 81.2967 21.125C81.6467 21.375 81.8883 21.7 82.0217 22.1L87.1967 37.65C87.3133 37.9833 87.2717 38.2917 87.0717 38.575C86.8717 38.8583 86.5967 39 86.2467 39H85.3467C84.9467 39 84.5717 38.875 84.2217 38.625C83.8883 38.3583 83.6633 38.025 83.5467 37.625L82.7467 34.8C82.73 34.6667 82.6383 34.6 82.4717 34.6H76.8217C76.6717 34.6 76.58 34.6667 76.5467 34.8L75.7467 37.625C75.6467 38.025 75.4217 38.3583 75.0717 38.625C74.7383 38.875 74.3633 39 73.9467 39H73.1467ZM91.1797 39C90.7964 39 90.463 38.8583 90.1797 38.575C89.913 38.2917 89.7797 37.9583 89.7797 37.575V22.175C89.7797 21.7917 89.913 21.4583 90.1797 21.175C90.463 20.8917 90.7964 20.75 91.1797 20.75H91.7297C92.6797 20.75 93.3797 21.1667 93.8297 22L100.005 33.15C100.005 33.1667 100.013 33.175 100.03 33.175C100.046 33.175 100.055 33.1667 100.055 33.15V22.175C100.055 21.7917 100.196 21.4583 100.48 21.175C100.763 20.8917 101.096 20.75 101.48 20.75H102.03C102.413 20.75 102.738 20.8917 103.005 21.175C103.288 21.4583 103.43 21.7917 103.43 22.175V37.575C103.43 37.9583 103.288 38.2917 103.005 38.575C102.738 38.8583 102.413 39 102.03 39H101.48C100.53 39 99.8297 38.5833 99.3797 37.75L93.2047 26.6C93.2047 26.5833 93.1964 26.575 93.1797 26.575C93.163 26.575 93.1547 26.5833 93.1547 26.6V37.575C93.1547 37.9583 93.013 38.2917 92.7297 38.575C92.4464 38.8583 92.113 39 91.7297 39H91.1797Z" fill="black"/>
<path d="M1.42 3.4L0.712894 4.10711L0.723605 4.11782L0.734635 4.1282L1.42 3.4ZM1.42 1.74L0.712894 1.03289L0.712893 1.03289L1.42 1.74ZM11.54 1.74L12.2471 1.03289L12.2471 1.03289L11.54 1.74ZM11.54 3.4L12.2254 4.1282L12.2364 4.11782L12.2471 4.10711L11.54 3.4ZM2.22 2.72C2.17229 2.72 2.14963 2.71346 2.10537 2.6718L0.734635 4.1282C1.1437 4.5132 1.65438 4.72 2.22 4.72V2.72ZM2.12711 2.69289C2.0948 2.66059 2.08676 2.64223 2.08533 2.63886C2.08427 2.63636 2.08 2.6269 2.08 2.6H0.08C0.08 3.18497 0.308153 3.70237 0.712894 4.10711L2.12711 2.69289ZM2.08 2.6V2.54H0.08V2.6H2.08ZM2.08 2.54C2.08 2.5131 2.08427 2.50364 2.08533 2.50114C2.08677 2.49777 2.0948 2.47941 2.12711 2.44711L0.712893 1.03289C0.308153 1.43763 0.08 1.95503 0.08 2.54H2.08ZM2.12711 2.44711C2.15941 2.4148 2.17777 2.40676 2.18114 2.40533C2.18364 2.40427 2.1931 2.4 2.22 2.4V0.4C1.63503 0.4 1.11763 0.628152 0.712894 1.03289L2.12711 2.44711ZM2.22 2.4H10.74V0.4H2.22V2.4ZM10.74 2.4C10.7669 2.4 10.7764 2.40427 10.7789 2.40533C10.7822 2.40676 10.8006 2.4148 10.8329 2.44711L12.2471 1.03289C11.8424 0.628152 11.325 0.4 10.74 0.4V2.4ZM10.8329 2.44711C10.8652 2.47941 10.8732 2.49777 10.8747 2.50114C10.8757 2.50364 10.88 2.5131 10.88 2.54H12.88C12.88 1.95503 12.6518 1.43763 12.2471 1.03289L10.8329 2.44711ZM10.88 2.54V2.6H12.88V2.54H10.88ZM10.88 2.6C10.88 2.6269 10.8757 2.63636 10.8747 2.63886C10.8732 2.64223 10.8652 2.66059 10.8329 2.69289L12.2471 4.10711C12.6518 3.70237 12.88 3.18497 12.88 2.6H10.88ZM10.8546 2.6718C10.8104 2.71346 10.7877 2.72 10.74 2.72V4.72C11.3056 4.72 11.8163 4.5132 12.2254 4.1282L10.8546 2.6718ZM10.74 2.72H8.06V4.72H10.74V2.72ZM8.06 2.72C7.82002 2.72 7.46613 2.79291 7.19259 3.10064C6.93901 3.38592 6.9 3.71297 6.9 3.9H8.9C8.9 3.96703 8.88766 4.20408 8.68741 4.42936C8.46721 4.67709 8.19332 4.72 8.06 4.72V2.72ZM6.9 3.9V14.86H8.9V3.9H6.9ZM6.9 14.86C6.9 14.8869 6.89573 14.8964 6.89467 14.8989C6.89324 14.9022 6.8852 14.9206 6.85289 14.9529L8.26711 16.3671C8.67185 15.9624 8.9 15.445 8.9 14.86H6.9ZM6.85289 14.9529C6.82059 14.9852 6.80223 14.9932 6.79886 14.9947C6.79636 14.9957 6.7869 15 6.76 15V17C7.34497 17 7.86237 16.7718 8.26711 16.3671L6.85289 14.9529ZM6.76 15H6.2V17H6.76V15ZM6.2 15C6.1731 15 6.16364 14.9957 6.16114 14.9947C6.15777 14.9932 6.13941 14.9852 6.10711 14.9529L4.69289 16.3671C5.09763 16.7718 5.61503 17 6.2 17V15ZM6.10711 14.9529C6.0748 14.9206 6.06677 14.9022 6.06533 14.8989C6.06427 14.8964 6.06 14.8869 6.06 14.86H4.06C4.06 15.445 4.28815 15.9624 4.69289 16.3671L6.10711 14.9529ZM6.06 14.86V3.9H4.06V14.86H6.06ZM6.06 3.9C6.06 3.71297 6.02099 3.38592 5.76741 3.10064C5.49387 2.79291 5.13998 2.72 4.9 2.72V4.72C4.76668 4.72 4.49279 4.67709 4.27259 4.42936C4.07234 4.20408 4.06 3.96703 4.06 3.9H6.06ZM4.9 2.72H2.22V4.72H4.9V2.72ZM14.9688 15.66L14.2406 16.3454L14.2509 16.3564L14.2616 16.3671L14.9688 15.66ZM14.9688 1.74L14.2616 1.03289L14.2509 1.0436L14.2406 1.05463L14.9688 1.74ZM17.1088 1.74L17.8159 1.03289L17.8159 1.03289L17.1088 1.74ZM23.1088 1.74L22.4016 1.03289L22.4016 1.03289L23.1088 1.74ZM25.2288 1.74L24.5006 2.42537L24.5109 2.43639L24.5216 2.4471L25.2288 1.74ZM25.2288 15.66L24.5216 14.9529L24.5109 14.9636L24.5006 14.9746L25.2288 15.66ZM15.7688 15C15.7419 15 15.7324 14.9957 15.7299 14.9947C15.7265 14.9932 15.7082 14.9852 15.6759 14.9529L14.2616 16.3671C14.6664 16.7718 15.1838 17 15.7688 17V15ZM15.697 14.9746C15.6553 14.9304 15.6488 14.9077 15.6488 14.86H13.6488C13.6488 15.4256 13.8555 15.9363 14.2406 16.3454L15.697 14.9746ZM15.6488 14.86V2.54H13.6488V14.86H15.6488ZM15.6488 2.54C15.6488 2.49229 15.6553 2.46963 15.697 2.42536L14.2406 1.05463C13.8555 1.4637 13.6488 1.97438 13.6488 2.54H15.6488ZM15.6759 2.44711C15.7082 2.4148 15.7265 2.40676 15.7299 2.40533C15.7324 2.40427 15.7419 2.4 15.7688 2.4V0.4C15.1838 0.4 14.6664 0.628152 14.2616 1.03289L15.6759 2.44711ZM15.7688 2.4H16.3088V0.4H15.7688V2.4ZM16.3088 2.4C16.3356 2.4 16.3451 2.40427 16.3476 2.40533C16.351 2.40676 16.3693 2.4148 16.4016 2.44711L17.8159 1.03289C17.4111 0.628152 16.8937 0.4 16.3088 0.4V2.4ZM16.4016 2.44711C16.4339 2.47941 16.442 2.49777 16.4434 2.50114C16.4445 2.50364 16.4488 2.5131 16.4488 2.54H18.4488C18.4488 1.95503 18.2206 1.43763 17.8159 1.03289L16.4016 2.44711ZM16.4488 2.54V7.08H18.4488V2.54H16.4488ZM16.4488 7.08C16.4488 7.28748 16.5013 7.62676 16.7816 7.90711C17.062 8.18745 17.4013 8.24 17.6088 8.24V6.24C17.7096 6.24 17.9688 6.26588 18.1959 6.49289C18.4229 6.71991 18.4488 6.97919 18.4488 7.08H16.4488ZM17.6088 8.24H22.6088V6.24H17.6088V8.24ZM22.6088 8.24C22.8162 8.24 23.1555 8.18745 23.4359 7.90711C23.7162 7.62676 23.7688 7.28748 23.7688 7.08H21.7688C21.7688 6.97919 21.7946 6.71991 22.0216 6.49289C22.2487 6.26588 22.5079 6.24 22.6088 6.24V8.24ZM23.7688 7.08V2.54H21.7688V7.08H23.7688ZM23.7688 2.54C23.7688 2.5131 23.773 2.50364 23.7741 2.50114C23.7755 2.49777 23.7836 2.47941 23.8159 2.44711L22.4016 1.03289C21.9969 1.43763 21.7688 1.95503 21.7688 2.54H23.7688ZM23.8159 2.44711C23.8482 2.4148 23.8665 2.40676 23.8699 2.40533C23.8724 2.40427 23.8819 2.4 23.9088 2.4V0.4C23.3238 0.4 22.8064 0.628152 22.4016 1.03289L23.8159 2.44711ZM23.9088 2.4H24.4488V0.4H23.9088V2.4ZM24.4488 2.4C24.4636 2.4 24.4714 2.40134 24.4739 2.40183C24.4761 2.40228 24.4757 2.40238 24.4742 2.4017C24.4726 2.40102 24.4733 2.40104 24.4766 2.40343C24.4801 2.40597 24.4883 2.41237 24.5006 2.42537L25.9569 1.05463C25.5579 0.630598 25.0358 0.4 24.4488 0.4V2.4ZM24.5216 2.4471C24.5539 2.47941 24.562 2.49776 24.5634 2.50114C24.5645 2.50364 24.5688 2.5131 24.5688 2.54H26.5688C26.5688 1.95503 26.3406 1.43763 25.9359 1.03289L24.5216 2.4471ZM24.5688 2.54V14.86H26.5688V2.54H24.5688ZM24.5688 14.86C24.5688 14.8869 24.5645 14.8964 24.5634 14.8989C24.562 14.9022 24.5539 14.9206 24.5216 14.9529L25.9359 16.3671C26.3406 15.9624 26.5688 15.445 26.5688 14.86H24.5688ZM24.5006 14.9746C24.4883 14.9876 24.4801 14.994 24.4766 14.9966C24.4733 14.999 24.4726 14.999 24.4742 14.9983C24.4757 14.9976 24.4761 14.9977 24.4739 14.9982C24.4714 14.9987 24.4636 15 24.4488 15V17C25.0358 17 25.5579 16.7694 25.957 16.3454L24.5006 14.9746ZM24.4488 15H23.9088V17H24.4488V15ZM23.9088 15C23.8819 15 23.8724 14.9957 23.8699 14.9947C23.8665 14.9932 23.8482 14.9852 23.8159 14.9529L22.4016 16.3671C22.8064 16.7718 23.3238 17 23.9088 17V15ZM23.8159 14.9529C23.7836 14.9206 23.7755 14.9022 23.7741 14.8989C23.773 14.8964 23.7688 14.8869 23.7688 14.86H21.7688C21.7688 15.445 21.9969 15.9624 22.4016 16.3671L23.8159 14.9529ZM23.7688 14.86V9.56H21.7688V14.86H23.7688ZM23.7688 9.56C23.7688 9.37297 23.7297 9.04592 23.4762 8.76064C23.2026 8.45291 22.8487 8.38 22.6088 8.38V10.38C22.4754 10.38 22.2015 10.3371 21.9813 10.0894C21.7811 9.86408 21.7688 9.62703 21.7688 9.56H23.7688ZM22.6088 8.38H17.6088V10.38H22.6088V8.38ZM17.6088 8.38C17.3688 8.38 17.0149 8.45291 16.7413 8.76064C16.4878 9.04592 16.4488 9.37297 16.4488 9.56H18.4488C18.4488 9.62703 18.4364 9.86408 18.2362 10.0894C18.016 10.3371 17.7421 10.38 17.6088 10.38V8.38ZM16.4488 9.56V14.86H18.4488V9.56H16.4488ZM16.4488 14.86C16.4488 14.8869 16.4445 14.8964 16.4434 14.8989C16.442 14.9022 16.4339 14.9206 16.4016 14.9529L17.8159 16.3671C18.2206 15.9624 18.4488 15.445 18.4488 14.86H16.4488ZM16.4016 14.9529C16.3693 14.9852 16.351 14.9932 16.3476 14.9947C16.3451 14.9957 16.3356 15 16.3088 15V17C16.8937 17 17.4111 16.7718 17.8159 16.3671L16.4016 14.9529ZM16.3088 15H15.7688V17H16.3088V15ZM39.4508 14.22L38.7108 13.5473L38.7071 13.5515L39.4508 14.22ZM29.7108 14.22L28.9671 14.8886L28.9708 14.8927L29.7108 14.22ZM29.7108 3.18L28.9708 2.50732L28.9671 2.51145L29.7108 3.18ZM39.4508 3.18L38.7071 3.84856L38.7108 3.85267L39.4508 3.18ZM39.3908 8.7C39.3908 6.87448 39.0626 5.32441 38.2482 4.20998C37.3911 3.03715 36.1113 2.5 34.5908 2.5V4.5C35.6036 4.5 36.2238 4.82951 36.6334 5.39002C37.0857 6.00893 37.3908 7.05885 37.3908 8.7H39.3908ZM34.5908 2.5C33.0702 2.5 31.7905 3.03715 30.9334 4.20998C30.119 5.32441 29.7908 6.87448 29.7908 8.7H31.7908C31.7908 7.05885 32.0959 6.00893 32.5482 5.39002C32.9578 4.82951 33.578 4.5 34.5908 4.5V2.5ZM29.7908 8.7C29.7908 10.5255 30.119 12.0756 30.9334 13.19C31.7905 14.3628 33.0702 14.9 34.5908 14.9V12.9C33.578 12.9 32.9578 12.5705 32.5482 12.01C32.0959 11.3911 31.7908 10.3411 31.7908 8.7H29.7908ZM34.5908 14.9C36.1113 14.9 37.3911 14.3628 38.2482 13.19C39.0626 12.0756 39.3908 10.5255 39.3908 8.7H37.3908C37.3908 10.3411 37.0857 11.3911 36.6334 12.01C36.2238 12.5705 35.6036 12.9 34.5908 12.9V14.9ZM38.7071 13.5515C37.7406 14.6266 36.4094 15.2 34.5908 15.2V17.2C36.8788 17.2 38.7877 16.4534 40.1944 14.8885L38.7071 13.5515ZM34.5908 15.2C32.7723 15.2 31.4318 14.6265 30.4507 13.5473L28.9708 14.8927C30.3897 16.4535 32.3026 17.2 34.5908 17.2V15.2ZM30.4544 13.5515C29.4809 12.4685 28.9308 10.896 28.9308 8.7H26.9308C26.9308 11.224 27.5674 13.3315 28.9671 14.8885L30.4544 13.5515ZM28.9308 8.7C28.9308 6.50403 29.4809 4.93152 30.4544 3.84855L28.9671 2.51145C27.5674 4.06848 26.9308 6.17596 26.9308 8.7H28.9308ZM30.4507 3.85267C31.4318 2.77346 32.7723 2.2 34.5908 2.2V0.2C32.3026 0.2 30.3897 0.946538 28.9708 2.50733L30.4507 3.85267ZM34.5908 2.2C36.4094 2.2 37.7406 2.7734 38.7071 3.84855L40.1944 2.51145C38.7877 0.946603 36.8788 0.2 34.5908 0.2V2.2ZM38.7108 3.85267C39.6955 4.93578 40.2508 6.50672 40.2508 8.7H42.2508C42.2508 6.17328 41.6061 4.06422 40.1907 2.50733L38.7108 3.85267ZM40.2508 8.7C40.2508 10.8933 39.6955 12.4642 38.7108 13.5473L40.1907 14.8927C41.6061 13.3358 42.2508 11.2267 42.2508 8.7H40.2508ZM43.7583 1.74L43.0512 1.03289L43.0512 1.03289L43.7583 1.74ZM45.9183 1.74L46.6254 1.03289L46.6254 1.03289L45.9183 1.74ZM46.8783 13.22L46.1297 13.883L46.1397 13.8944L46.1501 13.9054L46.8783 13.22ZM50.8183 13.22L50.0803 12.5452L50.0793 12.5462L50.8183 13.22ZM51.7983 1.74L52.5054 2.44711L51.7983 1.74ZM53.2183 10.8C53.2183 12.4459 52.8075 13.4966 52.1612 14.1429C51.5149 14.7892 50.4641 15.2 48.8183 15.2V17.2C50.7724 17.2 52.4217 16.7108 53.5754 15.5571C54.7291 14.4034 55.2183 12.7541 55.2183 10.8H53.2183ZM48.8183 15.2C47.1724 15.2 46.1217 14.7892 45.4754 14.1429C44.8291 13.4966 44.4183 12.4459 44.4183 10.8H42.4183C42.4183 12.7541 42.9075 14.4034 44.0612 15.5571C45.2149 16.7108 46.8641 17.2 48.8183 17.2V15.2ZM44.4183 10.8V2.54H42.4183V10.8H44.4183ZM44.4183 2.54C44.4183 2.5131 44.4225 2.50364 44.4236 2.50114C44.425 2.49777 44.4331 2.47941 44.4654 2.44711L43.0512 1.03289C42.6464 1.43763 42.4183 1.95503 42.4183 2.54H44.4183ZM44.4654 2.44711C44.4977 2.4148 44.516 2.40676 44.5194 2.40533C44.5219 2.40427 44.5314 2.4 44.5583 2.4V0.4C43.9733 0.4 43.4559 0.628152 43.0512 1.03289L44.4654 2.44711ZM44.5583 2.4H45.1183V0.4H44.5583V2.4ZM45.1183 2.4C45.1452 2.4 45.1546 2.40427 45.1571 2.40533C45.1605 2.40676 45.1789 2.4148 45.2112 2.44711L46.6254 1.03289C46.2206 0.628152 45.7033 0.4 45.1183 0.4V2.4ZM45.2112 2.44711C45.2435 2.47941 45.2515 2.49777 45.2529 2.50114C45.254 2.50364 45.2583 2.5131 45.2583 2.54H47.2583C47.2583 1.95503 47.0301 1.43763 46.6254 1.03289L45.2112 2.44711ZM45.2583 2.54V10.96H47.2583V2.54H45.2583ZM45.2583 10.96C45.2583 12.0926 45.4762 13.1452 46.1297 13.883L47.6269 12.557C47.4537 12.3615 47.2583 11.9074 47.2583 10.96H45.2583ZM46.1501 13.9054C46.8355 14.6336 47.811 14.9 48.8583 14.9V12.9C48.1189 12.9 47.7744 12.713 47.6065 12.5346L46.1501 13.9054ZM48.8583 14.9C49.9027 14.9 50.8816 14.6348 51.5572 13.8938L50.0793 12.5462C49.9283 12.7119 49.6005 12.9 48.8583 12.9V14.9ZM51.5563 13.8948C52.2314 13.1564 52.4583 12.0986 52.4583 10.96H50.4583C50.4583 11.9014 50.2585 12.3502 50.0803 12.5452L51.5563 13.8948ZM52.4583 10.96V2.54H50.4583V10.96H52.4583ZM52.4583 2.54C52.4583 2.5131 52.4625 2.50364 52.4636 2.50114C52.465 2.49777 52.4731 2.47941 52.5054 2.44711L51.0912 1.03289C50.6864 1.43763 50.4583 1.95503 50.4583 2.54H52.4583ZM52.5054 2.44711C52.5377 2.4148 52.556 2.40676 52.5594 2.40533C52.5619 2.40427 52.5714 2.4 52.5983 2.4V0.4C52.0133 0.4 51.4959 0.628152 51.0912 1.03289L52.5054 2.44711ZM52.5983 2.4H53.0783V0.4H52.5983V2.4ZM53.0783 2.4C53.1052 2.4 53.1146 2.40427 53.1171 2.40533C53.1205 2.40676 53.1389 2.4148 53.1712 2.44711L54.5854 1.03289C54.1806 0.628152 53.6633 0.4 53.0783 0.4V2.4ZM53.1712 2.44711C53.2035 2.47941 53.2115 2.49777 53.213 2.50114C53.214 2.50364 53.2183 2.5131 53.2183 2.54H55.2183C55.2183 1.95503 54.9901 1.43763 54.5854 1.03289L53.1712 2.44711ZM53.2183 2.54V10.8H55.2183V2.54H53.2183ZM57.593 15.66L56.8648 16.3454L56.8752 16.3564L56.8859 16.3671L57.593 15.66ZM57.593 1.74L56.8859 1.03289L56.8752 1.0436L56.8648 1.05463L57.593 1.74ZM65.793 1.74L65.0859 2.44711L65.793 1.74ZM65.793 3.34L66.4783 4.0682L66.4894 4.05782L66.5001 4.04711L65.793 3.34ZM65.413 7.82L64.7059 8.52711L64.7173 8.53851L64.729 8.54954L65.413 7.82ZM65.413 9.36L66.0969 10.0895L66.1087 10.0785L66.1201 10.0671L65.413 9.36ZM58.393 15C58.3661 15 58.3566 14.9957 58.3541 14.9947C58.3507 14.9932 58.3324 14.9852 58.3001 14.9529L56.8859 16.3671C57.2906 16.7718 57.808 17 58.393 17V15ZM58.3212 14.9746C58.2795 14.9304 58.273 14.9077 58.273 14.86H56.273C56.273 15.4256 56.4798 15.9363 56.8648 16.3454L58.3212 14.9746ZM58.273 14.86V2.54H56.273V14.86H58.273ZM58.273 2.54C58.273 2.49229 58.2795 2.46963 58.3212 2.42536L56.8648 1.05463C56.4798 1.4637 56.273 1.97438 56.273 2.54H58.273ZM58.3001 2.44711C58.3324 2.4148 58.3507 2.40676 58.3541 2.40533C58.3566 2.40427 58.3661 2.4 58.393 2.4V0.4C57.808 0.4 57.2906 0.628152 56.8859 1.03289L58.3001 2.44711ZM58.393 2.4H64.993V0.4H58.393V2.4ZM64.993 2.4C65.0199 2.4 65.0293 2.40427 65.0318 2.40533C65.0352 2.40676 65.0536 2.4148 65.0859 2.44711L66.5001 1.03289C66.0953 0.628152 65.5779 0.4 64.993 0.4V2.4ZM65.0859 2.44711C65.1182 2.47941 65.1262 2.49777 65.1276 2.50114C65.1287 2.50364 65.133 2.5131 65.133 2.54H67.133C67.133 1.95503 66.9048 1.43763 66.5001 1.03289L65.0859 2.44711ZM65.133 2.54C65.133 2.5669 65.1287 2.57636 65.1276 2.57886C65.1262 2.58223 65.1182 2.60059 65.0859 2.63289L66.5001 4.04711C66.9048 3.64237 67.133 3.12497 67.133 2.54H65.133ZM65.1076 2.6118C65.0633 2.65346 65.0407 2.66 64.993 2.66V4.66C65.5586 4.66 66.0693 4.4532 66.4783 4.0682L65.1076 2.6118ZM64.993 2.66H60.233V4.66H64.993V2.66ZM60.233 2.66C59.993 2.66 59.6391 2.73291 59.3656 3.04064C59.112 3.32592 59.073 3.65297 59.073 3.84H61.073C61.073 3.90703 61.0606 4.14408 60.8604 4.36936C60.6402 4.61709 60.3663 4.66 60.233 4.66V2.66ZM59.073 3.84V7.34H61.073V3.84H59.073ZM59.073 7.34C59.073 7.54748 59.1255 7.88676 59.4059 8.16711C59.6862 8.44745 60.0255 8.5 60.233 8.5V6.5C60.3338 6.5 60.5931 6.52588 60.8201 6.75289C61.0471 6.97991 61.073 7.23919 61.073 7.34H59.073ZM60.233 8.5H64.653V6.5H60.233V8.5ZM64.653 8.5C64.6654 8.5 64.672 8.5011 64.674 8.50149C64.6758 8.50185 64.6757 8.50197 64.6749 8.50164C64.6742 8.50132 64.6757 8.50182 64.6799 8.50473C64.6843 8.50775 64.6932 8.51439 64.7059 8.52711L66.1201 7.11289C65.7252 6.71801 65.2199 6.5 64.653 6.5V8.5ZM64.729 8.54954C64.7356 8.55571 64.7371 8.55823 64.736 8.55668C64.7348 8.55499 64.7329 8.55181 64.7313 8.54806C64.7298 8.54438 64.7299 8.54349 64.7306 8.54711C64.7314 8.55098 64.733 8.56141 64.733 8.58H66.733C66.733 8.01207 66.5227 7.48962 66.0969 7.09046L64.729 8.54954ZM64.733 8.58C64.733 8.59852 64.7314 8.61015 64.7302 8.61626C64.7291 8.62218 64.7281 8.62479 64.7278 8.62544C64.7275 8.62608 64.7268 8.62777 64.7245 8.63118C64.7221 8.63472 64.7167 8.64209 64.7059 8.65289L66.1201 10.0671C66.5244 9.6628 66.733 9.14698 66.733 8.58H64.733ZM64.729 8.63046C64.7075 8.65062 64.6968 8.65447 64.6958 8.65484C64.6948 8.65525 64.6837 8.66 64.653 8.66V10.66C65.1995 10.66 65.6976 10.4639 66.0969 10.0895L64.729 8.63046ZM64.653 8.66H60.233V10.66H64.653V8.66ZM60.233 8.66C60.0255 8.66 59.6862 8.71255 59.4059 8.99289C59.1255 9.27324 59.073 9.61252 59.073 9.82H61.073C61.073 9.92081 61.0471 10.1801 60.8201 10.4071C60.5931 10.6341 60.3338 10.66 60.233 10.66V8.66ZM59.073 9.82V14.86H61.073V9.82H59.073ZM59.073 14.86C59.073 14.8869 59.0687 14.8964 59.0676 14.8989C59.0662 14.9022 59.0582 14.9206 59.0259 14.9529L60.4401 16.3671C60.8448 15.9624 61.073 15.445 61.073 14.86H59.073ZM59.0259 14.9529C58.9936 14.9852 58.9752 14.9932 58.9718 14.9947C58.9693 14.9957 58.9599 15 58.933 15V17C59.5179 17 60.0353 16.7718 60.4401 16.3671L59.0259 14.9529ZM58.933 15H58.393V17H58.933V15ZM69.4317 15.66L68.7246 16.3671L68.7246 16.3671L69.4317 15.66ZM69.4317 1.74L68.7246 1.03289L68.7246 1.03289L69.4317 1.74ZM77.8317 1.74L78.5388 1.03289L78.5388 1.03289L77.8317 1.74ZM77.8317 3.34L78.5171 4.0682L78.5281 4.05782L78.5388 4.04711L77.8317 3.34ZM77.4517 7.56L76.7222 8.24394L76.7332 8.2557L76.7446 8.26711L77.4517 7.56ZM77.8317 14.08L77.1246 14.7871L77.1353 14.7978L77.1464 14.8082L77.8317 14.08ZM70.2317 15C70.2048 15 70.1954 14.9957 70.1929 14.9947C70.1895 14.9932 70.1711 14.9852 70.1388 14.9529L68.7246 16.3671C69.1294 16.7718 69.6467 17 70.2317 17V15ZM70.1388 14.9529C70.1065 14.9206 70.0985 14.9022 70.097 14.8989C70.096 14.8964 70.0917 14.8869 70.0917 14.86H68.0917C68.0917 15.445 68.3199 15.9624 68.7246 16.3671L70.1388 14.9529ZM70.0917 14.86V2.54H68.0917V14.86H70.0917ZM70.0917 2.54C70.0917 2.5131 70.096 2.50364 70.097 2.50114C70.0985 2.49777 70.1065 2.47941 70.1388 2.44711L68.7246 1.03289C68.3199 1.43763 68.0917 1.95503 68.0917 2.54H70.0917ZM70.1388 2.44711C70.1711 2.4148 70.1895 2.40676 70.1929 2.40533C70.1954 2.40427 70.2048 2.4 70.2317 2.4V0.4C69.6467 0.4 69.1294 0.628152 68.7246 1.03289L70.1388 2.44711ZM70.2317 2.4H77.0317V0.4H70.2317V2.4ZM77.0317 2.4C77.0586 2.4 77.0681 2.40427 77.0706 2.40533C77.074 2.40676 77.0923 2.4148 77.1246 2.44711L78.5388 1.03289C78.1341 0.628152 77.6167 0.4 77.0317 0.4V2.4ZM77.1246 2.44711C77.1569 2.47941 77.165 2.49777 77.1664 2.50114C77.1675 2.50364 77.1717 2.5131 77.1717 2.54H79.1717C79.1717 1.95503 78.9436 1.43763 78.5388 1.03289L77.1246 2.44711ZM77.1717 2.54C77.1717 2.5669 77.1675 2.57636 77.1664 2.57886C77.165 2.58223 77.1569 2.60059 77.1246 2.63289L78.5388 4.04711C78.9436 3.64237 79.1717 3.12497 79.1717 2.54H77.1717ZM77.1464 2.6118C77.1021 2.65346 77.0794 2.66 77.0317 2.66V4.66C77.5973 4.66 78.108 4.4532 78.5171 4.0682L77.1464 2.6118ZM77.0317 2.66H72.0717V4.66H77.0317V2.66ZM72.0717 2.66C71.8576 2.66 71.5133 2.71421 71.2296 2.99789C70.9459 3.28157 70.8917 3.62585 70.8917 3.84H72.8917C72.8917 3.93414 72.8675 4.18843 72.6438 4.41211C72.4201 4.63579 72.1659 4.66 72.0717 4.66V2.66ZM70.8917 3.84V7.06H72.8917V3.84H70.8917ZM70.8917 7.06C70.8917 7.27414 70.9459 7.61843 71.2296 7.90211C71.5133 8.18579 71.8576 8.24 72.0717 8.24V6.24C72.1659 6.24 72.4201 6.26421 72.6438 6.48789C72.8675 6.71157 72.8917 6.96585 72.8917 7.06H70.8917ZM72.0717 8.24H76.6917V6.24H72.0717V8.24ZM76.6917 8.24C76.7103 8.24 76.7207 8.2416 76.7246 8.24234C76.7282 8.24303 76.7273 8.24318 76.7237 8.24163C76.7199 8.24005 76.7167 8.23816 76.715 8.23697C76.7135 8.23587 76.716 8.23736 76.7222 8.24394L78.1813 6.87606C77.7821 6.45029 77.2597 6.24 76.6917 6.24V8.24ZM76.7446 8.26711C76.7573 8.27982 76.764 8.28863 76.767 8.29303C76.7699 8.29726 76.7704 8.2988 76.7701 8.29806C76.7698 8.29727 76.7699 8.29718 76.7702 8.29901C76.7706 8.30099 76.7717 8.30755 76.7717 8.32H78.7717C78.7717 7.7531 78.5537 7.24778 78.1588 6.85289L76.7446 8.26711ZM76.7717 8.32C76.7717 8.33245 76.7706 8.33901 76.7702 8.34099C76.7699 8.34282 76.7698 8.34273 76.7701 8.34194C76.7704 8.3412 76.7699 8.34274 76.767 8.34697C76.764 8.35137 76.7573 8.36018 76.7446 8.37289L78.1588 9.78711C78.5537 9.39222 78.7717 8.88689 78.7717 8.32H76.7717ZM76.7446 8.37289C76.7401 8.37744 76.7384 8.37825 76.7399 8.37732C76.7414 8.37632 76.7433 8.37535 76.7446 8.37484C76.7486 8.37324 76.7351 8.38 76.6917 8.38V10.38C77.239 10.38 77.7546 10.1914 78.1588 9.78711L76.7446 8.37289ZM76.6917 8.38H72.0717V10.38H76.6917V8.38ZM72.0717 8.38C71.8576 8.38 71.5133 8.43421 71.2296 8.71789C70.9459 9.00157 70.8917 9.34585 70.8917 9.56H72.8917C72.8917 9.65414 72.8675 9.90843 72.6438 10.1321C72.4201 10.3558 72.1659 10.38 72.0717 10.38V8.38ZM70.8917 9.56V13.56H72.8917V9.56H70.8917ZM70.8917 13.56C70.8917 13.7741 70.9459 14.1184 71.2296 14.4021C71.5133 14.6858 71.8576 14.74 72.0717 14.74V12.74C72.1659 12.74 72.4201 12.7642 72.6438 12.9879C72.8675 13.2116 72.8917 13.4659 72.8917 13.56H70.8917ZM72.0717 14.74H77.0317V12.74H72.0717V14.74ZM77.0317 14.74C77.0586 14.74 77.0681 14.7443 77.0706 14.7453C77.074 14.7468 77.0923 14.7548 77.1246 14.7871L78.5388 13.3729C78.1341 12.9682 77.6167 12.74 77.0317 12.74V14.74ZM77.1464 14.8082C77.1594 14.8204 77.1658 14.8286 77.1683 14.8322C77.1707 14.8355 77.1707 14.8361 77.17 14.8346C77.1693 14.833 77.1694 14.8326 77.1699 14.8349C77.1704 14.8373 77.1717 14.8452 77.1717 14.86H79.1717C79.1717 14.2729 78.9411 13.7509 78.5171 13.3518L77.1464 14.8082ZM77.1717 14.86C77.1717 14.8869 77.1675 14.8964 77.1664 14.8989C77.165 14.9022 77.1569 14.9206 77.1246 14.9529L78.5388 16.3671C78.9436 15.9624 79.1717 15.445 79.1717 14.86H77.1717ZM77.1246 14.9529C77.0923 14.9852 77.074 14.9932 77.0706 14.9947C77.0681 14.9957 77.0586 15 77.0317 15V17C77.6167 17 78.1341 16.7718 78.5388 16.3671L77.1246 14.9529ZM77.0317 15H70.2317V17H77.0317V15ZM81.563 15.66L80.8559 16.3671L80.8559 16.3671L81.563 15.66ZM81.563 1.74L80.8559 1.03289L80.8559 1.03289L81.563 1.74ZM89.963 1.74L90.6701 1.03289L90.6701 1.03289L89.963 1.74ZM89.963 3.34L90.6483 4.0682L90.6594 4.05782L90.6701 4.04711L89.963 3.34ZM89.583 7.56L88.8534 8.24394L88.8645 8.2557L88.8759 8.26711L89.583 7.56ZM89.963 14.08L89.2559 14.7871L89.2666 14.7978L89.2776 14.8082L89.963 14.08ZM82.363 15C82.3361 15 82.3266 14.9957 82.3241 14.9947C82.3207 14.9932 82.3024 14.9852 82.2701 14.9529L80.8559 16.3671C81.2606 16.7718 81.778 17 82.363 17V15ZM82.2701 14.9529C82.2378 14.9206 82.2297 14.9022 82.2283 14.8989C82.2272 14.8964 82.223 14.8869 82.223 14.86H80.223C80.223 15.445 80.4511 15.9624 80.8559 16.3671L82.2701 14.9529ZM82.223 14.86V2.54H80.223V14.86H82.223ZM82.223 2.54C82.223 2.5131 82.2272 2.50364 82.2283 2.50114C82.2297 2.49777 82.2378 2.47941 82.2701 2.44711L80.8559 1.03289C80.4511 1.43763 80.223 1.95503 80.223 2.54H82.223ZM82.2701 2.44711C82.3024 2.4148 82.3207 2.40676 82.3241 2.40533C82.3266 2.40427 82.3361 2.4 82.363 2.4V0.4C81.778 0.4 81.2606 0.628152 80.8559 1.03289L82.2701 2.44711ZM82.363 2.4H89.163V0.4H82.363V2.4ZM89.163 2.4C89.1899 2.4 89.1993 2.40427 89.2018 2.40533C89.2052 2.40676 89.2236 2.4148 89.2559 2.44711L90.6701 1.03289C90.2653 0.628152 89.7479 0.4 89.163 0.4V2.4ZM89.2559 2.44711C89.2882 2.47941 89.2962 2.49777 89.2976 2.50114C89.2987 2.50364 89.303 2.5131 89.303 2.54H91.303C91.303 1.95503 91.0748 1.43763 90.6701 1.03289L89.2559 2.44711ZM89.303 2.54C89.303 2.5669 89.2987 2.57636 89.2976 2.57886C89.2962 2.58223 89.2882 2.60059 89.2559 2.63289L90.6701 4.04711C91.0748 3.64237 91.303 3.12497 91.303 2.54H89.303ZM89.2776 2.6118C89.2333 2.65346 89.2107 2.66 89.163 2.66V4.66C89.7286 4.66 90.2393 4.4532 90.6483 4.0682L89.2776 2.6118ZM89.163 2.66H84.203V4.66H89.163V2.66ZM84.203 2.66C83.9888 2.66 83.6445 2.71421 83.3609 2.99789C83.0772 3.28157 83.023 3.62585 83.023 3.84H85.023C85.023 3.93414 84.9988 4.18843 84.7751 4.41211C84.5514 4.63579 84.2971 4.66 84.203 4.66V2.66ZM83.023 3.84V7.06H85.023V3.84H83.023ZM83.023 7.06C83.023 7.27414 83.0772 7.61843 83.3609 7.90211C83.6445 8.18579 83.9888 8.24 84.203 8.24V6.24C84.2971 6.24 84.5514 6.26421 84.7751 6.48789C84.9988 6.71157 85.023 6.96585 85.023 7.06H83.023ZM84.203 8.24H88.823V6.24H84.203V8.24ZM88.823 8.24C88.8416 8.24 88.852 8.2416 88.8559 8.24234C88.8595 8.24303 88.8586 8.24318 88.8549 8.24163C88.8512 8.24005 88.848 8.23816 88.8463 8.23697C88.8447 8.23587 88.8473 8.23736 88.8534 8.24394L90.3125 6.87606C89.9133 6.45029 89.3909 6.24 88.823 6.24V8.24ZM88.8759 8.26711C88.8886 8.27982 88.8952 8.28863 88.8982 8.29303C88.9011 8.29726 88.9016 8.2988 88.9013 8.29806C88.901 8.29727 88.9011 8.29718 88.9015 8.29901C88.9019 8.30099 88.903 8.30755 88.903 8.32H90.903C90.903 7.7531 90.685 7.24778 90.2901 6.85289L88.8759 8.26711ZM88.903 8.32C88.903 8.33245 88.9019 8.33901 88.9015 8.34099C88.9011 8.34282 88.901 8.34273 88.9013 8.34194C88.9016 8.3412 88.9011 8.34274 88.8982 8.34697C88.8952 8.35137 88.8886 8.36018 88.8759 8.37289L90.2901 9.78711C90.685 9.39222 90.903 8.88689 90.903 8.32H88.903ZM88.8759 8.37289C88.8713 8.37744 88.8697 8.37825 88.8711 8.37732C88.8726 8.37632 88.8745 8.37535 88.8758 8.37484C88.8799 8.37324 88.8664 8.38 88.823 8.38V10.38C89.3702 10.38 89.8858 10.1914 90.2901 9.78711L88.8759 8.37289ZM88.823 8.38H84.203V10.38H88.823V8.38ZM84.203 8.38C83.9888 8.38 83.6445 8.43421 83.3609 8.71789C83.0772 9.00157 83.023 9.34585 83.023 9.56H85.023C85.023 9.65414 84.9988 9.90843 84.7751 10.1321C84.5514 10.3558 84.2971 10.38 84.203 10.38V8.38ZM83.023 9.56V13.56H85.023V9.56H83.023ZM83.023 13.56C83.023 13.7741 83.0772 14.1184 83.3609 14.4021C83.6445 14.6858 83.9888 14.74 84.203 14.74V12.74C84.2971 12.74 84.5514 12.7642 84.7751 12.9879C84.9988 13.2116 85.023 13.4659 85.023 13.56H83.023ZM84.203 14.74H89.163V12.74H84.203V14.74ZM89.163 14.74C89.1899 14.74 89.1993 14.7443 89.2018 14.7453C89.2052 14.7468 89.2236 14.7548 89.2559 14.7871L90.6701 13.3729C90.2653 12.9682 89.7479 12.74 89.163 12.74V14.74ZM89.2776 14.8082C89.2906 14.8204 89.297 14.8286 89.2995 14.8322C89.3019 14.8355 89.3019 14.8361 89.3013 14.8346C89.3006 14.833 89.3007 14.8326 89.3011 14.8349C89.3016 14.8373 89.303 14.8452 89.303 14.86H91.303C91.303 14.2729 91.0724 13.7509 90.6483 13.3518L89.2776 14.8082ZM89.303 14.86C89.303 14.8869 89.2987 14.8964 89.2976 14.8989C89.2962 14.9022 89.2882 14.9206 89.2559 14.9529L90.6701 16.3671C91.0748 15.9624 91.303 15.445 91.303 14.86H89.303ZM89.2559 14.9529C89.2236 14.9852 89.2052 14.9932 89.2018 14.9947C89.1993 14.9957 89.1899 15 89.163 15V17C89.7479 17 90.2653 16.7718 90.6701 16.3671L89.2559 14.9529ZM89.163 15H82.363V17H89.163V15ZM94.0589 14.22L93.319 14.8927L93.319 14.8927L94.0589 14.22ZM94.0589 3.18L93.319 2.50733L93.319 2.50733L94.0589 3.18ZM103.799 3.18L103.055 3.84856L103.059 3.85267L103.799 3.18ZM102.659 15.04V16.04H102.964L103.218 15.8694L102.659 15.04ZM102.659 15.1L103.025 14.1692L102.848 14.1H102.659V15.1ZM106.499 18.04L107.305 17.4486L107.297 17.4375L107.289 17.4266L106.499 18.04ZM106.539 18.66L105.667 18.1697L105.65 18.2014L105.634 18.2342L106.539 18.66ZM103.379 18.04L104.195 17.462L104.193 17.4588L103.379 18.04ZM101.679 16.56L101.308 17.4885L101.308 17.4885L101.679 16.56ZM98.9389 2.5C97.4137 2.5 96.1292 3.03564 95.268 4.20796C94.4491 5.32273 94.1189 6.87369 94.1189 8.7H96.1189C96.1189 7.05964 96.4254 6.0106 96.8798 5.39204C97.2919 4.83102 97.9174 4.5 98.9389 4.5V2.5ZM94.1189 8.7C94.1189 10.5263 94.4491 12.0773 95.268 13.192C96.1292 14.3644 97.4137 14.9 98.9389 14.9V12.9C97.9174 12.9 97.2919 12.569 96.8798 12.008C96.4254 11.3894 96.1189 10.3404 96.1189 8.7H94.1189ZM98.9389 14.9C100.459 14.9 101.739 14.3628 102.596 13.19C103.411 12.0756 103.739 10.5255 103.739 8.7H101.739C101.739 10.3411 101.434 11.3911 100.982 12.01C100.572 12.5705 99.9517 12.9 98.9389 12.9V14.9ZM103.739 8.7C103.739 6.87448 103.411 5.32441 102.596 4.20998C101.739 3.03715 100.459 2.5 98.9389 2.5V4.5C99.9517 4.5 100.572 4.82951 100.982 5.39002C101.434 6.00893 101.739 7.05885 101.739 8.7H103.739ZM98.9389 15.2C97.1205 15.2 95.7799 14.6265 94.7988 13.5473L93.319 14.8927C94.7379 16.4535 96.6507 17.2 98.9389 17.2V15.2ZM94.7988 13.5473C93.8142 12.4642 93.2589 10.8933 93.2589 8.7H91.2589C91.2589 11.2267 91.9036 13.3358 93.319 14.8927L94.7988 13.5473ZM93.2589 8.7C93.2589 6.50672 93.8142 4.93578 94.7988 3.85267L93.319 2.50733C91.9036 4.06422 91.2589 6.17328 91.2589 8.7H93.2589ZM94.7988 3.85267C95.7799 2.77346 97.1205 2.2 98.9389 2.2V0.2C96.6507 0.2 94.7379 0.946538 93.319 2.50733L94.7988 3.85267ZM98.9389 2.2C100.758 2.2 102.089 2.7734 103.055 3.84855L104.543 2.51145C103.136 0.946603 101.227 0.2 98.9389 0.2V2.2ZM103.059 3.85267C104.044 4.93578 104.599 6.50672 104.599 8.7H106.599C106.599 6.17328 105.954 4.06422 104.539 2.50733L103.059 3.85267ZM104.599 8.7C104.599 11.361 103.719 13.1203 102.1 14.2106L103.218 15.8694C105.519 14.3197 106.599 11.8523 106.599 8.7H104.599ZM102.659 14.04C102.498 14.04 102.194 14.0809 101.937 14.3379C101.68 14.5949 101.639 14.8992 101.639 15.06H103.639C103.639 15.2075 103.601 15.5018 103.351 15.7521C103.101 16.0025 102.806 16.04 102.659 16.04V14.04ZM101.639 15.06C101.639 15.1244 101.642 15.3216 101.749 15.5372C101.81 15.6592 101.917 15.8107 102.095 15.9295C102.28 16.0525 102.481 16.1 102.659 16.1V14.1C102.831 14.1 103.025 14.1458 103.205 14.2655C103.378 14.3809 103.481 14.5275 103.538 14.6428C103.639 14.8451 103.639 15.0223 103.639 15.06H101.639ZM102.293 16.0308C103.605 16.5462 104.743 17.4098 105.709 18.6534L107.289 17.4266C106.121 15.9236 104.699 14.8271 103.025 14.1692L102.293 16.0308ZM105.692 18.6314C105.676 18.6083 105.629 18.5311 105.621 18.4094C105.613 18.2866 105.65 18.2006 105.667 18.1697L107.41 19.1503C107.548 18.9061 107.638 18.6101 107.617 18.2806C107.596 17.9522 107.469 17.6717 107.305 17.4486L105.692 18.6314ZM105.634 18.2342C105.647 18.206 105.693 18.1308 105.791 18.0688C105.889 18.0072 105.973 18 105.999 18V20C106.278 20 106.579 19.9361 106.857 19.7612C107.135 19.5859 107.324 19.3407 107.444 19.0858L105.634 18.2342ZM105.999 18H105.139V20H105.999V18ZM105.139 18C104.776 18 104.48 17.865 104.195 17.462L102.563 18.618C103.184 19.495 104.062 20 105.139 20V18ZM104.193 17.4588C103.593 16.6188 102.888 15.9665 102.05 15.6315L101.308 17.4885C101.67 17.6335 102.098 17.9679 102.565 18.6212L104.193 17.4588ZM102.05 15.6315C101.269 15.3189 100.199 15.2 98.9389 15.2V17.2C100.132 17.2 100.889 17.3211 101.308 17.4885L102.05 15.6315ZM5.65 23.35L5.5002 22.3613L5.46642 22.3664L5.43307 22.3738L5.65 23.35ZM2.4 38.575L1.69289 39.2821L1.69289 39.2821L2.4 38.575ZM3.375 20.7L3.45805 21.6966L3.4687 21.6956L3.375 20.7ZM12.975 21.875L12.3732 22.6737L12.3803 22.6789L12.975 21.875ZM13.825 28.825L13.0143 28.2395L13.0072 28.2495L13.825 28.825ZM11.25 30.725V31.725H11.4146L11.5706 31.6722L11.25 30.725ZM11.25 30.8L11.78 29.952L11.5368 29.8H11.25V30.8ZM13.3 33.75L14.2341 33.393L14.2328 33.3896L13.3 33.75ZM14.8 37.675L15.7384 37.3293L15.7341 37.318L14.8 37.675ZM14.675 38.575L13.858 37.9983L13.8464 38.0148L13.8354 38.0317L14.675 38.575ZM11.95 38.65L11.3688 39.4637L11.3819 39.4731L11.3953 39.4821L11.95 38.65ZM11.2 37.675L10.2602 38.0168L10.2637 38.0261L11.2 37.675ZM9.8 33.825L10.7398 33.4832L10.7363 33.4739L9.8 33.825ZM8.775 32.25L8.22873 33.0876L8.22873 33.0876L8.775 32.25ZM5 38.575L4.29289 37.8679L4.28218 37.8786L4.2718 37.8896L5 38.575ZM4.425 23.6V29.025H6.425V23.6H4.425ZM4.425 29.025C4.425 29.2783 4.50166 29.6422 4.81689 29.9224C5.10967 30.1827 5.44797 30.225 5.65 30.225V28.225C5.70203 28.225 5.92783 28.234 6.14561 28.4276C6.38584 28.6411 6.425 28.905 6.425 29.025H4.425ZM5.65 30.225H6.9V28.225H5.65V30.225ZM6.9 30.225C8.47202 30.225 9.83055 29.95 10.8183 29.2453C11.8682 28.4962 12.35 27.3716 12.35 26.05H10.35C10.35 26.845 10.0901 27.308 9.6567 27.6172C9.16112 27.9708 8.29465 28.225 6.9 28.225V30.225ZM12.35 26.05C12.35 24.8284 11.8823 23.79 10.8838 23.1062C9.95336 22.469 8.68303 22.225 7.225 22.225V24.225C8.51697 24.225 9.30914 24.4518 9.75371 24.7563C10.1302 25.0141 10.35 25.3883 10.35 26.05H12.35ZM7.225 22.225C6.66963 22.225 6.09433 22.2713 5.5002 22.3613L5.79981 24.3387C6.30567 24.2621 6.78037 24.225 7.225 24.225V22.225ZM5.43307 22.3738C5.22852 22.4193 4.95779 22.5243 4.73796 22.7685C4.50489 23.0275 4.425 23.3357 4.425 23.6H6.425C6.425 23.731 6.38261 23.9308 6.22454 24.1065C6.07971 24.2674 5.92148 24.3141 5.86693 24.3262L5.43307 22.3738ZM3.4 38C3.29497 38 3.21237 37.9732 3.10711 37.8679L1.69289 39.2821C2.1543 39.7435 2.73836 40 3.4 40V38ZM3.10711 37.8679C3.00185 37.7626 2.975 37.68 2.975 37.575H0.975C0.975 38.2366 1.23149 38.8207 1.69289 39.2821L3.10711 37.8679ZM2.975 37.575V22.3H0.975V37.575H2.975ZM2.975 22.3C2.975 22.1445 3.01929 22.0124 3.13991 21.8691L1.61009 20.5809C1.19738 21.071 0.975 21.6555 0.975 22.3H2.975ZM3.13991 21.8691C3.24124 21.7488 3.33234 21.707 3.45805 21.6965L3.29195 19.7035C2.61766 19.7596 2.0421 20.0679 1.61009 20.5809L3.13991 21.8691ZM3.4687 21.6956C4.85669 21.565 6.192 21.5 7.475 21.5V19.5C6.12466 19.5 4.72665 19.5684 3.2813 19.7044L3.4687 21.6956ZM7.475 21.5C9.82998 21.5 11.4072 21.9458 12.3733 22.6737L13.5767 21.0763C12.1095 19.9708 10.02 19.5 7.475 19.5V21.5ZM12.3803 22.6789C13.3165 23.3715 13.8 24.3339 13.8 25.7H15.8C15.8 23.7661 15.0669 22.1785 13.5697 21.0711L12.3803 22.6789ZM13.8 25.7C13.8 26.6878 13.5329 27.5215 13.0143 28.2395L14.6357 29.4105C15.4171 28.3285 15.8 27.0789 15.8 25.7H13.8ZM13.0072 28.2495C12.501 28.9688 11.8202 29.4763 10.9294 29.7778L11.5706 31.6722C12.8465 31.2404 13.8823 30.4812 14.6428 29.4005L13.0072 28.2495ZM11.25 29.725C11.0875 29.725 10.782 29.7663 10.5241 30.0242C10.2663 30.282 10.225 30.5875 10.225 30.75H12.225C12.225 30.8958 12.1879 31.1888 11.9384 31.4383C11.6889 31.6879 11.3958 31.725 11.25 31.725V29.725ZM10.225 30.75C10.225 30.8177 10.2282 31.0174 10.3368 31.2347C10.3982 31.3575 10.5055 31.5097 10.6844 31.6289C10.8695 31.7523 11.0708 31.8 11.25 31.8V29.8C11.4208 29.8 11.6149 29.8456 11.7938 29.9648C11.9664 30.0799 12.0685 30.2258 12.1257 30.3403C12.226 30.5409 12.225 30.7156 12.225 30.75H10.225ZM10.72 31.648C11.2499 31.9792 11.8312 32.7231 12.3672 34.1104L14.2328 33.3896C13.6355 31.8436 12.8501 30.6208 11.78 29.952L10.72 31.648ZM12.3659 34.107L13.8659 38.032L15.7341 37.318L14.2341 33.393L12.3659 34.107ZM13.8617 38.0207C13.8664 38.0334 13.8659 38.0362 13.8651 38.0301C13.8648 38.0272 13.8644 38.0229 13.8645 38.0174C13.8645 38.0118 13.8649 38.0059 13.8658 37.9999C13.8666 37.9939 13.8677 37.9887 13.8689 37.9844C13.8701 37.9801 13.8711 37.9775 13.8715 37.9766C13.8722 37.9748 13.8695 37.9821 13.858 37.9983L15.492 39.1517C15.8754 38.6085 15.9725 37.9647 15.7383 37.3293L13.8617 38.0207ZM13.8354 38.0317C13.8272 38.0445 13.8246 38.0456 13.8301 38.0404C13.8359 38.0347 13.847 38.0257 13.8629 38.0169C13.8789 38.0082 13.8933 38.0033 13.9031 38.0009C13.9123 37.9987 13.9123 38 13.9 38V40C14.5776 40 15.1497 39.6821 15.5146 39.1183L13.8354 38.0317ZM13.9 38H13.125V40H13.9V38ZM13.125 38C12.8828 38 12.6853 37.9383 12.5047 37.8179L11.3953 39.4821C11.9147 39.8283 12.5006 40 13.125 40V38ZM12.5312 37.8363C12.3418 37.7009 12.2161 37.5365 12.1363 37.3239L10.2637 38.0261C10.4839 38.6135 10.8582 39.0991 11.3688 39.4637L12.5312 37.8363ZM12.1398 37.3333L10.7398 33.4833L8.86021 34.1667L10.2602 38.0167L12.1398 37.3333ZM10.7363 33.4739C10.4175 32.6236 9.9817 31.8431 9.32127 31.4124L8.22873 33.0876C8.33497 33.1569 8.58253 33.4264 8.86367 34.1761L10.7363 33.4739ZM9.32127 31.4124C8.67771 30.9927 7.76264 30.875 6.8 30.875V32.875C7.70402 32.875 8.10562 33.0073 8.22873 33.0876L9.32127 31.4124ZM6.8 30.875H5.65V32.875H6.8V30.875ZM5.65 30.875C5.42086 30.875 5.06532 30.933 4.77414 31.2241C4.48296 31.5153 4.425 31.8709 4.425 32.1H6.425C6.425 32.1791 6.40454 32.4222 6.18836 32.6384C5.97218 32.8545 5.72915 32.875 5.65 32.875V30.875ZM4.425 32.1V37.575H6.425V32.1H4.425ZM4.425 37.575C4.425 37.68 4.39815 37.7626 4.29289 37.8679L5.70711 39.2821C6.16851 38.8207 6.425 38.2366 6.425 37.575H4.425ZM4.2718 37.8896C4.19089 37.9756 4.12795 38 4.025 38V40C4.68872 40 5.27577 39.7411 5.7282 39.2604L4.2718 37.8896ZM4.025 38H3.4V40H4.025V38ZM24.4389 23.85L25.4018 24.1199L25.4389 23.9875V23.85H24.4389ZM22.2389 31.7L23.1876 32.0162L23.1952 31.9932L23.2018 31.9699L22.2389 31.7ZM22.2639 31.85L23.0959 31.2953L23.0959 31.2953L22.2639 31.85ZM26.6889 31.7L25.726 31.9699L25.7325 31.9932L25.7402 32.0162L26.6889 31.7ZM24.4889 23.85H23.4889V23.9875L23.526 24.1199L24.4889 23.85ZM17.1389 38.575L17.9558 37.9983L17.9558 37.9983L17.1389 38.575ZM17.0139 37.65L17.9577 37.9804L17.9603 37.9731L17.9627 37.9658L17.0139 37.65ZM22.1889 22.1L21.2525 21.7489L21.246 21.7664L21.24 21.7842L22.1889 22.1ZM22.9139 21.125L22.3326 20.3113L22.3232 20.318L22.3139 20.325L22.9139 21.125ZM26.1139 21.125L25.5139 21.925L25.5232 21.932L25.5326 21.9387L26.1139 21.125ZM26.8389 22.1L27.7877 21.7842L27.7876 21.7838L26.8389 22.1ZM32.0139 37.65L31.065 37.9658L31.0675 37.9731L31.07 37.9804L32.0139 37.65ZM31.8889 38.575L31.0719 37.9983L31.0719 37.9983L31.8889 38.575ZM29.0389 38.625L28.4142 39.4059L28.4355 39.4229L28.4576 39.4387L29.0389 38.625ZM28.3639 37.625L27.4017 37.8975L27.4039 37.905L28.3639 37.625ZM27.5639 34.8L26.5716 34.924L26.581 34.9994L26.6017 35.0725L27.5639 34.8ZM21.3639 34.8L22.326 35.0725L22.3303 35.0576L22.334 35.0425L21.3639 34.8ZM20.5639 37.625L19.6017 37.3525L19.5975 37.3674L19.5937 37.3825L20.5639 37.625ZM19.8889 38.625L20.4889 39.425L20.4949 39.4204L19.8889 38.625ZM23.476 23.5801L21.276 31.4301L23.2018 31.9699L25.4018 24.1199L23.476 23.5801ZM21.2902 31.3838C21.1614 31.7701 21.2545 32.1388 21.4318 32.4047L23.0959 31.2953C23.1434 31.3665 23.196 31.4726 23.219 31.6106C23.2427 31.753 23.2287 31.8929 23.1876 32.0162L21.2902 31.3838ZM21.4318 32.4047C21.6076 32.6684 21.9338 32.925 22.3889 32.925V30.925C22.5396 30.925 22.6954 30.9652 22.8346 31.0488C22.9671 31.1283 23.0494 31.2256 23.0959 31.2953L21.4318 32.4047ZM22.3889 32.925H26.5389V30.925H22.3889V32.925ZM26.5389 32.925C26.9939 32.925 27.3201 32.6684 27.4959 32.4047L25.8318 31.2953C25.8783 31.2256 25.9606 31.1283 26.0931 31.0488C26.2324 30.9652 26.3881 30.925 26.5389 30.925V32.925ZM27.4959 32.4047C27.6732 32.1388 27.7663 31.7701 27.6376 31.3838L25.7402 32.0162C25.6991 31.8929 25.685 31.753 25.7087 31.6106C25.7317 31.4726 25.7844 31.3665 25.8318 31.2953L27.4959 32.4047ZM27.6518 31.4301L25.4518 23.5801L23.526 24.1199L25.726 31.9699L27.6518 31.4301ZM25.4889 23.85C25.4889 23.6875 25.4476 23.382 25.1897 23.1242C24.9319 22.8663 24.6264 22.825 24.4639 22.825V24.825C24.318 24.825 24.025 24.7879 23.7755 24.5383C23.526 24.2888 23.4889 23.9958 23.4889 23.85H25.4889ZM24.4639 22.825C24.3014 22.825 23.9958 22.8663 23.738 23.1242C23.4802 23.382 23.4389 23.6875 23.4389 23.85H25.4389C25.4389 23.9958 25.4017 24.2888 25.1522 24.5383C24.9027 24.7879 24.6097 24.825 24.4639 24.825V22.825ZM17.9639 38C17.944 38 17.9358 37.998 17.9365 37.9982C17.9368 37.9982 17.9387 37.9987 17.9419 37.9999C17.9451 38.001 17.9489 38.0026 17.9531 38.0048C17.9572 38.0069 17.9609 38.0092 17.964 38.0113C17.9671 38.0135 17.969 38.0151 17.9697 38.0157C17.9713 38.0171 17.9661 38.0128 17.9558 37.9983L16.3219 39.1517C16.7113 39.7034 17.2925 40 17.9639 40V38ZM17.9558 37.9983C17.9458 37.9841 17.9436 37.9779 17.9443 37.9797C17.9446 37.9805 17.9454 37.9826 17.9463 37.986C17.9473 37.9893 17.9481 37.9932 17.9486 37.9973C17.9492 38.0015 17.9494 38.005 17.9494 38.0078C17.9494 38.0106 17.9492 38.0119 17.9493 38.0114C17.9494 38.0106 17.9506 38.0007 17.9577 37.9804L16.07 37.3196C15.8489 37.9514 15.9315 38.5986 16.3219 39.1517L17.9558 37.9983ZM17.9627 37.9658L23.1377 22.4158L21.24 21.7842L16.065 37.3342L17.9627 37.9658ZM23.1252 22.4511C23.21 22.225 23.3372 22.0575 23.5139 21.925L22.3139 20.325C21.8239 20.6925 21.4677 21.175 21.2525 21.7489L23.1252 22.4511ZM23.4951 21.9387C23.6814 21.8057 23.8627 21.75 24.0639 21.75V19.75C23.4317 19.75 22.8464 19.9443 22.3326 20.3113L23.4951 21.9387ZM24.0639 21.75H24.9639V19.75H24.0639V21.75ZM24.9639 21.75C25.1901 21.75 25.3609 21.8103 25.5139 21.925L26.7139 20.325C26.2002 19.9397 25.6043 19.75 24.9639 19.75V21.75ZM25.5326 21.9387C25.7144 22.0685 25.8251 22.221 25.8902 22.4162L27.7876 21.7838C27.586 21.179 27.2134 20.6815 26.6951 20.3113L25.5326 21.9387ZM25.89 22.4158L31.065 37.9658L32.9627 37.3342L27.7877 21.7842L25.89 22.4158ZM31.07 37.9804C31.0771 38.0007 31.0784 38.0106 31.0784 38.0114C31.0785 38.0119 31.0783 38.0106 31.0783 38.0078C31.0784 38.005 31.0786 38.0015 31.0791 37.9973C31.0797 37.9932 31.0805 37.9893 31.0814 37.986C31.0823 37.9826 31.0831 37.9805 31.0834 37.9797C31.0842 37.9779 31.0819 37.9841 31.0719 37.9983L32.7058 39.1517C33.0963 38.5986 33.1788 37.9514 32.9577 37.3196L31.07 37.9804ZM31.0719 37.9983C31.0616 38.0129 31.0564 38.0171 31.058 38.0157C31.0587 38.0151 31.0606 38.0135 31.0637 38.0113C31.0668 38.0092 31.0705 38.0069 31.0747 38.0048C31.0788 38.0026 31.0826 38.001 31.0858 37.9999C31.089 37.9987 31.091 37.9982 31.0912 37.9982C31.092 37.998 31.0838 38 31.0639 38V40C31.7352 40 32.3164 39.7034 32.7058 39.1517L31.0719 37.9983ZM31.0639 38H30.1639V40H31.0639V38ZM30.1639 38C29.9883 38 29.814 37.9498 29.6201 37.8113L28.4576 39.4387C28.9637 39.8002 29.5395 40 30.1639 40V38ZM29.6636 37.8441C29.4866 37.7026 29.3815 37.5424 29.3239 37.345L27.4039 37.905C27.5796 38.5076 27.9244 39.0141 28.4142 39.4059L29.6636 37.8441ZM29.326 37.3525L28.526 34.5275L26.6017 35.0725L27.4017 37.8975L29.326 37.3525ZM28.5561 34.676C28.5204 34.3903 28.3815 34.0672 28.0708 33.8413C27.7906 33.6375 27.4886 33.6 27.2889 33.6V35.6C27.2558 35.6 27.0829 35.5958 26.8944 35.4587C26.6754 35.2994 26.5906 35.0764 26.5716 34.924L28.5561 34.676ZM27.2889 33.6H21.6389V35.6H27.2889V33.6ZM21.6389 33.6C21.4203 33.6 21.1339 33.6489 20.8694 33.8413C20.5957 34.0404 20.4547 34.3134 20.3937 34.5575L22.334 35.0425C22.3063 35.1533 22.2279 35.3263 22.0458 35.4587C21.873 35.5844 21.7074 35.6 21.6389 35.6V33.6ZM20.4017 34.5275L19.6017 37.3525L21.526 37.8975L22.326 35.0725L20.4017 34.5275ZM19.5937 37.3825C19.5526 37.5468 19.4652 37.6906 19.2828 37.8296L20.4949 39.4204C21.0125 39.0261 21.3751 38.5032 21.534 37.8675L19.5937 37.3825ZM19.2889 37.825C19.1286 37.9452 18.9642 38 18.7639 38V40C19.3969 40 19.9824 39.8048 20.4889 39.425L19.2889 37.825ZM18.7639 38H17.9639V40H18.7639V38ZM34.9969 38.575L34.2687 39.2604L34.2791 39.2714L34.2898 39.2821L34.9969 38.575ZM34.9969 21.175L34.2898 20.4679L34.2791 20.4786L34.2687 20.4896L34.9969 21.175ZM37.6719 21.175L38.379 20.4679L38.379 20.4679L37.6719 21.175ZM45.1719 21.175L44.4648 20.4679L44.4648 20.4679L45.1719 21.175ZM47.8219 21.175L47.0937 21.8604L47.1041 21.8714L47.1148 21.8821L47.8219 21.175ZM47.8219 38.575L47.1148 37.8679L47.1041 37.8786L47.0937 37.8896L47.8219 38.575ZM45.1719 38.575L44.4648 39.2821L45.1719 38.575ZM35.9969 38C35.8918 38 35.8092 37.9732 35.704 37.8679L34.2898 39.2821C34.7512 39.7435 35.3352 40 35.9969 40V38ZM35.7251 37.8896C35.6301 37.7887 35.5969 37.6994 35.5969 37.575H33.5969C33.5969 38.2173 33.8303 38.7946 34.2687 39.2604L35.7251 37.8896ZM35.5969 37.575V22.175H33.5969V37.575H35.5969ZM35.5969 22.175C35.5969 22.0506 35.6301 21.9613 35.7251 21.8604L34.2687 20.4896C33.8303 20.9554 33.5969 21.5327 33.5969 22.175H35.5969ZM35.704 21.8821C35.8092 21.7768 35.8918 21.75 35.9969 21.75V19.75C35.3352 19.75 34.7512 20.0065 34.2898 20.4679L35.704 21.8821ZM35.9969 21.75H36.6719V19.75H35.9969V21.75ZM36.6719 21.75C36.7769 21.75 36.8595 21.7768 36.9648 21.8821L38.379 20.4679C37.9176 20.0065 37.3335 19.75 36.6719 19.75V21.75ZM36.9648 21.8821C37.07 21.9874 37.0969 22.07 37.0969 22.175H39.0969C39.0969 21.5134 38.8404 20.9293 38.379 20.4679L36.9648 21.8821ZM37.0969 22.175V27.85H39.0969V22.175H37.0969ZM37.0969 27.85C37.0969 28.0708 37.1528 28.4201 37.4398 28.7071C37.7268 28.9941 38.0761 29.05 38.2969 29.05V27.05C38.3844 27.05 38.6336 27.0725 38.854 27.2929C39.0743 27.5132 39.0969 27.7625 39.0969 27.85H37.0969ZM38.2969 29.05H44.5469V27.05H38.2969V29.05ZM44.5469 29.05C44.7677 29.05 45.117 28.9941 45.404 28.7071C45.691 28.4201 45.7469 28.0708 45.7469 27.85H43.7469C43.7469 27.7625 43.7694 27.5132 43.9898 27.2929C44.2101 27.0725 44.4594 27.05 44.5469 27.05V29.05ZM45.7469 27.85V22.175H43.7469V27.85H45.7469ZM45.7469 22.175C45.7469 22.07 45.7737 21.9874 45.879 21.8821L44.4648 20.4679C44.0034 20.9293 43.7469 21.5134 43.7469 22.175H45.7469ZM45.879 21.8821C45.9842 21.7768 46.0668 21.75 46.1719 21.75V19.75C45.5102 19.75 44.9262 20.0065 44.4648 20.4679L45.879 21.8821ZM46.1719 21.75H46.8469V19.75H46.1719V21.75ZM46.8469 21.75C46.9498 21.75 47.0128 21.7744 47.0937 21.8604L48.5501 20.4896C48.0976 20.0089 47.5106 19.75 46.8469 19.75V21.75ZM47.1148 21.8821C47.22 21.9874 47.2469 22.07 47.2469 22.175H49.2469C49.2469 21.5134 48.9904 20.9293 48.529 20.4679L47.1148 21.8821ZM47.2469 22.175V37.575H49.2469V22.175H47.2469ZM47.2469 37.575C47.2469 37.68 47.22 37.7626 47.1148 37.8679L48.529 39.2821C48.9904 38.8207 49.2469 38.2366 49.2469 37.575H47.2469ZM47.0937 37.8896C47.0128 37.9756 46.9498 38 46.8469 38V40C47.5106 40 48.0976 39.7411 48.5501 39.2604L47.0937 37.8896ZM46.8469 38H46.1719V40H46.8469V38ZM46.1719 38C46.0668 38 45.9842 37.9732 45.879 37.8679L44.4648 39.2821C44.9262 39.7435 45.5102 40 46.1719 40V38ZM45.879 37.8679C45.7737 37.7626 45.7469 37.68 45.7469 37.575H43.7469C43.7469 38.2366 44.0034 38.8207 44.4648 39.2821L45.879 37.8679ZM45.7469 37.575V30.95H43.7469V37.575H45.7469ZM45.7469 30.95C45.7469 30.748 45.7045 30.4097 45.4443 30.1169C45.1641 29.8017 44.8002 29.725 44.5469 29.725V31.725C44.4269 31.725 44.163 31.6858 43.9495 31.4456C43.7559 31.2278 43.7469 31.002 43.7469 30.95H45.7469ZM44.5469 29.725H38.2969V31.725H44.5469V29.725ZM38.2969 29.725C38.0436 29.725 37.6797 29.8017 37.3995 30.1169C37.1392 30.4097 37.0969 30.748 37.0969 30.95H39.0969C39.0969 31.002 39.0879 31.2278 38.8943 31.4456C38.6808 31.6858 38.4169 31.725 38.2969 31.725V29.725ZM37.0969 30.95V37.575H39.0969V30.95H37.0969ZM37.0969 37.575C37.0969 37.68 37.07 37.7626 36.9648 37.8679L38.379 39.2821C38.8404 38.8207 39.0969 38.2366 39.0969 37.575H37.0969ZM36.9648 37.8679C36.8595 37.9732 36.7769 38 36.6719 38V40C37.3335 40 37.9176 39.7435 38.379 39.2821L36.9648 37.8679ZM36.6719 38H35.9969V40H36.6719V38ZM52.7244 38.575L52.0173 39.2821L52.0173 39.2821L52.7244 38.575ZM52.7244 21.175L52.0173 20.4679L52.0173 20.4679L52.7244 21.175ZM56.3494 22.025L55.4323 22.4237L55.437 22.4345L55.4419 22.4451L56.3494 22.025ZM60.7244 31.475H61.7244V31.2547L61.6319 31.0549L60.7244 31.475ZM60.7744 31.475L59.8669 31.0549L59.7744 31.2547V31.475H60.7744ZM65.1494 22.025L66.0569 22.4451L66.0618 22.4345L66.0665 22.4237L65.1494 22.025ZM65.9494 21.1L65.4125 20.2563L65.4125 20.2563L65.9494 21.1ZM68.8744 21.175L69.5815 20.4679L69.5815 20.4679L68.8744 21.175ZM66.3244 38.575L67.0315 37.8679L67.0315 37.8679L66.3244 38.575ZM65.8494 26.7L66.7555 27.1231L66.8494 26.922V26.7H65.8494ZM62.8494 33.125L63.7516 33.5565L63.7555 33.5481L62.8494 33.125ZM61.9994 34.075L62.5363 34.9187L62.5457 34.9126L61.9994 34.075ZM59.4744 34.075L58.9111 34.9012L58.9324 34.9158L58.9545 34.9292L59.4744 34.075ZM58.6494 33.125L57.7433 33.5481L57.7473 33.5565L58.6494 33.125ZM55.6494 26.7H54.6494V26.922L54.7433 27.1231L55.6494 26.7ZM53.7244 38C53.6194 38 53.5368 37.9732 53.4315 37.8679L52.0173 39.2821C52.4787 39.7435 53.0628 40 53.7244 40V38ZM53.4315 37.8679C53.3263 37.7626 53.2994 37.68 53.2994 37.575H51.2994C51.2994 38.2366 51.5559 38.8207 52.0173 39.2821L53.4315 37.8679ZM53.2994 37.575V22.175H51.2994V37.575H53.2994ZM53.2994 22.175C53.2994 22.07 53.3263 21.9874 53.4315 21.8821L52.0173 20.4679C51.5559 20.9293 51.2994 21.5134 51.2994 22.175H53.2994ZM53.4315 21.8821C53.5368 21.7768 53.6194 21.75 53.7244 21.75V19.75C53.0628 19.75 52.4787 20.0065 52.0173 20.4679L53.4315 21.8821ZM53.7244 21.75H54.3494V19.75H53.7244V21.75ZM54.3494 21.75C54.592 21.75 54.8058 21.8121 55.0125 21.9437L56.0863 20.2563C55.5597 19.9212 54.9735 19.75 54.3494 19.75V21.75ZM55.0125 21.9437C55.218 22.0744 55.3485 22.2309 55.4323 22.4237L57.2665 21.6263C57.017 21.0525 56.6141 20.5922 56.0863 20.2563L55.0125 21.9437ZM55.4419 22.4451L59.8169 31.8951L61.6319 31.0549L57.2569 21.6049L55.4419 22.4451ZM59.7244 31.475C59.7244 31.6375 59.7657 31.943 60.0236 32.2009C60.2814 32.4587 60.5869 32.5 60.7494 32.5V30.5C60.8952 30.5 61.1883 30.5371 61.4378 30.7866C61.6873 31.0362 61.7244 31.3292 61.7244 31.475H59.7244ZM60.7494 32.5C60.9119 32.5 61.2174 32.4587 61.4753 32.2008C61.7331 31.943 61.7744 31.6375 61.7744 31.475H59.7744C59.7744 31.3292 59.8115 31.0362 60.061 30.7867C60.3106 30.5371 60.6036 30.5 60.7494 30.5V32.5ZM61.6819 31.8951L66.0569 22.4451L64.2419 21.6049L59.8669 31.0549L61.6819 31.8951ZM66.0665 22.4237C66.1503 22.2309 66.2808 22.0744 66.4863 21.9437L65.4125 20.2563C64.8847 20.5922 64.4818 21.0525 64.2323 21.6263L66.0665 22.4237ZM66.4863 21.9437C66.693 21.8121 66.9069 21.75 67.1494 21.75V19.75C66.5253 19.75 65.9392 19.9212 65.4125 20.2563L66.4863 21.9437ZM67.1494 21.75H67.8744V19.75H67.1494V21.75ZM67.8744 21.75C67.9794 21.75 68.062 21.7768 68.1673 21.8821L69.5815 20.4679C69.1201 20.0065 68.5361 19.75 67.8744 19.75V21.75ZM68.1673 21.8821C68.2726 21.9874 68.2994 22.07 68.2994 22.175H70.2994C70.2994 21.5134 70.0429 20.9293 69.5815 20.4679L68.1673 21.8821ZM68.2994 22.175V37.575H70.2994V22.175H68.2994ZM68.2994 37.575C68.2994 37.68 68.2726 37.7626 68.1673 37.8679L69.5815 39.2821C70.0429 38.8207 70.2994 38.2366 70.2994 37.575H68.2994ZM68.1673 37.8679C68.062 37.9732 67.9794 38 67.8744 38V40C68.5361 40 69.1201 39.7435 69.5815 39.2821L68.1673 37.8679ZM67.8744 38H67.3244V40H67.8744V38ZM67.3244 38C67.2194 38 67.1368 37.9732 67.0315 37.8679L65.6173 39.2821C66.0787 39.7435 66.6628 40 67.3244 40V38ZM67.0315 37.8679C66.9263 37.7626 66.8994 37.68 66.8994 37.575H64.8994C64.8994 38.2366 65.1559 38.8207 65.6173 39.2821L67.0315 37.8679ZM66.8994 37.575V26.7H64.8994V37.575H66.8994ZM66.8994 26.7C66.8994 26.5375 66.8581 26.232 66.6003 25.9742C66.3424 25.7163 66.0369 25.675 65.8744 25.675V27.675C65.7286 27.675 65.4356 27.6379 65.186 27.3883C64.9365 27.1388 64.8994 26.8458 64.8994 26.7H66.8994ZM65.8744 25.675C65.7119 25.675 65.4064 25.7163 65.1485 25.9742C64.8907 26.232 64.8494 26.5375 64.8494 26.7H66.8494C66.8494 26.8458 66.8123 27.1388 66.5628 27.3883C66.3133 27.6379 66.0202 27.675 65.8744 27.675V25.675ZM64.9433 26.2769L61.9433 32.7019L63.7555 33.5481L66.7555 27.1231L64.9433 26.2769ZM61.9473 32.6935C61.8492 32.8987 61.6951 33.0796 61.4531 33.2374L62.5457 34.9126C63.0704 34.5704 63.483 34.118 63.7515 33.5565L61.9473 32.6935ZM61.4625 33.2313C61.2491 33.3672 61.0425 33.425 60.8244 33.425V35.425C61.4397 35.425 62.0164 35.2495 62.5363 34.9187L61.4625 33.2313ZM60.8244 33.425H60.6744V35.425H60.8244V33.425ZM60.6744 33.425C60.4553 33.425 60.2336 33.3664 59.9944 33.2208L58.9545 34.9292C59.4819 35.2503 60.0602 35.425 60.6744 35.425V33.425ZM60.0378 33.2488C59.8101 33.0936 59.6553 32.9105 59.5515 32.6935L57.7473 33.5565C58.0102 34.1062 58.4054 34.5564 58.9111 34.9012L60.0378 33.2488ZM59.5555 32.7019L56.5555 26.2769L54.7433 27.1231L57.7433 33.5481L59.5555 32.7019ZM56.6494 26.7C56.6494 26.5375 56.6081 26.232 56.3503 25.9741C56.0924 25.7163 55.7869 25.675 55.6244 25.675V27.675C55.4786 27.675 55.1856 27.6379 54.9361 27.3884C54.6865 27.1388 54.6494 26.8458 54.6494 26.7H56.6494ZM55.6244 25.675C55.4619 25.675 55.1564 25.7163 54.8986 25.9741C54.6407 26.232 54.5994 26.5375 54.5994 26.7H56.5994C56.5994 26.8458 56.5623 27.1388 56.3128 27.3884C56.0633 27.6379 55.7702 27.675 55.6244 27.675V25.675ZM54.5994 26.7V37.575H56.5994V26.7H54.5994ZM54.5994 37.575C54.5994 37.68 54.5726 37.7626 54.4673 37.8679L55.8815 39.2821C56.3429 38.8207 56.5994 38.2366 56.5994 37.575H54.5994ZM54.4673 37.8679C54.362 37.9732 54.2794 38 54.1744 38V40C54.8361 40 55.4201 39.7435 55.8815 39.2821L54.4673 37.8679ZM54.1744 38H53.7244V40H54.1744V38ZM79.6217 23.85L80.5846 24.1199L80.6217 23.9875V23.85H79.6217ZM77.4217 31.7L78.3704 32.0162L78.378 31.9932L78.3846 31.9699L77.4217 31.7ZM77.4467 31.85L78.2787 31.2953L78.2787 31.2953L77.4467 31.85ZM81.8717 31.7L80.9088 31.9699L80.9153 31.9932L80.923 32.0162L81.8717 31.7ZM79.6717 23.85H78.6717V23.9875L78.7088 24.1199L79.6717 23.85ZM72.3217 38.575L73.1386 37.9983L73.1386 37.9983L72.3217 38.575ZM72.1967 37.65L73.1405 37.9804L73.1431 37.9731L73.1455 37.9658L72.1967 37.65ZM77.3717 22.1L76.4354 21.7489L76.4288 21.7664L76.4228 21.7842L77.3717 22.1ZM78.0967 21.125L77.5154 20.3113L77.506 20.318L77.4967 20.325L78.0967 21.125ZM81.2967 21.125L80.6967 21.925L80.706 21.932L80.7154 21.9387L81.2967 21.125ZM82.0217 22.1L82.9705 21.7842L82.9704 21.7838L82.0217 22.1ZM87.1967 37.65L86.2478 37.9658L86.2503 37.9731L86.2528 37.9804L87.1967 37.65ZM87.0717 38.575L86.2547 37.9983L86.2547 37.9983L87.0717 38.575ZM84.2217 38.625L83.597 39.4059L83.6183 39.4229L83.6404 39.4387L84.2217 38.625ZM83.5467 37.625L82.5845 37.8975L82.5867 37.905L83.5467 37.625ZM82.7467 34.8L81.7544 34.924L81.7638 34.9994L81.7845 35.0725L82.7467 34.8ZM76.5467 34.8L77.5088 35.0725L77.5131 35.0576L77.5168 35.0425L76.5467 34.8ZM75.7467 37.625L74.7845 37.3525L74.7803 37.3674L74.7765 37.3825L75.7467 37.625ZM75.0717 38.625L75.6717 39.425L75.6777 39.4204L75.0717 38.625ZM78.6588 23.5801L76.4588 31.4301L78.3846 31.9699L80.5846 24.1199L78.6588 23.5801ZM76.473 31.3838C76.3442 31.7701 76.4373 32.1388 76.6146 32.4047L78.2787 31.2953C78.3262 31.3665 78.3788 31.4726 78.4018 31.6106C78.4256 31.753 78.4115 31.8929 78.3704 32.0162L76.473 31.3838ZM76.6146 32.4047C76.7904 32.6684 77.1166 32.925 77.5717 32.925V30.925C77.7224 30.925 77.8782 30.9652 78.0174 31.0488C78.15 31.1283 78.2323 31.2256 78.2787 31.2953L76.6146 32.4047ZM77.5717 32.925H81.7217V30.925H77.5717V32.925ZM81.7217 32.925C82.1767 32.925 82.5029 32.6684 82.6787 32.4047L81.0146 31.2953C81.0611 31.2256 81.1434 31.1283 81.2759 31.0488C81.4152 30.9652 81.571 30.925 81.7217 30.925V32.925ZM82.6787 32.4047C82.856 32.1388 82.9492 31.7701 82.8204 31.3838L80.923 32.0162C80.8819 31.8929 80.8678 31.753 80.8915 31.6106C80.9145 31.4726 80.9672 31.3665 81.0146 31.2953L82.6787 32.4047ZM82.8346 31.4301L80.6346 23.5801L78.7088 24.1199L80.9088 31.9699L82.8346 31.4301ZM80.6717 23.85C80.6717 23.6875 80.6304 23.382 80.3726 23.1242C80.1147 22.8663 79.8092 22.825 79.6467 22.825V24.825C79.5009 24.825 79.2078 24.7879 78.9583 24.5383C78.7088 24.2888 78.6717 23.9958 78.6717 23.85H80.6717ZM79.6467 22.825C79.4842 22.825 79.1787 22.8663 78.9208 23.1242C78.663 23.382 78.6217 23.6875 78.6217 23.85H80.6217C80.6217 23.9958 80.5846 24.2888 80.335 24.5383C80.0855 24.7879 79.7925 24.825 79.6467 24.825V22.825ZM73.1467 38C73.1268 38 73.1186 37.998 73.1193 37.9982C73.1196 37.9982 73.1215 37.9987 73.1247 37.9999C73.1279 38.001 73.1318 38.0026 73.1359 38.0048C73.14 38.0069 73.1437 38.0092 73.1468 38.0113C73.1499 38.0135 73.1518 38.0151 73.1525 38.0157C73.1541 38.0171 73.1489 38.0128 73.1386 37.9983L71.5047 39.1517C71.8941 39.7034 72.4753 40 73.1467 40V38ZM73.1386 37.9983C73.1286 37.9841 73.1264 37.9779 73.1271 37.9797C73.1274 37.9805 73.1283 37.9826 73.1292 37.986C73.1301 37.9893 73.1309 37.9932 73.1314 37.9973C73.132 38.0015 73.1322 38.005 73.1322 38.0078C73.1322 38.0106 73.1321 38.0119 73.1321 38.0114C73.1322 38.0106 73.1334 38.0007 73.1405 37.9804L71.2528 37.3196C71.0317 37.9514 71.1143 38.5986 71.5047 39.1517L73.1386 37.9983ZM73.1455 37.9658L78.3205 22.4158L76.4228 21.7842L71.2478 37.3342L73.1455 37.9658ZM78.308 22.4511C78.3928 22.225 78.52 22.0575 78.6967 21.925L77.4967 20.325C77.0067 20.6925 76.6506 21.175 76.4354 21.7489L78.308 22.4511ZM78.6779 21.9387C78.8642 21.8057 79.0455 21.75 79.2467 21.75V19.75C78.6145 19.75 78.0292 19.9443 77.5154 20.3113L78.6779 21.9387ZM79.2467 21.75H80.1467V19.75H79.2467V21.75ZM80.1467 21.75C80.3729 21.75 80.5437 21.8103 80.6967 21.925L81.8967 20.325C81.383 19.9397 80.7871 19.75 80.1467 19.75V21.75ZM80.7154 21.9387C80.8972 22.0685 81.0079 22.221 81.073 22.4162L82.9704 21.7838C82.7688 21.179 82.3962 20.6815 81.8779 20.3113L80.7154 21.9387ZM81.0728 22.4158L86.2478 37.9658L88.1455 37.3342L82.9705 21.7842L81.0728 22.4158ZM86.2528 37.9804C86.2599 38.0007 86.2612 38.0106 86.2613 38.0114C86.2613 38.0119 86.2611 38.0106 86.2612 38.0078C86.2612 38.005 86.2614 38.0015 86.2619 37.9973C86.2625 37.9932 86.2633 37.9893 86.2642 37.986C86.2651 37.9826 86.2659 37.9805 86.2662 37.9797C86.267 37.9779 86.2647 37.9841 86.2547 37.9983L87.8886 39.1517C88.2791 38.5986 88.3617 37.9514 88.1405 37.3196L86.2528 37.9804ZM86.2547 37.9983C86.2445 38.0129 86.2392 38.0171 86.2408 38.0157C86.2415 38.0151 86.2434 38.0135 86.2465 38.0113C86.2496 38.0092 86.2533 38.0069 86.2575 38.0048C86.2616 38.0026 86.2654 38.001 86.2687 37.9999C86.2719 37.9987 86.2738 37.9982 86.2741 37.9982C86.2748 37.998 86.2666 38 86.2467 38V40C86.918 40 87.4992 39.7034 87.8887 39.1517L86.2547 37.9983ZM86.2467 38H85.3467V40H86.2467V38ZM85.3467 38C85.1711 38 84.9968 37.9498 84.8029 37.8113L83.6404 39.4387C84.1466 39.8002 84.7223 40 85.3467 40V38ZM84.8464 37.8441C84.6695 37.7026 84.5643 37.5424 84.5067 37.345L82.5867 37.905C82.7624 38.5076 83.1072 39.0141 83.597 39.4059L84.8464 37.8441ZM84.5088 37.3525L83.7088 34.5275L81.7845 35.0725L82.5845 37.8975L84.5088 37.3525ZM83.739 34.676C83.7032 34.3903 83.5643 34.0672 83.2536 33.8413C82.9734 33.6375 82.6715 33.6 82.4717 33.6V35.6C82.4386 35.6 82.2658 35.5958 82.0773 35.4587C81.8582 35.2994 81.7735 35.0764 81.7544 34.924L83.739 34.676ZM82.4717 33.6H76.8217V35.6H82.4717V33.6ZM76.8217 33.6C76.6031 33.6 76.3167 33.6489 76.0523 33.8413C75.7785 34.0404 75.6376 34.3134 75.5765 34.5575L77.5168 35.0425C77.4891 35.1533 77.4107 35.3263 77.2286 35.4587C77.0558 35.5844 76.8902 35.6 76.8217 35.6V33.6ZM75.5845 34.5275L74.7845 37.3525L76.7088 37.8975L77.5088 35.0725L75.5845 34.5275ZM74.7765 37.3825C74.7355 37.5468 74.648 37.6906 74.4656 37.8296L75.6777 39.4204C76.1953 39.0261 76.5579 38.5032 76.7168 37.8675L74.7765 37.3825ZM74.4717 37.825C74.3114 37.9452 74.147 38 73.9467 38V40C74.5797 40 75.1653 39.8048 75.6717 39.425L74.4717 37.825ZM73.9467 38H73.1467V40H73.9467V38ZM90.1797 38.575L89.4515 39.2604L89.4619 39.2714L89.4726 39.2821L90.1797 38.575ZM90.1797 21.175L89.4726 20.4679L89.4619 20.4786L89.4515 20.4896L90.1797 21.175ZM93.8297 22L92.9497 22.4752L92.9549 22.4845L93.8297 22ZM100.005 33.15H101.005V32.8916L100.879 32.6655L100.005 33.15ZM100.48 21.175L99.7726 20.4679L99.7726 20.4679L100.48 21.175ZM103.005 21.175L102.276 21.8604L102.287 21.8714L102.298 21.8821L103.005 21.175ZM103.005 38.575L102.298 37.8679L102.287 37.8786L102.276 37.8896L103.005 38.575ZM99.3797 37.75L100.26 37.2748L100.254 37.2655L99.3797 37.75ZM93.2047 26.6H92.2047V26.8584L92.3299 27.0845L93.2047 26.6ZM91.1797 38C91.0747 38 90.9921 37.9732 90.8868 37.8679L89.4726 39.2821C89.934 39.7435 90.518 40 91.1797 40V38ZM90.9079 37.8896C90.8129 37.7887 90.7797 37.6994 90.7797 37.575H88.7797C88.7797 38.2173 89.0131 38.7946 89.4515 39.2604L90.9079 37.8896ZM90.7797 37.575V22.175H88.7797V37.575H90.7797ZM90.7797 22.175C90.7797 22.0506 90.8129 21.9613 90.9079 21.8604L89.4515 20.4896C89.0131 20.9554 88.7797 21.5327 88.7797 22.175H90.7797ZM90.8868 21.8821C90.9921 21.7768 91.0747 21.75 91.1797 21.75V19.75C90.518 19.75 89.934 20.0065 89.4726 20.4679L90.8868 21.8821ZM91.1797 21.75H91.7297V19.75H91.1797V21.75ZM91.7297 21.75C92.0549 21.75 92.2845 21.8199 92.4557 21.9218C92.6267 22.0236 92.7965 22.1913 92.9498 22.4751L94.7096 21.5249C94.4129 20.9754 94.0077 20.5181 93.4787 20.2032C92.9498 19.8884 92.3544 19.75 91.7297 19.75V21.75ZM92.9549 22.4845L99.1299 33.6345L100.879 32.6655L94.7045 21.5155L92.9549 22.4845ZM99.0047 33.15C99.0047 33.3125 99.046 33.618 99.3038 33.8759C99.5617 34.1337 99.8672 34.175 100.03 34.175V32.175C100.176 32.175 100.469 32.2121 100.718 32.4616C100.968 32.7112 101.005 33.0042 101.005 33.15H99.0047ZM100.03 34.175C100.192 34.175 100.498 34.1337 100.756 33.8759C101.013 33.618 101.055 33.3125 101.055 33.15H99.0547C99.0547 33.0042 99.0918 32.7112 99.3413 32.4616C99.5908 32.2121 99.8839 32.175 100.03 32.175V34.175ZM101.055 33.15V22.175H99.0547V33.15H101.055ZM101.055 22.175C101.055 22.07 101.082 21.9874 101.187 21.8821L99.7726 20.4679C99.3112 20.9293 99.0547 21.5134 99.0547 22.175H101.055ZM101.187 21.8821C101.292 21.7768 101.375 21.75 101.48 21.75V19.75C100.818 19.75 100.234 20.0065 99.7726 20.4679L101.187 21.8821ZM101.48 21.75H102.03V19.75H101.48V21.75ZM102.03 21.75C102.133 21.75 102.196 21.7744 102.276 21.8604L103.733 20.4896C103.28 20.0089 102.693 19.75 102.03 19.75V21.75ZM102.298 21.8821C102.403 21.9874 102.43 22.07 102.43 22.175H104.43C104.43 21.5134 104.173 20.9293 103.712 20.4679L102.298 21.8821ZM102.43 22.175V37.575H104.43V22.175H102.43ZM102.43 37.575C102.43 37.68 102.403 37.7626 102.298 37.8679L103.712 39.2821C104.173 38.8207 104.43 38.2366 104.43 37.575H102.43ZM102.276 37.8896C102.196 37.9756 102.133 38 102.03 38V40C102.693 40 103.28 39.7411 103.733 39.2604L102.276 37.8896ZM102.03 38H101.48V40H102.03V38ZM101.48 38C101.154 38 100.925 37.9301 100.754 37.8282C100.583 37.7264 100.413 37.5587 100.26 37.2749L98.4998 38.2251C98.7965 38.7746 99.2017 39.2319 99.7307 39.5468C100.26 39.8616 100.855 40 101.48 40V38ZM100.254 37.2655L94.0795 26.1155L92.3299 27.0845L98.5049 38.2345L100.254 37.2655ZM94.2047 26.6C94.2047 26.4375 94.1634 26.132 93.9055 25.8741C93.6477 25.6163 93.3422 25.575 93.1797 25.575V27.575C93.0339 27.575 92.7408 27.5379 92.4913 27.2884C92.2418 27.0388 92.2047 26.7458 92.2047 26.6H94.2047ZM93.1797 25.575C93.0172 25.575 92.7117 25.6163 92.4538 25.8741C92.196 26.132 92.1547 26.4375 92.1547 26.6H94.1547C94.1547 26.7458 94.1176 27.0388 93.868 27.2884C93.6185 27.5379 93.3255 27.575 93.1797 27.575V25.575ZM92.1547 26.6V37.575H94.1547V26.6H92.1547ZM92.1547 37.575C92.1547 37.68 92.1278 37.7626 92.0226 37.8679L93.4368 39.2821C93.8982 38.8207 94.1547 38.2366 94.1547 37.575H92.1547ZM92.0226 37.8679C91.9173 37.9732 91.8347 38 91.7297 38V40C92.3913 40 92.9754 39.7435 93.4368 39.2821L92.0226 37.8679ZM91.7297 38H91.1797V40H91.7297V38Z" fill="black" mask="url(#path-1-outside-1_5_16)"/>
</svg>
